<svg xmlns="http://www.w3.org/2000/svg" width="68.024" height="64.61" viewBox="0 0 68.024 64.61"><g id="Layer_2" data-name="Layer 2"><g id="Layer_1-2" data-name="Layer 1"><g id="symbol"><polygon id="svg_2" data-name="svg 2" points="41.539 0 30.315 26.21 15.567 60.651 49.859 46.165 68.023 38.493 41.539 0" style="fill:#8087e8"/><polygon id="svg_3" data-name="svg 3" points="47.258 31.73 49.86 46.165 68.024 38.493 47.258 31.73" style="fill:#30426b"/><polygon id="svg_4" data-name="svg 4" points="41.539 0 47.258 31.731 68.023 38.493 41.539 0" style="fill:#6699a1"/><polygon id="svg_5" data-name="svg 5" points="47.258 31.73 68.024 38.493 30.316 26.209 15.567 60.651 49.86 46.165 47.258 31.73" style="fill:#78758c"/><polygon id="svg_6" data-name="svg 6" points="15.567 60.651 30.315 26.21 0 16.335 15.567 60.651" style="fill:#a3edba"/><polygon id="svg_7" data-name="svg 7" points="49.86 46.165 53.186 64.61 68.024 38.493 49.86 46.165" style="fill:#6699a1"/><polygon id="svg_8" data-name="svg 8" points="41.539 0 30.315 26.21 47.258 31.731 41.539 0" style="fill:#8087e8"/></g></g></g></svg>