<svg xmlns="http://www.w3.org/2000/svg" xmlns:xlink="http://www.w3.org/1999/xlink" width="19.2in" height="10.8in" viewBox="0 0 1382.4 777.6"><defs><style>.cls-1{fill:none;}.cls-2{isolation:isolate;}.cls-3{clip-path:url(#clip-path);}.cls-4{fill:#95a196;}.cls-5{fill:#85a088;}.cls-6{fill:#5c9f63;}.cls-7{fill:#439f4d;}.cls-8{fill:#019d12;}.cls-9{fill:#b3b3b3;mix-blend-mode:overlay;}</style><clipPath id="clip-path"><rect class="cls-1" x="78.8737" y="202.389" width="1224.6526" height="744.6511"/></clipPath></defs><g class="cls-2"><g id="Layer_1" data-name="Layer 1"><g class="cls-3"><polygon class="cls-4" points="449.536 739.029 59.891 959.285 1.383 992.315 174.036 992.451 217.93 959.399 510.081 739.029 449.536 739.029"/><polygon class="cls-5" points="555.203 739.029 335.974 959.285 303.023 992.315 475.781 992.451 494.102 959.399 615.747 739.029 555.203 739.029"/><polygon class="cls-6" points="660.869 739.029 612.058 959.285 604.662 992.315 777.527 992.451 770.274 959.399 721.414 739.029 660.869 739.029"/><polygon class="cls-7" points="766.535 739.029 888.142 959.285 906.303 992.315 1079.272 992.451 1046.447 959.399 827.08 739.029 766.535 739.029"/><polygon class="cls-8" points="872.202 739.029 1164.226 959.285 1207.942 992.315 1381.017 992.451 1322.618 959.399 932.746 739.029 872.202 739.029"/><rect class="cls-4" x="449.5365" y="666.0819" width="60.5446" height="72.9471"/><rect class="cls-5" x="555.2023" y="624.0872" width="60.545" height="114.9418"/><rect class="cls-6" x="660.869" y="577.7179" width="60.5446" height="161.3111"/><rect class="cls-7" x="766.5353" y="530.4737" width="60.5446" height="208.5553"/><rect class="cls-8" x="872.2015" y="482.3547" width="60.5446" height="256.6742"/><polygon class="cls-9" points="449.536 739.029 59.891 959.285 1.383 992.315 174.036 992.451 217.93 959.399 510.081 739.029 449.536 739.029"/><polygon class="cls-9" points="555.203 739.029 335.974 959.285 303.023 992.315 475.781 992.451 494.102 959.399 615.747 739.029 555.203 739.029"/><polygon class="cls-9" points="660.869 739.029 612.058 959.285 604.662 992.315 777.527 992.451 770.274 959.399 721.414 739.029 660.869 739.029"/><polygon class="cls-9" points="766.535 739.029 888.142 959.285 906.303 992.315 1079.272 992.451 1046.447 959.399 827.08 739.029 766.535 739.029"/><polygon class="cls-9" points="872.202 739.029 1164.226 959.285 1207.942 992.315 1381.017 992.451 1322.618 959.399 932.746 739.029 872.202 739.029"/><polygon class="cls-4" points="475.91 626.712 404.832 687.044 546.987 687.044 475.91 626.712"/><polygon class="cls-5" points="585.982 575.531 514.904 635.863 657.059 635.863 585.982 575.531"/><polygon class="cls-6" points="689.578 525.662 618.501 585.994 760.656 585.994 689.578 525.662"/><polygon class="cls-7" points="796.772 478.418 725.695 538.75 867.85 538.75 796.772 478.418"/><polygon class="cls-8" points="901.088 428.549 830.011 488.881 972.166 488.881 901.088 428.549"/></g></g></g></svg>