<svg xmlns="http://www.w3.org/2000/svg" width="138.584" height="160" viewBox="0 0 138.584 160"><g id="Layer_2" data-name="Layer 2"><g id="Layer_1-2" data-name="Layer 1"><path d="M134.563,80.556c-22.368.439-17.709,14.599-33.473,18.18-16.014,3.638-18.542-39.111-34.552-39.111-16.012,0-19.559,41.526-39.608,70.034l-.572.807,42.985,24.813,65.22-37.651Z" style="fill:#36a2eb"/><path d="M134.563,79.267c-7.488-9.61-12.567-20.658-23.494-20.658-19.337,0-14.249,31.545-35.62,31.545-21.373,0-23.62-33.931-47.832-2.035A170.204,170.204,0,0,0,8.814,120.337L69.343,155.28l65.22-37.651Z" style="fill:#ffce56"/><path d="M4.121,92.334c7.338-20.321,10.505-36.779,24.514-36.779,21.371,0,26.458,60.039,44.779,53.931,18.318-6.105,16.282-38.669,44.779-38.669,5.424,0,10.962,3.323,16.371,8.698v38.113l-65.22,37.651L4.122,117.628V92.334Z" style="fill:#fe6184;opacity:0.800000011920929;isolation:isolate"/><path d="M69.292,160,0,120.001V40L69.292,0l69.292,40v80ZM8.141,115.301l61.151,35.301,61.151-35.301V44.7L69.292,9.399,8.141,44.7Z" style="fill:#e7e9ed"/></g></g></svg>