<svg id="Layer_1" data-name="Layer 1" xmlns="http://www.w3.org/2000/svg" width="1920" height="1080" viewBox="0 0 1920 1080"><defs><style>.cls-1{fill:#1e1d32;}.cls-2{fill:#e95766;}</style></defs><path class="cls-1" d="M1834.2425,449.519c-2.1969,9.7218-3.937,19.5738-6.6641,29.1444-18.3266,64.3122-60.9388,103.2091-125.82,116.9361-38.0389,8.0479-74.5788,1.2254-108.5038-17.9629-5.3886-3.0479-8.6422-3.2251-13.4293,1.54q-56.2381,55.984-113.2417,111.1941c-5.2267,5.051-5.1548,8.5363-2.3353,14.5151,25.9517,55.0327,22.4666,108.7112-9.8,159.9429-32.7818,52.05-98.235,80.3629-158.2371,69.8031-71.7988-12.6358-117.3118-55.1755-132.9973-125.3539-19.9858-89.4187,38.8144-174.0361,125.5316-190.6872,38.165-7.3283,74.5611-2.19,108.7594,16.3737,5.2568,2.8535,8.0685,2.6366,12.3388-1.61q57.49-57.1674,115.5491-113.76c4.3437-4.2312,4.5038-7.2971,2.044-12.4349-10.0739-21.0407-15.9962-43.19-15.5749-66.6957.1007-5.6169-.905-8.1731-7.3809-9.9462-26.9036-7.3662-53.482-15.917-80.1964-23.9782-23.2658-7.0205-33.3106-25.5263-26.7178-49.3711,6.2977-22.7778,26.2368-34.09,49.2423-27.5884,25.3763,7.1717,50.822,14.1689,75.8992,22.287,8.2069,2.6568,12.4062,1.7889,17.43-5.45,31.9446-46.0285,77.2938-69.7314,132.2925-69.692,77.4352.0556,140.2328,51.9416,157.4213,127.3694,1.5374,6.7462.4186,14.0806,4.39,20.2768ZM1400.822,776.0148c.8786-42.2146-35.0243-79.0166-77.9872-79.94-45.1063-.9693-82.97,33.5748-82.7347,77.2724.2667,49.5579,30.2471,80.5347,77.2223,82.7624C1363.7651,858.3121,1399.8544,822.5,1400.822,776.0148ZM1752.29,437.4081a78.86,78.86,0,0,0-78.0248-79.6864q-.9529-.01-1.9061.0029a79.6584,79.6584,0,0,0-80.4108,78.8989q-.01,1.0035.0062,2.0069c.0984,43.9213,36.51,79.6563,80.9753,79.4708a79.6783,79.6783,0,0,0,79.3661-79.9895Q1752.2942,437.76,1752.29,437.4081Z"/><path class="cls-2" d="M1219.2642,143.177c15.0022,4.5495,30.6139,6.6969,45.1041,13.3886,56.79,26.2262,90.57,70.6533,95.9153,132.2274,5.694,65.5959-20.8667,118.1492-77.7835,153.4736-5.514,3.4222-5.8718,6.2219-4.4743,11.7544,6.6646,26.3838,12.8729,52.8828,19.2556,79.3378,5.7408,23.7947-5.9312,43.9233-28.3058,48.7861-26.5471,5.7695-44.5157-5.8217-50.11-31.1458-5.6283-25.48-12.7244-50.6376-18.25-76.1374-1.8318-8.4538-6.331-10.0841-13.6032-10.7575-57.1944-5.2964-100.7554-33.3126-127.873-83.2741-50.7476-93.4976-.0947-212.0926,111.8684-235.315,3.8879-.8063,8.4263,1.5886,11.6772-2.3381Zm61.6273,160.8576a81.5473,81.5473,0,0,0-80.6944-80.6887c-43.3328-.1377-80.4348,37.099-80.5582,80.8507-.1235,43.7922,36.9015,80.577,80.8707,80.3463a80.79,80.79,0,0,0,80.3819-80.5083Z"/></svg>