<svg xmlns="http://www.w3.org/2000/svg" width="1920" height="1080" viewBox="0 0 1920 1080"><defs><style>.cls-1{isolation:isolate;}.cls-2,.cls-9{fill:#f2f2f2;}.cls-2,.cls-5{mix-blend-mode:multiply;}.cls-3{fill:#f5f5f5;}.cls-4{fill:#fddcbe;}.cls-6{fill:#e6e6e6;}.cls-7{fill:#574939;}.cls-8{fill:#eb7d86;}.cls-10{fill:#726658;}.cls-11{fill:#ffc64a;}.cls-12{fill:#dbaa40;}.cls-13{fill:#e8f0ec;}</style></defs><g class="cls-1"><g id="Layer_1" data-name="Layer 1"><ellipse class="cls-2" cx="285.0018" cy="933.6265" rx="121.0285" ry="13.5108"/><path class="cls-3" d="M347.0209,732.048l-19.2924-3.6025s2.3114-7.6954,5.62-22.4122l18.6089,3.9654C350.4209,717.0328,348.7862,724.3538,347.0209,732.048Z"/><path class="cls-4" d="M333.349,706.0333c5.5541-24.7015,15.3579-94.424,20.3411-155.6155,0,0,.8389-5.1989,3.0939-4.6854,3.0124.687,2.3839,4.5112,2.0407,5.9461.3833-1.3042,1.6064-4.59,4.0646-3.9248,2.4779.67,1.8824,4.0677,1.572,5.3173l.031.0078c.4844-1.2808,2.1068-4.8058,5.03-3.97,2.2042.63,2.1518,2.7578,1.7939,4.2877a5.8448,5.8448,0,0,0-.1739.6433c.0607-.1959.12-.4133.1739-.6433.4882-1.4769,1.6355-3.0244,3.4648-2.6874,2.0289.4824,1.0846,5.62,1.0846,5.62-1.5644,8.6206-5.988,71.6673-23.9074,153.6688Z"/><g class="cls-5"><path class="cls-6" d="M333.349,706.033c1.8564-8.2564,4.1887-21.56,6.6556-37.8766,3.0383,7.6438,8.657,22.3185,13.0384,36.7955-.3591,1.6785-.7148,3.3522-1.0851,5.0468-1.5372,7.0341-3.1717,14.3551-4.937,22.0491l-19.2924-3.6026S330.04,720.75,333.349,706.033Z"/></g><path class="cls-4" d="M345.8479,713.4092s-6.4681-204.7926-158.68-129.0835c0,0-25.6531,51.2708-18.4318,147.8866C289.8494,746.3494,345.8479,713.4092,345.8479,713.4092Z"/><path class="cls-7" d="M309.7379,500.4522s83.9966,115.919-104.5256,122.0149l.322,36.8184S187.957,645.1566,185.218,662.71c-2.7357,17.5531,19.771,9.3567,19.771,9.3567s-15.7,46.4438-35.5964,60.2234c0,0-71.8417-152.4276-.83-156.58,0,0-.0194-27.2655,37.5946-44.2662C259.8121,507.1929,294.3313,566.4979,309.7379,500.4522Z"/><path class="cls-7" d="M192.3089,838.1382l5.8791,45.3139-3.6972,49.9533s63.0365,17.0456,47.1484-7.8225c-14.6739-22.9665-37.57-3.8859-37.57-3.8859l8.9977-40.4066,1.49-31.0424s63.83,3.934,118.8336-11.995l3.2176,36.225-8.3126,52.1992s58.3487,19.5868,42.194-7.5414c-8.9561-15.04-30.9616-5.6022-30.9616-5.6022l11.6865-39.13,1.7573-53.1425Z"/><path class="cls-3" d="M345.8479,713.4092l7.1236,107.8514s-65.7787,19.4129-160.6626,16.8776L168.7358,732.2123S278.4486,741.9667,345.8479,713.4092Z"/><g class="cls-5"><polygon class="cls-6" points="307.737 733.568 311.509 739.452 307.48 747.038 316.424 810.971 299.985 826.518 283.948 812.366 298.488 748.504 292.498 741.301 294.933 736.053 307.737 733.568"/></g><polygon class="cls-7" points="307.737 733.568 311.509 739.452 307.48 747.038 320.173 809.572 303.734 825.119 287.696 810.967 298.488 748.504 292.498 741.301 294.933 736.053 307.737 733.568"/><path class="cls-8" d="M308.5938,678.7219s-32.85,2.7731-52.0931,11.5159c0,0,1.3074,26.87,31.8979,21.0264C318.6762,705.48,308.5938,678.7219,308.5938,678.7219Z"/><path class="cls-3" d="M173.8474,756.1355l15.5706-11.9467s-5.5448-5.8153-15.1586-17.4393L159.4625,738.711C164.0178,744.2867,168.79,750.0745,173.8474,756.1355Z"/><path class="cls-4" d="M174.2594,726.75c-16.136-19.5093-54.8586-73.5511-87.0071-125.8551,0,0-3.1017-4.2559-4.88-2.7771-2.375,1.9769-.0828,5.1019.8731,6.2257-.9327-.9889-3.5107-3.365-5.4017-1.6594-1.9059,1.72.1634,4.48,1.0058,5.4531l-.0241.021c-1.0116-.9226-4.0541-3.3309-6.2817-1.2622-1.68,1.56-.67,3.4333.3419,4.6355a5.8892,5.8892,0,0,1,.4463.4946c-.1429-.147-.2945-.3142-.4463-.4946-1.1043-1.0959-2.8274-1.9564-4.3065-.8277-1.5905,1.3489,1.5778,5.5026,1.5778,5.5026,5.2982,6.9784,36.2009,57.5031,89.3055,122.5051Z"/><path class="cls-7" d="M246.5932,659.36c1.2451,6.452-.4379,12.2019-3.7591,12.8429s-7.0232-4.07-8.2683-10.5221.4379-12.202,3.7592-12.8429S245.348,652.9078,246.5932,659.36Z"/><path class="cls-7" d="M321.6817,644.8705c1.2451,6.452-.438,12.2019-3.7593,12.8429s-7.023-4.07-8.2681-10.5221.4379-12.202,3.7591-12.8429S320.4364,638.4184,321.6817,644.8705Z"/><g class="cls-5"><ellipse class="cls-9" cx="710.7222" cy="932.2277" rx="130.2967" ry="14.5453"/></g><path class="cls-10" d="M710.7227,936.3224a4.0942,4.0942,0,0,1-4.0949-4.0948V329.17a4.0949,4.0949,0,1,1,8.19,0v603.058A4.0942,4.0942,0,0,1,710.7227,936.3224Z"/><path class="cls-10" d="M710.7227,478.7261a4.0816,4.0816,0,0,1-2.8952-1.2L641.07,410.7694a4.0945,4.0945,0,0,1,5.79-5.7905l66.7577,66.7571a4.0949,4.0949,0,0,1-2.8952,6.99Z"/><path class="cls-10" d="M711.2492,610.3a4.095,4.095,0,0,1-2.8951-6.99L873.29,438.3724a4.0945,4.0945,0,0,1,5.79,5.79L714.1444,609.1A4.0815,4.0815,0,0,1,711.2492,610.3Z"/><path class="cls-10" d="M776.0142,545.5338a4.0946,4.0946,0,0,1-4.0948-4.0948V469.2241a4.0949,4.0949,0,1,1,8.19,0V541.439A4.0946,4.0946,0,0,1,776.0142,545.5338Z"/><path class="cls-10" d="M710.7227,733.4445a4.0819,4.0819,0,0,1-2.8952-1.2L505.9819,530.4007a4.0945,4.0945,0,0,1,5.7905-5.7905L713.6179,726.4544a4.0949,4.0949,0,0,1-2.8952,6.99Z"/><path class="cls-10" d="M653.8369,676.56a4.0943,4.0943,0,0,1-4.0949-4.0949v-72.34a4.0949,4.0949,0,1,1,8.19,0v72.34A4.0943,4.0943,0,0,1,653.8369,676.56Z"/><path class="cls-10" d="M601.8991,624.6222H543.1045a4.0949,4.0949,0,1,1,0-8.19h58.7946a4.0949,4.0949,0,0,1,0,8.19Z"/><path class="cls-10" d="M711.4746,838.2266a4.0949,4.0949,0,0,1-2.8953-6.99L867.8571,671.9587a4.0944,4.0944,0,0,1,5.79,5.79L714.37,837.0269A4.0814,4.0814,0,0,1,711.4746,838.2266Z"/><path class="cls-10" d="M756.6782,793.0229a4.0942,4.0942,0,0,1-4.0949-4.0949V713.1554a4.0949,4.0949,0,0,1,8.19,0V788.928A4.0943,4.0943,0,0,1,756.6782,793.0229Z"/><path class="cls-10" d="M841.0191,758.0552H791.6459a4.0949,4.0949,0,1,1,0-8.19h49.3732a4.0949,4.0949,0,1,1,0,8.19Z"/><circle class="cls-11" cx="868.9221" cy="674.8632" r="38.3002" transform="translate(-225.0495 557.8502) rotate(-31.7301)"/><circle class="cls-12" cx="868.9221" cy="674.8632" r="31.1756" transform="translate(-231.265 667.4906) rotate(-37.4514)"/><path class="cls-11" d="M859.4873,688.6831q-2.336-2.073-2.3353-6.6v-1.2868h8.578v.9055a4.1587,4.1587,0,0,0,.81,2.9545,2.8948,2.8948,0,0,0,2.1448.81,2.5791,2.5791,0,0,0,2.12-.9057,3.6878,3.6878,0,0,0-.2865-4.7652,9.3326,9.3326,0,0,0-2.5721-1.6443q-1.5505-.69-3.36-1.3821a14.5192,14.5192,0,0,1-3.36-1.8109,9.0327,9.0327,0,0,1-2.5732-2.9308,9.5191,9.5191,0,0,1-1.0245-4.7179q0-8.9106,8.721-10.3412v-2.764h4.3837v2.764q4.7653.4773,6.91,2.8831,2.1451,2.4074,2.1443,7.3152h-8.2924v-.7147a4.9261,4.9261,0,0,0-.6184-2.5019,2.0548,2.0548,0,0,0-1.9072-1.0722,2.4038,2.4038,0,0,0-2.0964.9293,3.3961,3.3961,0,0,0-.6671,2.0251,3.3251,3.3251,0,0,0,1.0722,2.6212,9.77,9.77,0,0,0,2.6923,1.6439q1.62.6916,3.4784,1.3344a13.8779,13.8779,0,0,1,3.48,1.7873,9.2994,9.2994,0,0,1,2.6921,3.002,9.8945,9.8945,0,0,1,1.0728,4.9563q0,4.8608-2.5268,7.196t-7.4342,2.8592v4.2891H866.35v-4.2891A12.0164,12.0164,0,0,1,859.4873,688.6831Z"/><path class="cls-13" d="M821.9169,704.4659a2.5973,2.5973,0,0,1,.8131-3.5964h0a2.61,2.61,0,0,1,3.6024.8071h0a2.623,2.623,0,0,1-.8131,3.6084h0a2.628,2.628,0,0,1-3.2452-.3632h0A2.1531,2.1531,0,0,1,821.9169,704.4659Zm16.6579,13.8505a2.6113,2.6113,0,0,1,3.6029-.82h0a2.6071,2.6071,0,0,1,.8186,3.603h0a2.6109,2.6109,0,0,1-3.6024.8191h0a2.6088,2.6088,0,0,1-.4559-.3573h0A2.6283,2.6283,0,0,1,838.5748,718.3164Zm-24.8423-37.1722.0063.0062h0a2.6055,2.6055,0,0,1,2.297-2.8882h0a2.606,2.606,0,0,1,2.8879,2.2974h0a2.6062,2.6062,0,0,1-2.297,2.8882h0a2.601,2.601,0,0,1-2.1491-.7454h0A2.6362,2.6362,0,0,1,813.7325,681.1442Zm46.6924,46.0273a2.5967,2.5967,0,0,1,2.8825-2.3029h0a2.6161,2.6161,0,0,1,2.3087,2.8886h0a2.6053,2.6053,0,0,1-2.8885,2.2968h0l-.006.006h0a2.5927,2.5927,0,0,1-1.5509-.7512h0A2.5769,2.5769,0,0,1,860.4249,727.1715Zm-43.9706-70.5741a2.6161,2.6161,0,0,1,3.3252-1.6135h0a2.6087,2.6087,0,0,1,1.614,3.3254h0a2.6161,2.6161,0,0,1-3.3255,1.6133h0a2.6905,2.6905,0,0,1-.9921-.6216h0A2.6131,2.6131,0,0,1,816.4543,656.5974ZM883.95,725.6939a2.62,2.62,0,0,1,1.6069-3.3319h0a2.6184,2.6184,0,0,1,3.3323,1.6077h0a2.6262,2.6262,0,0,1-1.6081,3.3317h0a2.6246,2.6246,0,0,1-2.7154-.6224h0A2.7511,2.7511,0,0,1,883.95,725.6939ZM829.5716,635.659a2.6165,2.6165,0,0,1,3.7012-.0062h0a2.6131,2.6131,0,0,1,.006,3.6889h0a2.6146,2.6146,0,0,1-3.6949.012h0A2.6146,2.6146,0,0,1,829.5716,635.659Zm74.9344,74.7866.0493-.0492h0a.4736.4736,0,0,1,.074-.0862h0a2.6266,2.6266,0,0,1,3.6953-.0123h0a2.615,2.615,0,0,1,.0121,3.6951h0l-.074.074h0l-.0676.0676h0l.0059.006h0a2.6147,2.6147,0,0,1-3.695,0h0A2.61,2.61,0,0,1,904.506,710.4456Zm-55.634-84.6522a2.6058,2.6058,0,0,1,1.595-3.3318h0a2.6064,2.6064,0,0,1,3.3317,1.5949h0a2.6063,2.6063,0,0,1-1.595,3.3317h0a2.6172,2.6172,0,0,1-2.7221-.6155h0A2.6121,2.6121,0,0,1,848.872,625.7934ZM916.4781,691.33h0a2.6167,2.6167,0,0,1,3.3257-1.6129h0a2.6085,2.6085,0,0,1,1.62,3.3191h0a2.6171,2.6171,0,0,1-3.3261,1.6133h0a2.548,2.548,0,0,1-.9974-.6155h0A2.6294,2.6294,0,0,1,916.4781,691.33Zm-44.34-69.3672a2.6037,2.6037,0,0,1,2.876-2.3094h0a2.6152,2.6152,0,0,1,2.3157,2.8822h0a2.6153,2.6153,0,0,1-2.8823,2.3157h0a2.6444,2.6444,0,0,1-1.5642-.7517h0A2.6014,2.6014,0,0,1,872.138,621.9628Zm46.7665,47.1116h0a2.6166,2.6166,0,0,1,2.3031-2.8948h0a2.6062,2.6062,0,0,1,2.8882,2.297h0a2.6055,2.6055,0,0,1-2.2908,2.8944h0a2.6005,2.6005,0,0,1-2.149-.7447h0A2.609,2.609,0,0,1,918.9045,669.0744Zm-24.1406-40.4975a2.6118,2.6118,0,0,1,3.5964-.8251h0a2.6031,2.6031,0,0,1,.8311,3.6024h0a2.6115,2.6115,0,0,1-3.5962.8251h0a2.7906,2.7906,0,0,1-.4679-.3692h0A2.61,2.61,0,0,1,894.7639,628.5769Zm16.695,19.3923h0a2.6256,2.6256,0,0,1,.8131-3.6085h0a2.6218,2.6218,0,0,1,3.6087.8128h0a2.622,2.622,0,0,1-.8125,3.609h0a2.6224,2.6224,0,0,1-3.2461-.3635h0A2.5764,2.5764,0,0,1,911.4589,647.9692Z"/><circle class="cls-11" cx="508.8864" cy="527.5007" r="38.3001"/><circle class="cls-12" cx="508.8864" cy="527.5007" r="31.1757" transform="translate(-197.9406 333.5471) rotate(-30.6847)"/><path class="cls-11" d="M499.4515,541.3206q-2.3356-2.073-2.3353-6.6v-1.2868h8.578v.9057a4.1584,4.1584,0,0,0,.81,2.9543,2.895,2.895,0,0,0,2.1448.81,2.58,2.58,0,0,0,2.12-.9057,3.6881,3.6881,0,0,0-.2865-4.7652,9.3313,9.3313,0,0,0-2.5723-1.6442q-1.5505-.69-3.36-1.3822a14.5178,14.5178,0,0,1-3.36-1.8109,9.0311,9.0311,0,0,1-2.5732-2.9307,9.5186,9.5186,0,0,1-1.0246-4.718q0-8.91,8.721-10.3412v-2.764h4.3837v2.764q4.7655.4773,6.91,2.8831,2.1451,2.4074,2.1444,7.3152H511.46V519.09a4.9261,4.9261,0,0,0-.6185-2.5019,2.0547,2.0547,0,0,0-1.9071-1.0722,2.4041,2.4041,0,0,0-2.0965.9292,3.3972,3.3972,0,0,0-.667,2.0252,3.3248,3.3248,0,0,0,1.0723,2.6212,9.7683,9.7683,0,0,0,2.6921,1.6439q1.6206.6916,3.4785,1.3344a13.8738,13.8738,0,0,1,3.48,1.7873,9.2983,9.2983,0,0,1,2.6921,3.002,9.8947,9.8947,0,0,1,1.0729,4.9563q0,4.8608-2.5269,7.196t-7.4341,2.8592v4.2891h-4.3838V543.87A12.0164,12.0164,0,0,1,499.4515,541.3206Z"/><path class="cls-13" d="M538.4891,574.5059a2.5975,2.5975,0,0,1-3.5964-.8131h0A2.61,2.61,0,0,1,535.7,570.09h0a2.623,2.623,0,0,1,3.6085.8131h0a2.628,2.628,0,0,1-.3633,3.2451h0A2.1478,2.1478,0,0,1,538.4891,574.5059ZM552.34,557.848a2.6114,2.6114,0,0,1-.82-3.603h0a2.6071,2.6071,0,0,1,3.603-.8184h0a2.6107,2.6107,0,0,1,.8191,3.6022h0a2.5972,2.5972,0,0,1-.3574.4559h0A2.6281,2.6281,0,0,1,552.34,557.848ZM515.1674,582.69l.0063-.0063h0a2.6058,2.6058,0,0,1-2.8883-2.2971h0a2.6059,2.6059,0,0,1,2.2974-2.8878h0a2.6061,2.6061,0,0,1,2.8883,2.2969h0a2.6008,2.6008,0,0,1-.7454,2.1491h0A2.6358,2.6358,0,0,1,515.1674,582.69Zm46.0273-46.6925a2.5966,2.5966,0,0,1-2.3028-2.8825h0a2.616,2.616,0,0,1,2.8885-2.3088h0a2.6053,2.6053,0,0,1,2.2968,2.8885h0l.006.006h0a2.5934,2.5934,0,0,1-.7511,1.551h0A2.5774,2.5774,0,0,1,561.1947,535.9979Zm-70.574,43.9706a2.6162,2.6162,0,0,1-1.6136-3.3252h0a2.6088,2.6088,0,0,1,3.3255-1.6139h0a2.6159,2.6159,0,0,1,1.6132,3.3255h0a2.688,2.688,0,0,1-.6216.992h0A2.6125,2.6125,0,0,1,490.6207,579.9685ZM559.717,512.473a2.62,2.62,0,0,1-3.3317-1.607h0a2.6185,2.6185,0,0,1,1.6075-3.3324h0a2.6265,2.6265,0,0,1,3.3319,1.6082h0a2.6245,2.6245,0,0,1-.6226,2.7153h0A2.7534,2.7534,0,0,1,559.717,512.473Zm-90.0347,54.3782a2.6165,2.6165,0,0,1-.0064-3.7012h0a2.6134,2.6134,0,0,1,3.6891-.0061h0a2.6151,2.6151,0,0,1,.012,3.6951h0A2.6146,2.6146,0,0,1,469.6823,566.8512Zm74.7865-74.9345-.0493-.0493h0a.4722.4722,0,0,1-.086-.074h0a2.6264,2.6264,0,0,1-.0123-3.6953h0a2.6148,2.6148,0,0,1,3.695-.012h0l.0739.0739h0l.0677.0677h0l.0061-.006h0a2.6147,2.6147,0,0,1,0,3.695h0A2.61,2.61,0,0,1,544.4688,491.9167Zm-84.6522,55.6341a2.6057,2.6057,0,0,1-3.3317-1.5949h0a2.6064,2.6064,0,0,1,1.5948-3.3318h0a2.6066,2.6066,0,0,1,3.3318,1.595h0a2.6179,2.6179,0,0,1-.6155,2.7221h0A2.6093,2.6093,0,0,1,459.8166,547.5508Zm65.5367-67.6062h0a2.6167,2.6167,0,0,1-1.613-3.3257h0a2.6085,2.6085,0,0,1,3.3192-1.62h0a2.6171,2.6171,0,0,1,1.6133,3.326h0a2.5486,2.5486,0,0,1-.6156.9973h0A2.6288,2.6288,0,0,1,525.3533,479.9446Zm-69.3673,44.34a2.6037,2.6037,0,0,1-2.31-2.8759h0a2.6154,2.6154,0,0,1,2.8823-2.3156h0a2.6152,2.6152,0,0,1,2.3157,2.8822h0a2.6437,2.6437,0,0,1-.7518,1.5643h0A2.6007,2.6007,0,0,1,455.986,524.2847Zm47.1116-46.7664h0a2.6167,2.6167,0,0,1-2.8949-2.3031h0A2.6065,2.6065,0,0,1,502.5,472.327h0a2.6055,2.6055,0,0,1,2.8945,2.2907h0a2.6005,2.6005,0,0,1-.7449,2.1491h0A2.6084,2.6084,0,0,1,503.0976,477.5183ZM462.6,501.659a2.612,2.612,0,0,1-.8251-3.5966h0a2.6032,2.6032,0,0,1,3.6023-.8311h0a2.6118,2.6118,0,0,1,.8252,3.5964h0a2.7956,2.7956,0,0,1-.3694.4679h0A2.61,2.61,0,0,1,462.6,501.659Zm19.3921-16.695h0a2.6257,2.6257,0,0,1-3.6084-.8131h0a2.6217,2.6217,0,0,1,.8129-3.6087h0a2.6218,2.6218,0,0,1,3.6089.8124h0a2.6219,2.6219,0,0,1-.3635,3.246h0A2.5707,2.5707,0,0,1,481.9923,484.964Z"/><circle class="cls-11" cx="876.1905" cy="441.2766" r="38.3002" transform="translate(-77.3659 671.8523) rotate(-40.3248)"/><circle class="cls-12" cx="876.1905" cy="441.2767" r="31.1756" transform="translate(-78.4746 215.3356) rotate(-13.416)"/><path class="cls-11" d="M866.7556,455.0966q-2.3358-2.073-2.3353-6.6V447.21h8.5781v.9055a4.1582,4.1582,0,0,0,.81,2.9545,2.8947,2.8947,0,0,0,2.1448.81,2.5791,2.5791,0,0,0,2.12-.9057,3.6878,3.6878,0,0,0-.2865-4.7652,9.3268,9.3268,0,0,0-2.5723-1.6442q-1.55-.69-3.36-1.3822a14.5165,14.5165,0,0,1-3.36-1.8109,9.0313,9.0313,0,0,1-2.5733-2.9307,9.5187,9.5187,0,0,1-1.0245-4.718q0-8.91,8.7209-10.3412v-2.764h4.3838v2.7641q4.7655.4771,6.91,2.883t2.1443,7.3152h-8.2924v-.7147a4.9275,4.9275,0,0,0-.6184-2.502,2.0549,2.0549,0,0,0-1.9071-1.0721,2.4036,2.4036,0,0,0-2.0965.9292,3.3972,3.3972,0,0,0-.667,2.0252,3.3248,3.3248,0,0,0,1.0721,2.6212,9.771,9.771,0,0,0,2.6923,1.6439q1.62.6916,3.4784,1.3344a13.8779,13.8779,0,0,1,3.48,1.7873,9.2977,9.2977,0,0,1,2.6921,3.0021,9.8941,9.8941,0,0,1,1.0728,4.9562q0,4.8607-2.5267,7.196t-7.4343,2.8592v4.2891h-4.3837v-4.2891A12.0177,12.0177,0,0,1,866.7556,455.0966Z"/><path class="cls-13" d="M829.1853,470.8794a2.5973,2.5973,0,0,1,.8131-3.5964h0a2.6094,2.6094,0,0,1,3.6024.8071h0a2.6229,2.6229,0,0,1-.8131,3.6084h0a2.6283,2.6283,0,0,1-3.2452-.3632h0A2.1531,2.1531,0,0,1,829.1853,470.8794ZM845.8432,484.73a2.6113,2.6113,0,0,1,3.6029-.82h0a2.6071,2.6071,0,0,1,.8186,3.603h0a2.6109,2.6109,0,0,1-3.6024.8191h0a2.6008,2.6008,0,0,1-.4559-.3572h0A2.6283,2.6283,0,0,1,845.8432,484.73Zm-24.8423-37.1723.0063.0063h0a2.6056,2.6056,0,0,1,2.2969-2.8882h0a2.606,2.606,0,0,1,2.888,2.2973h0a2.6065,2.6065,0,0,1-2.2971,2.8884h0a2.6012,2.6012,0,0,1-2.149-.7455h0A2.6362,2.6362,0,0,1,821.0009,447.5576Zm46.6923,46.0273a2.5969,2.5969,0,0,1,2.8825-2.3028h0a2.616,2.616,0,0,1,2.3088,2.8885h0a2.6053,2.6053,0,0,1-2.8885,2.2969h0l-.006.006h0a2.5935,2.5935,0,0,1-1.551-.7512h0A2.5779,2.5779,0,0,1,867.6932,493.5849Zm-43.97-70.574a2.6159,2.6159,0,0,1,3.3251-1.6135h0a2.6089,2.6089,0,0,1,1.614,3.3254h0a2.6162,2.6162,0,0,1-3.3256,1.6133h0a2.6887,2.6887,0,0,1-.9919-.6215h0A2.6129,2.6129,0,0,1,823.7228,423.0109Zm67.4955,69.0965a2.62,2.62,0,0,1,1.6068-3.3319h0a2.6184,2.6184,0,0,1,3.3324,1.6076h0a2.6262,2.6262,0,0,1-1.6082,3.3318h0a2.6245,2.6245,0,0,1-2.7153-.6224h0A2.7519,2.7519,0,0,1,891.2183,492.1074ZM836.84,402.0725a2.6167,2.6167,0,0,1,3.7013-.0063h0a2.6133,2.6133,0,0,1,.0061,3.689h0a2.6147,2.6147,0,0,1-3.695.012h0A2.6147,2.6147,0,0,1,836.84,402.0725Zm74.9345,74.7866.0493-.0493h0a.4765.4765,0,0,1,.074-.0861h0a2.6268,2.6268,0,0,1,3.6954-.0123h0a2.6151,2.6151,0,0,1,.012,3.6951h0l-.074.074h0l-.0677.0676h0l.006.006h0a2.6147,2.6147,0,0,1-3.695,0h0A2.61,2.61,0,0,1,911.7744,476.8591ZM856.14,392.2069a2.606,2.606,0,0,1,1.5949-3.3318h0a2.6066,2.6066,0,0,1,3.3319,1.595h0a2.6063,2.6063,0,0,1-1.5949,3.3316h0a2.6178,2.6178,0,0,1-2.7223-.6155h0A2.6121,2.6121,0,0,1,856.14,392.2069Zm67.6062,65.5366h0a2.6167,2.6167,0,0,1,3.3257-1.6129h0a2.6083,2.6083,0,0,1,1.62,3.3191h0a2.6169,2.6169,0,0,1-3.326,1.6133h0a2.548,2.548,0,0,1-.9974-.6155h0A2.6293,2.6293,0,0,1,923.7465,457.7435Zm-44.34-69.3673a2.6035,2.6035,0,0,1,2.8759-2.3093h0a2.6152,2.6152,0,0,1,2.3157,2.8822h0a2.6153,2.6153,0,0,1-2.8823,2.3157h0a2.6444,2.6444,0,0,1-1.5642-.7517h0A2.6012,2.6012,0,0,1,879.4065,388.3762Zm46.7664,47.1116h0a2.6168,2.6168,0,0,1,2.3031-2.8948h0a2.6066,2.6066,0,0,1,2.8882,2.2971h0a2.6055,2.6055,0,0,1-2.2908,2.8944h0a2.6005,2.6005,0,0,1-2.1491-.7447h0A2.6086,2.6086,0,0,1,926.1729,435.4878ZM902.0323,394.99a2.6118,2.6118,0,0,1,3.5964-.8251h0a2.6033,2.6033,0,0,1,.8311,3.6024h0a2.6117,2.6117,0,0,1-3.5964.8251h0a2.797,2.797,0,0,1-.4677-.3692h0A2.61,2.61,0,0,1,902.0323,394.99Zm16.695,19.3923h0a2.6258,2.6258,0,0,1,.813-3.6086h0a2.622,2.622,0,0,1,3.6088.8129h0a2.6218,2.6218,0,0,1-.8126,3.6089h0a2.6216,2.6216,0,0,1-3.246-.3635h0A2.5637,2.5637,0,0,1,918.7273,414.3827Z"/><circle class="cls-11" cx="710.7327" cy="329.1724" r="38.3001" transform="translate(63.3105 770.0125) rotate(-59.1026)"/><circle class="cls-12" cx="710.7326" cy="329.1724" r="31.1755" transform="translate(77.4696 790.1205) rotate(-60.9016)"/><path class="cls-11" d="M701.2979,342.9924q-2.3358-2.073-2.3354-6.6v-1.2869h8.5781v.9055a4.1587,4.1587,0,0,0,.81,2.9545,2.8954,2.8954,0,0,0,2.1448.81,2.58,2.58,0,0,0,2.12-.9057,3.688,3.688,0,0,0-.2867-4.7653,9.3278,9.3278,0,0,0-2.5723-1.6443q-1.55-.69-3.36-1.382a14.52,14.52,0,0,1-3.36-1.8109,9.0339,9.0339,0,0,1-2.5733-2.9308,9.52,9.52,0,0,1-1.0246-4.718q0-8.91,8.7209-10.3411v-2.7642h4.3837l0,2.7642q4.7654.477,6.91,2.8831t2.1445,7.3151h-8.2924v-.7147a4.9274,4.9274,0,0,0-.6184-2.5019,2.0554,2.0554,0,0,0-1.9073-1.0723,2.4036,2.4036,0,0,0-2.0964.9293,3.3967,3.3967,0,0,0-.6671,2.0252,3.3253,3.3253,0,0,0,1.0723,2.6213,9.7719,9.7719,0,0,0,2.6923,1.6439q1.62.6915,3.4784,1.3344a13.8761,13.8761,0,0,1,3.48,1.7871,9.3018,9.3018,0,0,1,2.6921,3.0021,9.8947,9.8947,0,0,1,1.073,4.9563q0,4.8609-2.5268,7.1963t-7.4343,2.859l0,4.2891H708.16V345.542A12.0178,12.0178,0,0,1,701.2979,342.9924Z"/><path class="cls-13" d="M698.4262,383.3424a2.5972,2.5972,0,0,1-1.968-3.118h0a2.6093,2.6093,0,0,1,3.118-1.9764h0a2.6228,2.6228,0,0,1,1.9765,3.1264h0a2.6278,2.6278,0,0,1-2.5514,2.0377h0A2.1469,2.1469,0,0,1,698.4262,383.3424Zm21.5727-1.9851a2.6113,2.6113,0,0,1,1.9681-3.1272h0a2.607,2.607,0,0,1,3.1264,1.9689h0a2.6109,2.6109,0,0,1-1.968,3.1265h0a2.5978,2.5978,0,0,1-.575.07h0A2.6283,2.6283,0,0,1,719.9989,381.3573Zm-43.8509-8.7185h.009a2.6057,2.6057,0,0,1-.4181-3.6666h0a2.6061,2.6061,0,0,1,3.6666-.4175h0a2.6065,2.6065,0,0,1,.4181,3.6665h0a2.6014,2.6014,0,0,1-2.0468.9925h0A2.6367,2.6367,0,0,1,676.148,372.6388Zm65.5626-.47a2.5969,2.5969,0,0,1,.41-3.6666h0a2.6159,2.6159,0,0,1,3.675.41h0a2.6054,2.6054,0,0,1-.4185,3.6666h0v.0084h0a2.593,2.593,0,0,1-1.6278.5657h0A2.5776,2.5776,0,0,1,741.7106,372.1686Zm-80.995-18.8117a2.616,2.616,0,0,1,1.21-3.4922h0a2.6087,2.6087,0,0,1,3.4927,1.21h0a2.6157,2.6157,0,0,1-1.2108,3.4921h0a2.6853,2.6853,0,0,1-1.1408.2621h0A2.6127,2.6127,0,0,1,660.7156,353.3569Zm96.5849,1.1321a2.62,2.62,0,0,1-1.22-3.4922h0a2.6186,2.6186,0,0,1,3.4931-1.22h0a2.6263,2.6263,0,0,1,1.2187,3.4931h0a2.6242,2.6242,0,0,1-2.36,1.48h0A2.7528,2.7528,0,0,1,757.3005,354.489ZM655.1852,329.276a2.6166,2.6166,0,0,1,2.6128-2.6216h0a2.6132,2.6132,0,0,1,2.6127,2.6042h0a2.6147,2.6147,0,0,1-2.6042,2.6212h0A2.6147,2.6147,0,0,1,655.1852,329.276Zm105.8687-.1045v-.07h0a.471.471,0,0,1-.0085-.1131h0a2.6264,2.6264,0,0,1,2.6042-2.6217h0a2.6149,2.6149,0,0,1,2.6213,2.6042h0v.1047h0v.0957h.0084a2.6146,2.6146,0,0,1-2.6126,2.6128h0A2.61,2.61,0,0,1,761.0539,329.1715Zm-99.1973-20.5191a2.6057,2.6057,0,0,1-1.2281-3.4836h0a2.6064,2.6064,0,0,1,3.4837-1.2282h0a2.6066,2.6066,0,0,1,1.2281,3.4838h0a2.618,2.618,0,0,1-2.36,1.49h0A2.6109,2.6109,0,0,1,661.8566,308.6524Zm94.1461-1.4632h0a2.6169,2.6169,0,0,1,1.2111-3.4923h0a2.6088,2.6088,0,0,1,3.4923,1.2019h0a2.6172,2.6172,0,0,1-1.2112,3.4927h0a2.5484,2.5484,0,0,1-1.14.27h0A2.6291,2.6291,0,0,1,756.0027,307.1892ZM675.6,289.4922A2.6036,2.6036,0,0,1,676,285.8257h0a2.6152,2.6152,0,0,1,3.6754.4006h0a2.6151,2.6151,0,0,1-.4005,3.6754h0a2.645,2.645,0,0,1-1.6378.5747h0A2.6011,2.6011,0,0,1,675.6,289.4922Zm66.3817.2442h0a2.6169,2.6169,0,0,1-.4185-3.6756h0a2.6064,2.6064,0,0,1,3.6665-.4179h0a2.6053,2.6053,0,0,1,.427,3.6664h0a2.6,2.6,0,0,1-2.0464.993h0A2.609,2.609,0,0,1,741.9813,289.7364ZM696.2754,278.17a2.6117,2.6117,0,0,1,1.96-3.1265h0a2.6033,2.6033,0,0,1,3.135,1.96h0a2.6117,2.6117,0,0,1-1.96,3.1264h0a2.7958,2.7958,0,0,1-.5918.07h0A2.61,2.61,0,0,1,696.2754,278.17Zm25.5174,1.9072h0a2.6255,2.6255,0,0,1-1.9766-3.1264h0a2.6217,2.6217,0,0,1,3.1265-1.977h0a2.6219,2.6219,0,0,1,1.9774,3.1264h0a2.622,2.622,0,0,1-2.5524,2.0383h0A2.5661,2.5661,0,0,1,721.7928,280.0775Z"/><circle class="cls-11" cx="653.8369" cy="600.1243" r="18.5953"/><circle class="cls-11" cx="776.0144" cy="469.2242" r="18.5953"/><circle class="cls-11" cx="756.6786" cy="713.1559" r="18.5953" transform="translate(-214.0464 340.5345) rotate(-22.3042)"/><circle class="cls-11" cx="841.0189" cy="755.1413" r="18.5953"/><circle class="cls-11" cx="643.965" cy="407.8738" r="18.5954" transform="translate(131.0779 971.7875) rotate(-80.0624)"/><circle class="cls-11" cx="543.1041" cy="620.5276" r="18.5953"/><path class="cls-13" d="M946.0318,585.7942a2.0479,2.0479,0,0,1-2.0474-2.0475V547.8545a2.0475,2.0475,0,0,1,4.0949,0v35.8922A2.048,2.048,0,0,1,946.0318,585.7942Z"/><path class="cls-13" d="M957.9526,567.8485h-23.84a2.0475,2.0475,0,0,1,0-4.0949h23.84a2.0475,2.0475,0,0,1,0,4.0949Z"/><path class="cls-13" d="M605.7047,781.3648a2.0479,2.0479,0,0,1-2.0474-2.0475V743.4232a2.0474,2.0474,0,0,1,4.0948,0v35.8941A2.0478,2.0478,0,0,1,605.7047,781.3648Z"/><path class="cls-13" d="M617.6255,763.4177h-23.84a2.0475,2.0475,0,0,1,0-4.0949h23.84a2.0475,2.0475,0,0,1,0,4.0949Z"/><path class="cls-13" d="M526.5784,378.9767a2.0472,2.0472,0,0,1-2.0475-2.0474V341.0364a2.0475,2.0475,0,0,1,4.0949,0v35.8929A2.0475,2.0475,0,0,1,526.5784,378.9767Z"/><path class="cls-13" d="M538.4991,361.0309H514.6583a2.0475,2.0475,0,0,1,0-4.0949h23.8408a2.0475,2.0475,0,0,1,0,4.0949Z"/><path class="cls-13" d="M867.1506,289.963a2.0475,2.0475,0,0,1-2.0474-2.0475V252.0227a2.0474,2.0474,0,1,1,4.0948,0v35.8928A2.0474,2.0474,0,0,1,867.1506,289.963Z"/><path class="cls-13" d="M879.07,272.0172H855.23a2.0475,2.0475,0,1,1,0-4.0949h23.84a2.0475,2.0475,0,1,1,0,4.0949Z"/></g></g></svg>