<svg xmlns="http://www.w3.org/2000/svg" xmlns:xlink="http://www.w3.org/1999/xlink" width="2880" height="1620" viewBox="0 0 2880 1620"><defs><style>.cls-1,.cls-10,.cls-100,.cls-101,.cls-102,.cls-103,.cls-104,.cls-105,.cls-106,.cls-107,.cls-108,.cls-109,.cls-11,.cls-110,.cls-111,.cls-112,.cls-113,.cls-114,.cls-115,.cls-116,.cls-117,.cls-118,.cls-119,.cls-12,.cls-120,.cls-121,.cls-122,.cls-123,.cls-124,.cls-125,.cls-126,.cls-127,.cls-128,.cls-129,.cls-13,.cls-130,.cls-131,.cls-132,.cls-133,.cls-134,.cls-135,.cls-136,.cls-137,.cls-138,.cls-139,.cls-14,.cls-140,.cls-141,.cls-142,.cls-143,.cls-144,.cls-145,.cls-146,.cls-147,.cls-148,.cls-149,.cls-15,.cls-150,.cls-151,.cls-152,.cls-153,.cls-154,.cls-155,.cls-156,.cls-157,.cls-158,.cls-159,.cls-16,.cls-160,.cls-161,.cls-162,.cls-163,.cls-164,.cls-165,.cls-166,.cls-167,.cls-168,.cls-169,.cls-17,.cls-170,.cls-171,.cls-172,.cls-173,.cls-174,.cls-175,.cls-176,.cls-177,.cls-178,.cls-179,.cls-18,.cls-180,.cls-181,.cls-182,.cls-183,.cls-184,.cls-185,.cls-186,.cls-187,.cls-188,.cls-189,.cls-19,.cls-190,.cls-191,.cls-192,.cls-193,.cls-194,.cls-195,.cls-196,.cls-197,.cls-198,.cls-199,.cls-20,.cls-200,.cls-201,.cls-202,.cls-203,.cls-204,.cls-205,.cls-206,.cls-207,.cls-208,.cls-209,.cls-21,.cls-210,.cls-211,.cls-212,.cls-213,.cls-214,.cls-215,.cls-216,.cls-217,.cls-218,.cls-219,.cls-22,.cls-220,.cls-221,.cls-222,.cls-223,.cls-224,.cls-225,.cls-226,.cls-227,.cls-228,.cls-229,.cls-23,.cls-230,.cls-231,.cls-232,.cls-233,.cls-234,.cls-235,.cls-236,.cls-237,.cls-238,.cls-239,.cls-24,.cls-240,.cls-241,.cls-242,.cls-243,.cls-244,.cls-245,.cls-246,.cls-247,.cls-248,.cls-249,.cls-25,.cls-250,.cls-251,.cls-252,.cls-253,.cls-254,.cls-255,.cls-256,.cls-257,.cls-258,.cls-259,.cls-26,.cls-260,.cls-261,.cls-262,.cls-263,.cls-264,.cls-265,.cls-266,.cls-267,.cls-268,.cls-269,.cls-27,.cls-270,.cls-271,.cls-272,.cls-273,.cls-274,.cls-275,.cls-276,.cls-277,.cls-278,.cls-279,.cls-28,.cls-280,.cls-281,.cls-282,.cls-283,.cls-284,.cls-285,.cls-286,.cls-287,.cls-288,.cls-289,.cls-29,.cls-290,.cls-291,.cls-292,.cls-293,.cls-294,.cls-295,.cls-296,.cls-297,.cls-298,.cls-299,.cls-30,.cls-300,.cls-301,.cls-31,.cls-32,.cls-33,.cls-34,.cls-35,.cls-36,.cls-37,.cls-38,.cls-39,.cls-40,.cls-41,.cls-42,.cls-43,.cls-44,.cls-45,.cls-46,.cls-47,.cls-48,.cls-49,.cls-50,.cls-51,.cls-52,.cls-53,.cls-54,.cls-55,.cls-56,.cls-57,.cls-58,.cls-59,.cls-6,.cls-60,.cls-61,.cls-62,.cls-63,.cls-64,.cls-65,.cls-66,.cls-67,.cls-68,.cls-69,.cls-7,.cls-70,.cls-71,.cls-72,.cls-73,.cls-74,.cls-75,.cls-76,.cls-77,.cls-78,.cls-79,.cls-8,.cls-80,.cls-81,.cls-82,.cls-83,.cls-84,.cls-85,.cls-86,.cls-87,.cls-88,.cls-89,.cls-9,.cls-90,.cls-91,.cls-92,.cls-93,.cls-94,.cls-95,.cls-96,.cls-97,.cls-98,.cls-99{fill:none;}.cls-2{fill:url(#linear-gradient);}.cls-3{opacity:0.05;}.cls-4{clip-path:url(#clip-path);}.cls-5{fill:#4c4c4c;}.cls-10,.cls-100,.cls-101,.cls-102,.cls-103,.cls-104,.cls-105,.cls-106,.cls-107,.cls-108,.cls-109,.cls-11,.cls-110,.cls-111,.cls-112,.cls-113,.cls-114,.cls-115,.cls-116,.cls-117,.cls-118,.cls-119,.cls-12,.cls-120,.cls-121,.cls-122,.cls-123,.cls-124,.cls-125,.cls-126,.cls-127,.cls-128,.cls-129,.cls-13,.cls-130,.cls-131,.cls-132,.cls-133,.cls-134,.cls-135,.cls-136,.cls-137,.cls-138,.cls-139,.cls-14,.cls-140,.cls-141,.cls-142,.cls-143,.cls-144,.cls-145,.cls-146,.cls-147,.cls-148,.cls-149,.cls-15,.cls-150,.cls-151,.cls-152,.cls-153,.cls-154,.cls-155,.cls-156,.cls-157,.cls-158,.cls-159,.cls-16,.cls-160,.cls-161,.cls-162,.cls-163,.cls-164,.cls-165,.cls-166,.cls-167,.cls-168,.cls-169,.cls-17,.cls-170,.cls-171,.cls-172,.cls-173,.cls-174,.cls-175,.cls-176,.cls-177,.cls-178,.cls-179,.cls-18,.cls-180,.cls-181,.cls-182,.cls-183,.cls-184,.cls-185,.cls-186,.cls-187,.cls-188,.cls-189,.cls-19,.cls-190,.cls-191,.cls-192,.cls-193,.cls-194,.cls-195,.cls-196,.cls-197,.cls-198,.cls-199,.cls-20,.cls-200,.cls-201,.cls-202,.cls-203,.cls-204,.cls-205,.cls-206,.cls-207,.cls-208,.cls-209,.cls-21,.cls-210,.cls-211,.cls-212,.cls-213,.cls-214,.cls-215,.cls-216,.cls-217,.cls-218,.cls-219,.cls-22,.cls-220,.cls-221,.cls-222,.cls-223,.cls-224,.cls-225,.cls-226,.cls-227,.cls-228,.cls-229,.cls-23,.cls-230,.cls-231,.cls-232,.cls-233,.cls-234,.cls-235,.cls-236,.cls-237,.cls-238,.cls-239,.cls-24,.cls-240,.cls-241,.cls-242,.cls-243,.cls-244,.cls-245,.cls-246,.cls-247,.cls-248,.cls-249,.cls-25,.cls-250,.cls-251,.cls-252,.cls-253,.cls-254,.cls-255,.cls-256,.cls-257,.cls-258,.cls-259,.cls-26,.cls-260,.cls-261,.cls-262,.cls-263,.cls-264,.cls-265,.cls-266,.cls-267,.cls-268,.cls-269,.cls-27,.cls-270,.cls-271,.cls-272,.cls-273,.cls-274,.cls-275,.cls-276,.cls-277,.cls-278,.cls-279,.cls-28,.cls-280,.cls-281,.cls-282,.cls-283,.cls-284,.cls-285,.cls-286,.cls-287,.cls-288,.cls-289,.cls-29,.cls-290,.cls-291,.cls-292,.cls-293,.cls-294,.cls-295,.cls-296,.cls-297,.cls-298,.cls-299,.cls-30,.cls-300,.cls-301,.cls-31,.cls-32,.cls-33,.cls-34,.cls-35,.cls-36,.cls-37,.cls-38,.cls-39,.cls-40,.cls-41,.cls-42,.cls-43,.cls-44,.cls-45,.cls-46,.cls-47,.cls-48,.cls-49,.cls-50,.cls-51,.cls-52,.cls-53,.cls-54,.cls-55,.cls-56,.cls-57,.cls-58,.cls-59,.cls-6,.cls-60,.cls-61,.cls-62,.cls-63,.cls-64,.cls-65,.cls-66,.cls-67,.cls-68,.cls-69,.cls-7,.cls-70,.cls-71,.cls-72,.cls-73,.cls-74,.cls-75,.cls-76,.cls-77,.cls-78,.cls-79,.cls-8,.cls-80,.cls-81,.cls-82,.cls-83,.cls-84,.cls-85,.cls-86,.cls-87,.cls-88,.cls-89,.cls-9,.cls-90,.cls-91,.cls-92,.cls-93,.cls-94,.cls-95,.cls-96,.cls-97,.cls-98,.cls-99{stroke:#000;stroke-linecap:round;}.cls-6{stroke-opacity:0.3118;stroke-width:3.0991px;}.cls-7{stroke-opacity:0.3901;}.cls-10,.cls-100,.cls-101,.cls-102,.cls-104,.cls-106,.cls-108,.cls-109,.cls-110,.cls-112,.cls-114,.cls-115,.cls-116,.cls-117,.cls-118,.cls-12,.cls-125,.cls-126,.cls-127,.cls-128,.cls-13,.cls-130,.cls-131,.cls-132,.cls-133,.cls-136,.cls-137,.cls-139,.cls-140,.cls-142,.cls-143,.cls-144,.cls-145,.cls-148,.cls-149,.cls-15,.cls-151,.cls-155,.cls-160,.cls-162,.cls-163,.cls-164,.cls-165,.cls-166,.cls-167,.cls-168,.cls-17,.cls-172,.cls-173,.cls-174,.cls-175,.cls-177,.cls-182,.cls-183,.cls-184,.cls-185,.cls-190,.cls-191,.cls-193,.cls-194,.cls-196,.cls-197,.cls-198,.cls-200,.cls-201,.cls-202,.cls-203,.cls-205,.cls-207,.cls-209,.cls-21,.cls-210,.cls-211,.cls-212,.cls-213,.cls-214,.cls-217,.cls-218,.cls-221,.cls-222,.cls-225,.cls-229,.cls-23,.cls-231,.cls-232,.cls-234,.cls-235,.cls-236,.cls-238,.cls-241,.cls-245,.cls-248,.cls-249,.cls-25,.cls-250,.cls-251,.cls-252,.cls-253,.cls-257,.cls-259,.cls-261,.cls-263,.cls-264,.cls-267,.cls-268,.cls-273,.cls-276,.cls-277,.cls-278,.cls-281,.cls-282,.cls-283,.cls-286,.cls-289,.cls-295,.cls-296,.cls-299,.cls-30,.cls-300,.cls-31,.cls-32,.cls-35,.cls-36,.cls-37,.cls-40,.cls-42,.cls-44,.cls-45,.cls-46,.cls-48,.cls-50,.cls-51,.cls-52,.cls-53,.cls-56,.cls-59,.cls-63,.cls-64,.cls-65,.cls-67,.cls-68,.cls-69,.cls-7,.cls-70,.cls-76,.cls-77,.cls-78,.cls-79,.cls-80,.cls-81,.cls-85,.cls-87,.cls-9,.cls-90,.cls-92,.cls-93,.cls-94,.cls-97,.cls-98,.cls-99{stroke-width:3.5834px;}.cls-8{stroke-opacity:0.3148;stroke-width:3.1181px;}.cls-9{stroke-opacity:0.4593;}.cls-10{stroke-opacity:0.4463;}.cls-11{stroke-opacity:0.1993;stroke-width:1.2518px;}.cls-12{stroke-opacity:0.5803;}.cls-13{stroke-opacity:0.6083;}.cls-14{stroke-opacity:0.263;stroke-width:2.7405px;}.cls-15{stroke-opacity:0.4153;}.cls-16{stroke-opacity:0.3765;stroke-width:3.5541px;}.cls-17{stroke-opacity:0.6463;}.cls-18{stroke-opacity:0.1114;stroke-width:0.8292px;}.cls-19{stroke-opacity:0.2285;stroke-width:2.2234px;}.cls-20{stroke-opacity:0.2207;stroke-width:1.9022px;}.cls-21{stroke-opacity:0.4201;}.cls-22{stroke-opacity:0.3243;stroke-width:3.1781px;}.cls-23{stroke-opacity:0.5294;}.cls-24{stroke-opacity:0.2216;stroke-width:1.9707px;}.cls-25{stroke-opacity:0.3944;}.cls-26{stroke-opacity:0.3049;}.cls-26,.cls-274{stroke-width:3.0551px;}.cls-27{stroke-opacity:0.2228;stroke-width:2.0377px;}.cls-28{stroke-opacity:0.2009;stroke-width:1.2574px;}.cls-29{stroke-opacity:0.2279;stroke-width:2.2084px;}.cls-30{stroke-opacity:0.621;}.cls-31{stroke-opacity:0.5386;}.cls-32{stroke-opacity:0.5057;}.cls-33{stroke-opacity:0.3504;stroke-width:3.3506px;}.cls-107,.cls-34,.cls-38{stroke-opacity:0.24;}.cls-34{stroke-width:1.7199px;}.cls-35{stroke-opacity:0.5663;}.cls-36{stroke-opacity:0.6215;}.cls-37{stroke-opacity:0.4949;}.cls-38{stroke-width:1.7406px;}.cls-39{stroke-opacity:0.3091;stroke-width:3.0824px;}.cls-40{stroke-opacity:0.644;}.cls-41{stroke-opacity:0.1972;stroke-width:1.2441px;}.cls-42{stroke-opacity:0.4665;}.cls-43,.cls-47{stroke-opacity:0;}.cls-43{stroke-width:0.082px;}.cls-44{stroke-opacity:0.5717;}.cls-45{stroke-opacity:0.7916;}.cls-46{stroke-opacity:0.4855;}.cls-47{stroke-width:0.0515px;}.cls-48{stroke-opacity:0.4347;}.cls-49{stroke-opacity:0.2588;stroke-width:2.6981px;}.cls-50{stroke-opacity:0.6858;}.cls-51{stroke-opacity:0.7071;}.cls-52{stroke-opacity:0.8758;}.cls-53{stroke-opacity:0.4642;}.cls-54{stroke-opacity:0.1547;stroke-width:1.056px;}.cls-55{stroke-opacity:0.3111;stroke-width:3.0947px;}.cls-56{stroke-opacity:0.8328;}.cls-57{stroke-opacity:0.3559;stroke-width:3.3908px;}.cls-58{stroke-opacity:0.3747;stroke-width:3.5386px;}.cls-59{stroke-opacity:0.4721;}.cls-60{stroke-opacity:0.3723;stroke-width:3.5187px;}.cls-61{stroke-opacity:0.3704;stroke-width:3.5029px;}.cls-62{stroke-opacity:0.2486;stroke-width:2.5787px;}.cls-63{stroke-opacity:0.4523;}.cls-64{stroke-opacity:0.4137;}.cls-65{stroke-opacity:0.4726;}.cls-66{stroke-opacity:0.3027;stroke-width:3.0409px;}.cls-67{stroke-opacity:0.4816;}.cls-68{stroke-opacity:0.4285;}.cls-69{stroke-opacity:0.4573;}.cls-70{stroke-opacity:0.5706;}.cls-71{stroke-opacity:0.3452;stroke-width:3.3147px;}.cls-72{stroke-opacity:0.1818;stroke-width:1.1889px;}.cls-73{stroke-opacity:0.2308;stroke-width:2.2774px;}.cls-74{stroke-opacity:0.3101;stroke-width:3.0883px;}.cls-75{stroke-opacity:0.3471;stroke-width:3.3278px;}.cls-76{stroke-opacity:0.4509;}.cls-77{stroke-opacity:0.6721;}.cls-78{stroke-opacity:0.4304;}.cls-79{stroke-opacity:0.4646;}.cls-80{stroke-opacity:0.5043;}.cls-81{stroke-opacity:0.4039;}.cls-82{stroke-opacity:0.3365;stroke-width:3.2566px;}.cls-83{stroke-opacity:0.3323;stroke-width:3.2293px;}.cls-84{stroke-opacity:0.2609;stroke-width:2.72px;}.cls-85{stroke-opacity:0.4968;}.cls-86{stroke-opacity:0.2248;stroke-width:2.1174px;}.cls-87{stroke-opacity:0.4083;}.cls-88,.cls-89{stroke-opacity:0.14;}.cls-88{stroke-width:0.9994px;}.cls-89{stroke-width:0.97px;}.cls-90{stroke-opacity:0.6024;}.cls-91{stroke-opacity:0.2131;stroke-width:1.3011px;}.cls-92{stroke-opacity:0.5432;}.cls-93{stroke-opacity:0.5099;}.cls-94{stroke-opacity:0.3832;}.cls-95{stroke-opacity:0.2816;stroke-width:2.8965px;}.cls-96{stroke-opacity:0.2784;stroke-width:2.8717px;}.cls-97{stroke-opacity:0.4583;}.cls-98{stroke-opacity:0.3985;}.cls-99{stroke-opacity:0.5496;}.cls-100{stroke-opacity:0.5142;}.cls-101{stroke-opacity:0.5166;}.cls-102{stroke-opacity:0.556;}.cls-103{stroke-opacity:0.3647;stroke-width:3.4569px;}.cls-104{stroke-opacity:0.4559;}.cls-105{stroke-opacity:0.3492;stroke-width:3.3423px;}.cls-106{stroke-opacity:0.4417;}.cls-107{stroke-width:1.7132px;}.cls-108{stroke-opacity:0.5131;}.cls-109{stroke-opacity:0.4732;}.cls-110{stroke-opacity:0.8444;}.cls-111{stroke-opacity:0.3712;stroke-width:3.5095px;}.cls-112{stroke-opacity:0.6202;}.cls-113{stroke-opacity:0.2987;stroke-width:3.0149px;}.cls-114{stroke-opacity:0.3814;}.cls-115{stroke-opacity:0.4316;}.cls-116{stroke-opacity:0.491;}.cls-117{stroke-opacity:0.6495;}.cls-118{stroke-opacity:0.4003;}.cls-119{stroke-opacity:0.339;stroke-width:3.2734px;}.cls-120{stroke-opacity:0.2266;stroke-width:1.7793px;}.cls-121{stroke-opacity:0.3535;stroke-width:3.3727px;}.cls-122{stroke-opacity:0.3795;stroke-width:3.5805px;}.cls-123{stroke-opacity:0.3576;stroke-width:3.4028px;}.cls-124{stroke-opacity:0.2494;stroke-width:2.5882px;}.cls-125{stroke-opacity:0.5148;}.cls-126{stroke-opacity:0.4422;}.cls-127{stroke-opacity:0.4605;}.cls-128{stroke-opacity:0.4869;}.cls-129{stroke-opacity:0.2693;stroke-width:2.7981px;}.cls-130{stroke-opacity:0.4779;}.cls-131{stroke-opacity:0.3836;}.cls-132{stroke-opacity:0.4415;}.cls-133{stroke-opacity:0.8277;}.cls-134{stroke-opacity:0.331;stroke-width:3.2212px;}.cls-135{stroke-opacity:0.2366;stroke-width:1.7618px;}.cls-136{stroke-opacity:0.4068;}.cls-137{stroke-opacity:0.8059;}.cls-138{stroke-opacity:0.3029;stroke-width:3.0424px;}.cls-139{stroke-opacity:0.5069;}.cls-140{stroke-opacity:0.5638;}.cls-141{stroke-opacity:0.2256;stroke-width:2.1422px;}.cls-142{stroke-opacity:0.7008;}.cls-143{stroke-opacity:0.3916;}.cls-144{stroke-opacity:0.5756;}.cls-145{stroke-opacity:0.5763;}.cls-146{stroke-opacity:0.3291;stroke-width:3.2085px;}.cls-147{stroke-opacity:0.2839;stroke-width:2.9129px;}.cls-148{stroke-opacity:0.5174;}.cls-149{stroke-opacity:0.4145;}.cls-150{stroke-opacity:0.2436;stroke-width:2.5076px;}.cls-151{stroke-opacity:0.5373;}.cls-152{stroke-opacity:0.2995;stroke-width:3.0201px;}.cls-153{stroke-opacity:0.3253;stroke-width:3.1846px;}.cls-154{stroke-opacity:0.2573;stroke-width:2.6818px;}.cls-155{stroke-opacity:0.3929;}.cls-156{stroke-opacity:0.0607;stroke-width:0.506px;}.cls-157{stroke-opacity:0.3452;stroke-width:3.3152px;}.cls-158{stroke-opacity:0.3298;stroke-width:3.2134px;}.cls-159{stroke-opacity:0.2376;stroke-width:2.4101px;}.cls-160{stroke-opacity:0.4476;}.cls-161{stroke-opacity:0.3079;stroke-width:3.0742px;}.cls-162{stroke-opacity:0.4414;}.cls-163{stroke-opacity:0.4135;}.cls-164{stroke-opacity:0.4692;}.cls-165{stroke-opacity:0.4997;}.cls-166{stroke-opacity:0.4273;}.cls-167{stroke-opacity:0.4946;}.cls-168{stroke-opacity:0.5482;}.cls-169{stroke-opacity:0.3797;stroke-width:3.5824px;}.cls-170{stroke-opacity:0.3348;stroke-width:3.2455px;}.cls-171{stroke-opacity:0.2259;stroke-width:2.1526px;}.cls-172{stroke-opacity:0.5197;}.cls-173{stroke-opacity:0.429;}.cls-174{stroke-opacity:0.6094;}.cls-175{stroke-opacity:0.3815;}.cls-176{stroke-opacity:0.3603;stroke-width:3.4235px;}.cls-177{stroke-opacity:0.6367;}.cls-178{stroke-opacity:0.3638;stroke-width:3.4502px;}.cls-179{stroke-opacity:0.3244;stroke-width:3.179px;}.cls-180{stroke-opacity:0.018;stroke-width:0.272px;}.cls-181{stroke-opacity:0.3017;stroke-width:3.0345px;}.cls-182{stroke-opacity:0.6498;}.cls-183{stroke-opacity:0.55;}.cls-184{stroke-opacity:0.7241;}.cls-185{stroke-opacity:0.4954;}.cls-186{stroke-opacity:0.3208;stroke-width:3.1561px;}.cls-187{stroke-opacity:0.1356;stroke-width:0.9158px;}.cls-188{stroke-opacity:0.32;stroke-width:3.1509px;}.cls-189{stroke-opacity:0.3456;stroke-width:3.3172px;}.cls-190{stroke-opacity:0.4126;}.cls-191{stroke-opacity:0.6532;}.cls-192{stroke-opacity:0.3714;stroke-width:3.5111px;}.cls-193{stroke-opacity:0.4886;}.cls-194{stroke-opacity:0.6521;}.cls-195{stroke-opacity:0.3756;stroke-width:3.5469px;}.cls-196{stroke-opacity:0.6199;}.cls-197{stroke-opacity:0.5052;}.cls-198{stroke-opacity:0.419;}.cls-199{stroke-opacity:0.2533;stroke-width:2.637px;}.cls-200{stroke-opacity:0.541;}.cls-201{stroke-opacity:0.3929;}.cls-202{stroke-opacity:0.4945;}.cls-203{stroke-opacity:0.486;}.cls-204{stroke-opacity:0.3;stroke-width:3.0232px;}.cls-205{stroke-opacity:0.5174;}.cls-206{stroke-opacity:0.2534;stroke-width:2.6377px;}.cls-207{stroke-opacity:0.6398;}.cls-208{stroke-opacity:0.2202;stroke-width:1.8561px;}.cls-209{stroke-opacity:0.3888;}.cls-210{stroke-opacity:0.3815;}.cls-211{stroke-opacity:0.647;}.cls-212{stroke-opacity:0.4906;}.cls-213{stroke-opacity:0.6161;}.cls-214{stroke-opacity:0.5501;}.cls-215{stroke-opacity:0.3672;stroke-width:3.4766px;}.cls-216,.cls-275{stroke-opacity:0.22;}.cls-216{stroke-width:1.4031px;}.cls-217{stroke-opacity:0.5679;}.cls-218{stroke-opacity:0.8953;}.cls-219{stroke-opacity:0.2845;stroke-width:2.9177px;}.cls-220{stroke-opacity:0.2212;stroke-width:1.9395px;}.cls-221{stroke-opacity:0.4776;}.cls-222{stroke-opacity:0.6043;}.cls-223{stroke-opacity:0.2991;stroke-width:3.0174px;}.cls-224{stroke-opacity:0.3115;stroke-width:3.0973px;}.cls-225{stroke-opacity:0.4947;}.cls-226{stroke-opacity:0.3597;stroke-width:3.4187px;}.cls-227{stroke-opacity:0.2227;stroke-width:2.0326px;}.cls-228{stroke-opacity:0.2681;stroke-width:2.7879px;}.cls-229{stroke-opacity:0.4872;}.cls-230{stroke-opacity:0.2383;stroke-width:2.4216px;}.cls-231{stroke-opacity:0.5636;}.cls-232{stroke-opacity:0.4618;}.cls-233{stroke-opacity:0.3087;stroke-width:3.0798px;}.cls-234{stroke-opacity:0.3937;}.cls-235{stroke-opacity:0.4343;}.cls-236{stroke-opacity:0.5207;}.cls-237{stroke-opacity:0.2261;stroke-width:2.1584px;}.cls-238{stroke-opacity:0.4711;}.cls-239{stroke-opacity:0.2848;stroke-width:2.9195px;}.cls-240{stroke-opacity:0.2381;stroke-width:2.4196px;}.cls-241{stroke-opacity:0.4272;}.cls-242{stroke-opacity:0.3427;stroke-width:3.2977px;}.cls-243{stroke-opacity:0.3763;stroke-width:3.5529px;}.cls-244{stroke-opacity:0.2789;stroke-width:2.8761px;}.cls-245{stroke-opacity:0.4161;}.cls-246{stroke-opacity:0.2705;stroke-width:2.8085px;}.cls-247{stroke-opacity:0.2237;stroke-width:2.0776px;}.cls-248{stroke-opacity:0.4179;}.cls-249{stroke-opacity:0.5934;}.cls-250{stroke-opacity:0.5081;}.cls-251{stroke-opacity:0.5615;}.cls-252{stroke-opacity:0.4699;}.cls-253{stroke-opacity:0.4578;}.cls-254{stroke-opacity:0.2226;stroke-width:2.0272px;}.cls-255{stroke-opacity:0.3234;stroke-width:3.1726px;}.cls-256{stroke-opacity:0.2599;stroke-width:2.7094px;}.cls-257{stroke-opacity:0.512;}.cls-258{stroke-opacity:0.2786;stroke-width:2.8739px;}.cls-259{stroke-opacity:0.526;}.cls-260{stroke-opacity:0.3497;stroke-width:3.3462px;}.cls-261{stroke-opacity:0.514;}.cls-262{stroke-opacity:0.3374;stroke-width:3.2625px;}.cls-263{stroke-opacity:0.5585;}.cls-264{stroke-opacity:0.6793;}.cls-265{stroke-opacity:0.3771;stroke-width:3.56px;}.cls-266{stroke-opacity:0.2683;stroke-width:2.7894px;}.cls-267{stroke-opacity:0.4095;}.cls-268{stroke-opacity:0.5963;}.cls-269{stroke-opacity:0.3555;stroke-width:3.3875px;}.cls-270{stroke-opacity:0.3443;stroke-width:3.3084px;}.cls-271{stroke-opacity:0.1916;stroke-width:1.2241px;}.cls-272{stroke-opacity:0.2253;stroke-width:2.1348px;}.cls-273{stroke-opacity:0.5238;}.cls-274{stroke-opacity:0.3049;}.cls-275{stroke-width:1.3782px;}.cls-276{stroke-opacity:0.6127;}.cls-277{stroke-opacity:0.5012;}.cls-278{stroke-opacity:0.4193;}.cls-279{stroke-opacity:0.2293;stroke-width:1.4832px;}.cls-280{stroke-opacity:0.221;stroke-width:1.9222px;}.cls-281{stroke-opacity:0.4719;}.cls-282{stroke-opacity:0.3812;}.cls-283{stroke-opacity:0.7835;}.cls-284{stroke-opacity:0.3743;stroke-width:3.5353px;}.cls-285{stroke-opacity:0.3525;stroke-width:3.366px;}.cls-286{stroke-opacity:0.3815;}.cls-287{stroke-opacity:0.2212;stroke-width:1.9427px;}.cls-288{stroke-opacity:0.2576;stroke-width:2.6853px;}.cls-289{stroke-opacity:0.3868;}.cls-290{stroke-opacity:0.2259;stroke-width:2.1525px;}.cls-291{stroke-opacity:0.3731;stroke-width:3.5252px;}.cls-292{stroke-opacity:0.2213;stroke-width:1.9459px;}.cls-293{stroke-opacity:0.2668;stroke-width:2.7761px;}.cls-294{stroke-opacity:0.3268;stroke-width:3.1941px;}.cls-295{stroke-opacity:0.4256;}.cls-296{stroke-opacity:0.6229;}.cls-297{stroke-opacity:0.2333;stroke-width:1.5047px;}.cls-298{stroke-opacity:0.1067;stroke-width:0.8123px;}.cls-299{stroke-opacity:0.483;}.cls-300{stroke-opacity:0.4066;}.cls-301{stroke-opacity:0.2292;stroke-width:1.4826px;}.cls-302{fill:#636363;fill-opacity:0.5;}</style><linearGradient id="linear-gradient" x1="87.9444" y1="62.1374" x2="2835.9446" y2="1582.1389" gradientUnits="userSpaceOnUse"><stop offset="0" stop-color="#fff"/><stop offset="1" stop-color="#dededc"/></linearGradient><clipPath id="clip-path"><rect class="cls-1" width="2880" height="1620"/></clipPath></defs><g id="Background"><rect class="cls-2" width="2880" height="1620"/></g><g id="Underlay" class="cls-3"><g class="cls-4"><circle class="cls-5" cx="1941.1014" cy="837.7044" r="22.8575" transform="translate(-53.9627 1537.2345) rotate(-42.6654)"/><path class="cls-5" d="M1331.46,1550.3712a11.9778,11.9778,0,1,1-5.2089,16.1183A11.9778,11.9778,0,0,1,1331.46,1550.3712Z"/><path class="cls-5" d="M967.0817,1591.9393a12.9872,12.9872,0,1,1-5.6479,17.4766A12.9871,12.9871,0,0,1,967.0817,1591.9393Z"/><path class="cls-5" d="M2352.0422,1494.9279a14.6713,14.6713,0,1,1-6.38,19.743A14.6714,14.6714,0,0,1,2352.0422,1494.9279Z"/><circle class="cls-5" cx="1535.4456" cy="1607.2845" r="15.8267" transform="translate(-466.1269 2574.0648) rotate(-72.0905)"/><circle class="cls-5" cx="1439.9295" cy="1546.4135" r="16.5751" transform="translate(-196.8243 2882.7624) rotate(-86.2725)"/><circle class="cls-5" cx="885.4342" cy="1525.219" r="15.7564" transform="translate(-364.3932 280.9449) rotate(-14.9912)"/><path class="cls-5" d="M1948.3147,835.7142a18.55,18.55,0,1,1-8.0674,24.9629A18.55,18.55,0,0,1,1948.3147,835.7142Z"/><circle class="cls-5" cx="2093.8021" cy="1461.6565" r="14.0494" transform="translate(590.4271 3525.7085) rotate(-88.8503)"/><circle class="cls-5" cx="2169.0554" cy="1527.3018" r="18.326"/><circle class="cls-5" cx="2853.9107" cy="849.2168" r="17.0373" transform="translate(-123.5357 877.2963) rotate(-17.1114)"/><path class="cls-5" d="M2005.3892,1409.8722a13.72,13.72,0,1,1-5.9666,18.4626A13.72,13.72,0,0,1,2005.3892,1409.8722Z"/><circle class="cls-5" cx="921.7917" cy="1167.2393" r="15.259" transform="translate(-472.3507 1685.423) rotate(-72.0906)"/><circle class="cls-5" cx="2405.7089" cy="1046.6738" r="19.3791" transform="translate(-35.4943 2007.6567) rotate(-45)"/><path class="cls-5" d="M784.2994,1440.0656a14.4267,14.4267,0,1,1-6.274,19.4138A14.4267,14.4267,0,0,1,784.2994,1440.0656Z"/><circle class="cls-5" cx="1371.179" cy="1199.1671" r="20.7709" transform="translate(-450.0872 1165.6571) rotate(-40.1173)"/><circle class="cls-5" cx="1497.7778" cy="1256.3747" r="14.2445" transform="translate(-119.3063 157.8053) rotate(-5.8005)"/><circle class="cls-5" cx="2498.147" cy="1093.6512" r="13.6925" transform="translate(-216.2547 1356.0154) rotate(-29.1639)"/><circle class="cls-5" cx="1049.0471" cy="1214.9583" r="19.543" transform="translate(-337.3962 2023.9073) rotate(-79.4536)"/><circle class="cls-5" cx="2856.305" cy="1250.2525" r="22.1292" transform="translate(-243.1891 911.5107) rotate(-17.4027)"/><circle class="cls-5" cx="1393.8012" cy="1117.5327" r="24.1219" transform="translate(-98.1928 2100.139) rotate(-72.0906)"/><circle class="cls-5" cx="2095.693" cy="1046.2332" r="10.0551" transform="translate(454.0866 2717.0597) rotate(-72.0352)"/><circle class="cls-5" cx="2504.3266" cy="1059.7315" r="7.4642" transform="translate(728.5061 3119.1353) rotate(-72.165)"/><circle class="cls-5" cx="769.5696" cy="1604.816" r="21.3556" transform="translate(-349.0671 220.5026) rotate(-13.3215)"/><circle class="cls-5" cx="779.5373" cy="1522.2846" r="9.3892" transform="translate(-529.3611 421.4605) rotate(-22.8189)"/><circle class="cls-5" cx="1337.332" cy="837.6212" r="20.6965" transform="translate(-186.3524 1248.05) rotate(-47.1362)"/><circle class="cls-5" cx="970.4185" cy="945.8624" r="23.5369" transform="translate(-258.6871 1516.5349) rotate(-69.1712)"/><circle class="cls-5" cx="1412.8813" cy="1126.0342" r="20.96" transform="translate(-93.0707 2124.18) rotate(-72.0905)"/><circle class="cls-5" cx="2509.0944" cy="1082.9802" r="18.628" transform="translate(1121.9033 3437.5718) rotate(-82.8419)"/><circle class="cls-5" cx="2296.8762" cy="969.6602" r="11.369" transform="translate(-167.2437 1349.1259) rotate(-31.6423)"/><circle class="cls-5" cx="250.8817" cy="1344.2575" r="26.2643" transform="translate(-1112.2616 1452.9321) rotate(-83.9866)"/><circle class="cls-5" cx="2039.1444" cy="1204.6987" r="15.7848" transform="translate(-260.8555 639.5356) rotate(-16.7686)"/><circle class="cls-5" cx="1975.0779" cy="1276.0974" r="15.0844" transform="translate(153.4498 2763.0501) rotate(-72.0905)"/><path class="cls-5" d="M1282.499,1222.2663a10.4384,10.4384,0,1,1-4.54,14.0468A10.4384,10.4384,0,0,1,1282.499,1222.2663Z"/><circle class="cls-5" cx="2548.3654" cy="601.2553" r="17.2656" transform="matrix(0.8516, -0.5243, 0.5243, 0.8516, 63.076, 1425.2764)"/><circle class="cls-5" cx="929.9689" cy="1026.2917" r="16.6695" transform="translate(-376.7936 567.5014) rotate(-28.4732)"/><path class="cls-5" d="M2118.2467,1448.7693a14.0158,14.0158,0,1,1-6.0954,18.8608A14.0158,14.0158,0,0,1,2118.2467,1448.7693Z"/><circle class="cls-5" cx="-9.282" cy="1381.1667" r="22.7037" transform="translate(-511.5702 94.5377) rotate(-21.7103)"/><circle class="cls-5" cx="2891.4251" cy="1387.8415" r="25.2845" transform="translate(681.6791 3712.3771) rotate(-72.0905)"/><circle class="cls-5" cx="2266.9006" cy="1134.4044" r="19.8616" transform="translate(-212.7325 1660.8371) rotate(-38.5704)"/><circle class="cls-5" cx="2812.7932" cy="1172.9234" r="13.861" transform="translate(-216.9715 1501.6795) rotate(-28.8288)"/><path class="cls-5" d="M938.3661,1561.9648a11.8348,11.8348,0,1,1-5.1469,15.926A11.8349,11.8349,0,0,1,938.3661,1561.9648Z"/><circle class="cls-5" cx="2343.3633" cy="1301.8908" r="17.2617" transform="translate(104.3792 2776.0757) rotate(-62.4166)"/><path class="cls-5" d="M1994.7516,624.7788a8.84,8.84,0,1,1-3.8443,11.8955A8.84,8.84,0,0,1,1994.7516,624.7788Z"/><path class="cls-5" d="M2502.8837,980.4817a16.6049,16.6049,0,1,1-7.2213,22.345A16.6049,16.6049,0,0,1,2502.8837,980.4817Z"/><circle class="cls-5" cx="2595.4435" cy="716.064" r="16.3854" transform="translate(-78.0386 1034.7614) rotate(-22.2218)"/><circle class="cls-5" cx="524.5237" cy="1102.7108" r="15.9019"/><path class="cls-5" d="M1979.4864,1139.5225a9.5518,9.5518,0,1,1-4.154,12.8538A9.5518,9.5518,0,0,1,1979.4864,1139.5225Z"/><circle class="cls-5" cx="1812.6518" cy="689.2916" r="10.7918" transform="translate(-15.4624 1336.4609) rotate(-40.3146)"/><circle class="cls-5" cx="1752.3035" cy="1130.8254" r="17.1994" transform="translate(-237.2175 505.4135) rotate(-15.3849)"/><circle class="cls-5" cx="2495.9527" cy="1031.7387" r="14.4932" transform="translate(766.5826 3106.2371) rotate(-72.6428)"/><circle class="cls-5" cx="2223.2737" cy="1561.9594" r="11.9664" transform="translate(454.6519 3624.6372) rotate(-84.4788)"/><path class="cls-5" d="M769.6286,1017.8931a14.332,14.332,0,1,1-6.2329,19.2863A14.3319,14.3319,0,0,1,769.6286,1017.8931Z"/><path class="cls-5" d="M1882.0738,1450.51a15.3261,15.3261,0,1,1-6.6652,20.6241A15.326,15.326,0,0,1,1882.0738,1450.51Z"/><circle class="cls-5" cx="1041.5014" cy="1479.1213" r="25.7375" transform="translate(-682.3105 2027.7538) rotate(-72.5038)"/><circle class="cls-5" cx="1586.4286" cy="1171.1891" r="14.9971" transform="translate(261.8924 2632.0255) rotate(-84.2383)"/><circle class="cls-5" cx="2394.627" cy="1228.2583" r="23.6743" transform="translate(-266.7991 828.6731) rotate(-18.6157)"/><circle class="cls-5" cx="1996.372" cy="1243.0921" r="18.6654" transform="translate(-106.3127 2296.4183) rotate(-58.5178)"/><circle class="cls-5" cx="1415.0752" cy="1473.0688" r="21.7313" transform="translate(-621.2165 1312.1789) rotate(-41.6327)"/><path class="cls-5" d="M786.2609,1442.1612a13.6136,13.6136,0,1,1-5.92,18.32A13.6135,13.6135,0,0,1,786.2609,1442.1612Z"/><circle class="cls-5" cx="1129.4172" cy="1019.6788" r="12.9764" transform="translate(-188.1634 1780.8025) rotate(-72.0905)"/><circle class="cls-5" cx="2514.3432" cy="487.0977" r="20.8408" transform="translate(1763.6591 2935.7013) rotate(-83.9197)"/><path class="cls-5" d="M1750.0548,1536.7991a9.73,9.73,0,1,1-4.2314,13.0934A9.73,9.73,0,0,1,1750.0548,1536.7991Z"/><circle class="cls-5" cx="2092.4776" cy="956.0359" r="23.1591" transform="translate(531.8106 2646.2387) rotate(-71.8371)"/><path class="cls-5" d="M1583.5184,874.9708a12.7348,12.7348,0,1,1-5.5383,17.137A12.7348,12.7348,0,0,1,1583.5184,874.9708Z"/><circle class="cls-5" cx="503.3439" cy="1579.4601" r="25.3589" transform="translate(-505.2758 263.8858) rotate(-19.8004)"/><circle class="cls-5" cx="2133.0333" cy="980.8457" r="17.2606" transform="translate(552.3352 2716.7267) rotate(-72.3736)"/><path class="cls-5" d="M2037.2921,962.7653a15.9153,15.9153,0,1,1-6.9214,21.417A15.9152,15.9152,0,0,1,2037.2921,962.7653Z"/><circle class="cls-5" cx="1831.5467" cy="844.2926" r="20.2583" transform="translate(-40.7657 1593.8523) rotate(-46.5666)"/><circle class="cls-5" cx="2124.9668" cy="1112.3544" r="11.1211" transform="translate(406.7139 2785.8009) rotate(-71.8738)"/><circle class="cls-5" cx="599.716" cy="1509.2987" r="15.9099" transform="translate(-360.9209 199.7879) rotate(-14.5929)"/><circle class="cls-5" cx="2096.0476" cy="1625.4115" r="13.3983" transform="translate(-273.5773 2817.1564) rotate(-64.4913)"/><circle class="cls-5" cx="815.8974" cy="1381.2741" r="8.2864" transform="translate(-785.3535 1283.2836) rotate(-55.9284)"/><circle class="cls-5" cx="1245.725" cy="1272.7171" r="11.0877" transform="translate(-202.5294 236.2815) rotate(-10.0249)"/><circle class="cls-5" cx="1367.6328" cy="1046.128" r="21.1844" transform="translate(-339.1538 1273.4662) rotate(-45)"/><circle class="cls-5" cx="2596.3698" cy="211.8921" r="20.8886" transform="translate(1812.2676 2696.0858) rotate(-77.148)"/><circle class="cls-5" cx="2364.3344" cy="951.6084" r="17.2989" transform="translate(-51.6295 1763.2451) rotate(-40.4937)"/><circle class="cls-5" cx="1153.4506" cy="1335.3568" r="10.7168" transform="translate(-280.4095 306.9254) rotate(-13.5304)"/><circle class="cls-5" cx="1352.8562" cy="1463.5462" r="17.1033" transform="translate(-557.0891 894.0762) rotate(-30.6482)"/><path class="cls-5" d="M1438.8144,1089.5a14.162,14.162,0,1,1-6.1589,19.0575A14.1619,14.1619,0,0,1,1438.8144,1089.5Z"/><circle class="cls-5" cx="1711.0587" cy="803.5246" r="19.7246" transform="translate(-137.8219 409.8063) rotate(-13.1335)"/><circle class="cls-5" cx="1192.0673" cy="1405.1072" r="9.6861" transform="translate(-517.0845 2093.693) rotate(-71.6329)"/><path class="cls-5" d="M2184.2216,344.2792a5.32,5.32,0,1,1-2.3137,7.1593A5.32,5.32,0,0,1,2184.2216,344.2792Z"/><circle class="cls-5" cx="1995.4716" cy="871.9503" r="25.3082" transform="translate(19.3576 1786.9244) rotate(-48.4486)"/><circle class="cls-5" cx="1986.1743" cy="976.0626" r="20.066" transform="translate(373.4874 2491.5914) rotate(-69.3919)"/><circle class="cls-5" cx="1810.3491" cy="1573.1999" r="19.575" transform="translate(-553.8926 1976.5394) rotate(-50.6722)"/><circle class="cls-5" cx="1916.9702" cy="1259.9762" r="18.3868" transform="translate(116.1606 2681.0319) rotate(-71.5936)"/><circle class="cls-5" cx="2345.9185" cy="1264.0249" r="15.7034" transform="translate(421.7367 3107.5586) rotate(-72.0904)"/><path class="cls-5" d="M1075.2473,981.8347a22.4374,22.4374,0,1,1-9.7578,30.1938A22.4375,22.4375,0,0,1,1075.2473,981.8347Z"/><circle class="cls-5" cx="1367.027" cy="1403.8279" r="19.1246" transform="translate(-553.3309 1014.314) rotate(-34.2949)"/><circle class="cls-5" cx="2702.9567" cy="700.5504" r="13.4051" transform="translate(515.2585 2435.6937) rotate(-52.9494)"/><path class="cls-5" d="M750.1,1475.2162a14.395,14.395,0,1,1-6.26,19.3712A14.395,14.395,0,0,1,750.1,1475.2162Z"/><circle class="cls-5" cx="1291.5474" cy="1485.2868" r="13.8543" transform="translate(-521.9902 2250.3051) rotate(-71.8629)"/><circle class="cls-5" cx="2701.7778" cy="1630.1148" r="11.9039" transform="translate(319.8169 3699.6896) rotate(-72.0905)"/><path class="cls-5" d="M2188.3853,1256.6061a8.5871,8.5871,0,1,1-3.7344,11.5556A8.5871,8.5871,0,0,1,2188.3853,1256.6061Z"/><circle class="cls-5" cx="1705.5393" cy="1464.6051" r="21.6324" transform="translate(-527.1076 1201.5077) rotate(-33.933)"/><circle class="cls-5" cx="1770.3226" cy="959.4982" r="10.9197" transform="translate(751.7866 2696.5254) rotate(-88.0713)"/><circle class="cls-5" cx="2079.5227" cy="899.4625" r="14.4341" transform="translate(1094.5799 2939.8877) rotate(-87.6228)"/><circle class="cls-5" cx="1128.1066" cy="956.4647" r="10.0787" transform="translate(-128.9175 1735.7845) rotate(-72.0907)"/><circle class="cls-5" cx="1777.0229" cy="978.5304" r="15.6072" transform="translate(294.342 2363.0843) rotate(-71.8796)"/><circle class="cls-5" cx="2010.9157" cy="138.3264" r="27.0955" transform="translate(1260.9058 2009.2623) rotate(-72.0905)"/><circle class="cls-5" cx="972.7222" cy="1435.2526" r="18.3401" transform="translate(-501.8899 523.2999) rotate(-24.139)"/><path class="cls-5" d="M1302.6286,1366.8477a14.1895,14.1895,0,1,1-6.1708,19.0946A14.19,14.19,0,0,1,1302.6286,1366.8477Z"/><circle class="cls-5" cx="2710.3218" cy="328.4691" r="26.9691" transform="translate(2310.482 3029.1846) rotate(-88.4886)"/><circle class="cls-5" cx="1078.2132" cy="1062.071" r="20.2393" transform="translate(-327.3655 500.9231) rotate(-22.8046)"/><path class="cls-5" d="M570.4651,893.891a14.93,14.93,0,1,1-6.493,20.0912A14.93,14.93,0,0,1,570.4651,893.891Z"/><circle class="cls-5" cx="1756.0511" cy="1626.1465" r="12.7405" transform="translate(-331.3073 2797.0449) rotate(-72.0906)"/><circle class="cls-5" cx="543.0292" cy="1227.1519" r="11.3007" transform="translate(-765.2956 1525.5958) rotate(-78.98)"/><circle class="cls-5" cx="1034.2796" cy="1193.7052" r="13.4742" transform="translate(-530.3568 977.883) rotate(-41.2392)"/><circle class="cls-5" cx="802.2835" cy="1479.3313" r="15.9049" transform="translate(-850.0103 1798.7133) rotate(-72.4679)"/><circle class="cls-5" cx="1371.5673" cy="1243.6135" r="19.7644" transform="translate(35.3211 2525.1037) rotate(-86.0006)"/><circle class="cls-5" cx="2165.9223" cy="603.9357" r="23.8496" transform="translate(912.1142 2470.4627) rotate(-71.6898)"/><circle class="cls-5" cx="2162.3512" cy="312.2246" r="14.351" transform="translate(1531.7883 2404.0271) rotate(-81.4411)"/><circle class="cls-5" cx="1955.4623" cy="1349.6977" r="24.486"/><circle class="cls-5" cx="1689.3664" cy="1151.1693" r="17.0673" transform="translate(70.3741 2399.3734) rotate(-71.9027)"/><circle class="cls-5" cx="1007.7033" cy="1435.8741" r="19.8287" transform="matrix(0.1868, -0.9824, 0.9824, 0.1868, -591.1158, 2157.6619)"/><path class="cls-5" d="M2759.9126,608.5778a12.1484,12.1484,0,1,1-5.2832,16.3479A12.1482,12.1482,0,0,1,2759.9126,608.5778Z"/><circle class="cls-5" cx="1204.8681" cy="1272.1991" r="20.5698" transform="translate(-72.5574 2471.5247) rotate(-89.7509)"/><path class="cls-5" d="M1720.1866,948.5906a18.1125,18.1125,0,1,1-7.877,24.3737A18.1124,18.1124,0,0,1,1720.1866,948.5906Z"/><circle class="cls-5" cx="1501.5251" cy="905.7054" r="16.5561" transform="translate(-251.3269 954.593) rotate(-32.6956)"/><circle class="cls-5" cx="853.3128" cy="1511.5549" r="22.855" transform="translate(-433.412 346.5311) rotate(-18.3959)"/><circle class="cls-5" cx="2424.1886" cy="816.0042" r="20.4483" transform="translate(919.3418 2884.3343) rotate(-72.5653)"/><circle class="cls-5" cx="711.5579" cy="1466.2013" r="19.8575" transform="translate(-415.8346 289.3211) rotate(-17.882)"/><circle class="cls-5" cx="1524.5473" cy="1530.52" r="23.0498" transform="translate(-389.5079 528.9568) rotate(-17.4904)"/><circle class="cls-5" cx="2172.919" cy="1189.1269" r="9.1429" transform="translate(770.1067 3230.6257) rotate(-84.1948)"/><circle class="cls-5" cx="1483.6141" cy="999.6897" r="23.2879" transform="translate(135.3418 2175.5519) rotate(-75.0654)"/><circle class="cls-5" cx="906.8361" cy="1138.2137" r="18.1586" transform="translate(-455.0884 1651.0917) rotate(-72.0905)"/><circle class="cls-5" cx="1089.7658" cy="1003.9939" r="12.7464" transform="translate(-31.8092 1972.3238) rotate(-83.4604)"/><circle class="cls-5" cx="2621.9451" cy="592.4168" r="22.5288" transform="translate(1721.2086 3125.0493) rotate(-83.1539)"/><circle class="cls-5" cx="775.5618" cy="1235.4091" r="9.9858" transform="translate(-23.6566 15.1707) rotate(-1.1039)"/><circle class="cls-5" cx="1501.6993" cy="928.3535" r="26.0777" transform="translate(-263.573 900.8797) rotate(-30.8328)"/><circle class="cls-5" cx="2499.9498" cy="1178.3727" r="13.751" transform="translate(-209.1494 631.4792) rotate(-13.8242)"/><circle class="cls-5" cx="1503.9391" cy="875.8651" r="13.2535" transform="translate(216.1224 2046.549) rotate(-72.488)"/><path class="cls-5" d="M1973.631,1265.715a17.1443,17.1443,0,1,1-7.4559,23.0708A17.1442,17.1442,0,0,1,1973.631,1265.715Z"/><circle class="cls-5" cx="1713.0784" cy="1032.4869" r="12.8748" transform="translate(-276.272 824.7563) rotate(-25.1164)"/><path class="cls-5" d="M1968.2653,535.7329a7.9666,7.9666,0,1,1-3.4646,10.7206A7.9665,7.9665,0,0,1,1968.2653,535.7329Z"/><path class="cls-5" d="M1257.1492,919.6974a14.238,14.238,0,1,1-6.1919,19.16A14.2381,14.2381,0,0,1,1257.1492,919.6974Z"/><circle class="cls-5" cx="1372.6428" cy="679.1678" r="22.2461" transform="translate(-119.8335 335.7559) rotate(-13.3677)"/><circle class="cls-5" cx="1253.8516" cy="717.3432" r="17.2335" transform="translate(266.0355 1771.3568) rotate(-76.6313)"/><path class="cls-5" d="M423.7039,1498.2515a19.7812,19.7812,0,1,1-8.6026,26.6192A19.7813,19.7813,0,0,1,423.7039,1498.2515Z"/><path class="cls-5" d="M2837.5519,34.3686a18.5825,18.5825,0,1,1-8.0814,25.0062A18.5824,18.5824,0,0,1,2837.5519,34.3686Z"/><circle class="cls-5" cx="1599.9037" cy="302.9064" r="22.3888" transform="translate(-26.263 219.0843) rotate(-7.77)"/><path class="cls-5" d="M2226.7677,647.6223a16.41,16.41,0,1,1-7.1368,22.0833A16.41,16.41,0,0,1,2226.7677,647.6223Z"/><line class="cls-6" x1="1336.9149" y1="1561.0349" x2="1125.3942" y2="1703.4273"/><line class="cls-7" x1="1941.1014" y1="837.7044" x2="1956.7624" y2="852.2293"/><line class="cls-8" x1="1535.4457" y1="1607.2845" x2="1336.9149" y2="1561.0349"/><line class="cls-9" x1="1439.9295" y1="1546.4135" x2="1336.9149" y2="1561.0349"/><line class="cls-10" x1="972.996" y1="1603.5016" x2="1125.3942" y2="1703.4273"/><line class="cls-11" x1="1439.9295" y1="1546.4135" x2="1125.3942" y2="1703.4273"/><line class="cls-12" x1="972.996" y1="1603.5016" x2="885.4342" y2="1525.219"/><line class="cls-13" x1="1535.4457" y1="1607.2845" x2="1439.9295" y2="1546.4135"/><line class="cls-14" x1="2093.8021" y1="1461.6566" x2="2358.7234" y2="1507.9896"/><line class="cls-15" x1="2358.7234" y1="1507.9896" x2="2169.0554" y2="1527.3018"/><line class="cls-16" x1="2853.9107" y1="849.2168" x2="2925.1009" y2="712.0968"/><line class="cls-17" x1="2093.8021" y1="1461.6566" x2="2169.0554" y2="1527.3018"/><line class="cls-18" x1="2358.7234" y1="1507.9896" x2="2011.6372" y2="1422.0868"/><line class="cls-19" x1="972.996" y1="1603.5016" x2="790.8693" y2="1452.9095"/><line class="cls-20" x1="1535.4457" y1="1607.2845" x2="1483.0761" y2="1917.1854"/><line class="cls-21" x1="790.8693" y1="1452.9095" x2="885.4342" y2="1525.219"/><line class="cls-22" x1="2853.9107" y1="849.2168" x2="3022.8964" y2="665.7275"/><line class="cls-23" x1="2093.8021" y1="1461.6566" x2="2011.6372" y2="1422.0868"/><line class="cls-24" x1="972.996" y1="1603.5016" x2="769.5696" y2="1604.8159"/><line class="cls-25" x1="2169.0554" y1="1527.3018" x2="2011.6372" y2="1422.0868"/><line class="cls-26" x1="885.4342" y1="1525.219" x2="769.5696" y2="1604.8159"/><line class="cls-27" x1="1956.7624" y1="852.2293" x2="2095.6929" y2="1046.2331"/><line class="cls-28" x1="1535.4457" y1="1607.2845" x2="1496.0296" y2="1813.5011"/><line class="cls-29" x1="921.7917" y1="1167.2393" x2="790.8693" y2="1452.9095"/><line class="cls-30" x1="2498.147" y1="1093.6512" x2="2405.7089" y2="1046.6738"/><line class="cls-31" x1="1371.179" y1="1199.1671" x2="1497.7778" y2="1256.3747"/><line class="cls-32" x1="1049.0471" y1="1214.9583" x2="921.7917" y2="1167.2393"/><line class="cls-33" x1="2908.4725" y1="721.0412" x2="2853.9107" y2="849.2168"/><line class="cls-34" x1="2093.8021" y1="1461.6566" x2="2124.6294" y2="1461.2474"/><line class="cls-35" x1="2405.7089" y1="1046.6738" x2="2504.3266" y2="1059.7315"/><line class="cls-36" x1="1393.8012" y1="1117.5327" x2="1371.179" y2="1199.1671"/><line class="cls-37" x1="790.8693" y1="1452.9095" x2="769.5696" y2="1604.8159"/><line class="cls-38" x1="2169.0554" y1="1527.3018" x2="2124.6294" y2="1461.2474"/><line class="cls-39" x1="970.4185" y1="945.8624" x2="921.7917" y2="1167.2393"/><line class="cls-40" x1="779.5373" y1="1522.2846" x2="790.8693" y2="1452.9095"/><line class="cls-41" x1="1337.332" y1="837.6212" x2="1371.179" y2="1199.1671"/><line class="cls-42" x1="1393.8012" y1="1117.5327" x2="1497.7778" y2="1256.3747"/><line class="cls-43" x1="1956.7624" y1="852.2293" x2="1998.7772" y2="632.6487"/><line class="cls-44" x1="1412.8813" y1="1126.0342" x2="1371.179" y2="1199.1671"/><line class="cls-45" x1="2498.147" y1="1093.6512" x2="2504.3266" y2="1059.7315"/><line class="cls-46" x1="1412.8813" y1="1126.0342" x2="1497.7778" y2="1256.3747"/><line class="cls-47" x1="1956.7624" y1="852.2293" x2="1812.6518" y2="689.2916"/><line class="cls-48" x1="2296.8761" y1="969.6602" x2="2405.7089" y2="1046.6738"/><line class="cls-49" x1="970.4185" y1="945.8624" x2="1049.0471" y2="1214.9583"/><line class="cls-50" x1="2509.0944" y1="1082.9802" x2="2498.147" y2="1093.6512"/><line class="cls-51" x1="779.5373" y1="1522.2846" x2="769.5696" y2="1604.8159"/><line class="cls-52" x1="1393.8012" y1="1117.5327" x2="1412.8813" y2="1126.0342"/><line class="cls-53" x1="1371.179" y1="1199.1671" x2="1287.2526" y2="1231.5595"/><line class="cls-54" x1="2856.3049" y1="1250.2525" x2="2509.0944" y2="1082.9802"/><line class="cls-55" x1="2011.6372" y1="1422.0868" x2="2124.6294" y2="1461.2474"/><line class="cls-56" x1="2509.0944" y1="1082.9802" x2="2504.3266" y2="1059.7315"/><line class="cls-57" x1="1497.7778" y1="1256.3747" x2="1287.2526" y2="1231.5595"/><line class="cls-58" x1="2296.8761" y1="969.6602" x2="2095.6929" y2="1046.2331"/><line class="cls-59" x1="867.8003" y1="1732.6061" x2="769.5696" y2="1604.8159"/><line class="cls-60" x1="2296.8761" y1="969.6602" x2="2504.3266" y2="1059.7315"/><line class="cls-61" x1="779.5373" y1="1522.2846" x2="867.8003" y2="1732.6061"/><line class="cls-62" x1="1049.0471" y1="1214.9583" x2="1287.2526" y2="1231.5595"/><line class="cls-63" x1="2039.1444" y1="1204.6987" x2="2095.6929" y2="1046.2331"/><line class="cls-64" x1="3020.0249" y1="1191.7639" x2="2856.3049" y2="1250.2525"/><line class="cls-65" x1="1393.8012" y1="1117.5327" x2="1287.2526" y2="1231.5595"/><line class="cls-66" x1="929.9689" y1="1026.2917" x2="1049.0471" y2="1214.9583"/><line class="cls-67" x1="1412.8813" y1="1126.0342" x2="1287.2526" y2="1231.5595"/><line class="cls-68" x1="2891.4251" y1="1387.8415" x2="2856.3049" y2="1250.2525"/><line class="cls-69" x1="2856.3049" y1="1250.2525" x2="2812.7932" y2="1172.9234"/><line class="cls-70" x1="929.9689" y1="1026.2917" x2="970.4185" y2="945.8624"/><line class="cls-71" x1="2095.6929" y1="1046.2331" x2="2266.9006" y2="1134.4044"/><line class="cls-72" x1="2548.3654" y1="601.2553" x2="2908.4725" y2="721.0412"/><line class="cls-73" x1="790.8693" y1="1452.9095" x2="792.4605" y2="1454.2812"/><line class="cls-74" x1="769.5696" y1="1604.8159" x2="943.7557" y2="1572.5012"/><line class="cls-75" x1="779.5373" y1="1522.2846" x2="943.7557" y2="1572.5012"/><line class="cls-76" x1="2510.4455" y1="995.2648" x2="2504.3266" y2="1059.7315"/><line class="cls-77" x1="2039.1444" y1="1204.6987" x2="1975.0779" y2="1276.0974"/><line class="cls-78" x1="2495.9527" y1="1031.7386" x2="2504.3266" y2="1059.7315"/><line class="cls-79" x1="2296.8761" y1="969.6602" x2="2266.9006" y2="1134.4044"/><line class="cls-80" x1="2509.0944" y1="1082.9802" x2="2510.4455" y2="995.2648"/><line class="cls-81" x1="867.8003" y1="1732.6061" x2="943.7557" y2="1572.5012"/><line class="cls-82" x1="970.4185" y1="945.8624" x2="776.1553" y2="1030.6527"/><line class="cls-83" x1="-9.282" y1="1381.1667" x2="250.8818" y2="1344.2575"/><line class="cls-84" x1="1586.4286" y1="1171.189" x2="1412.8813" y2="1126.0342"/><line class="cls-85" x1="2509.0944" y1="1082.9802" x2="2495.9527" y2="1031.7386"/><line class="cls-86" x1="1337.332" y1="837.6212" x2="1129.4172" y2="1019.6788"/><line class="cls-87" x1="3020.0249" y1="1191.7639" x2="2812.7932" y2="1172.9234"/><line class="cls-88" x1="524.5237" y1="1102.7108" x2="250.8818" y2="1344.2575"/><line class="cls-89" x1="2548.3654" y1="601.2553" x2="2510.4455" y2="995.2648"/><line class="cls-90" x1="2039.1444" y1="1204.6987" x2="1983.8363" y2="1148.0264"/><line class="cls-91" x1="402.1685" y1="1761.2521" x2="503.3439" y2="1579.4601"/><line class="cls-92" x1="2548.3654" y1="601.2553" x2="2595.4435" y2="716.064"/><line class="cls-93" x1="1983.8363" y1="1148.0264" x2="1975.0779" y2="1276.0974"/><line class="cls-94" x1="2891.4251" y1="1387.8415" x2="2812.7932" y2="1172.9234"/><line class="cls-95" x1="2343.3633" y1="1301.8908" x2="2124.6294" y2="1461.2474"/><line class="cls-96" x1="1752.3035" y1="1130.8254" x2="1975.0779" y2="1276.0974"/><line class="cls-97" x1="2343.3633" y1="1301.8908" x2="2266.9006" y2="1134.4044"/><line class="cls-98" x1="1975.0779" y1="1276.0974" x2="1889.0532" y2="1464.1546"/><line class="cls-99" x1="2039.1444" y1="1204.6987" x2="1996.372" y2="1243.0921"/><line class="cls-100" x1="929.9689" y1="1026.2917" x2="776.1553" y2="1030.6527"/><line class="cls-101" x1="2223.2737" y1="1561.9593" x2="2124.6294" y2="1461.2474"/><line class="cls-102" x1="1996.372" y1="1243.0921" x2="1975.0779" y2="1276.0974"/><line class="cls-103" x1="1889.0532" y1="1464.1546" x2="2124.6294" y2="1461.2474"/><line class="cls-104" x1="2548.3654" y1="601.2553" x2="2514.3432" y2="487.0977"/><line class="cls-105" x1="929.9689" y1="1026.2917" x2="1129.4172" y2="1019.6788"/><line class="cls-106" x1="1812.6518" y1="689.2916" x2="1998.7772" y2="632.6487"/><line class="cls-107" x1="304.9105" y1="1738.1449" x2="503.3439" y2="1579.4601"/><line class="cls-108" x1="1041.5014" y1="1479.1213" x2="943.7557" y2="1572.5012"/><line class="cls-109" x1="2394.627" y1="1228.2583" x2="2266.9006" y2="1134.4044"/><line class="cls-110" x1="2510.4455" y1="995.2648" x2="2495.9527" y2="1031.7386"/><line class="cls-111" x1="2223.2737" y1="1561.9593" x2="2393.1563" y2="1724.5983"/><line class="cls-112" x1="2394.627" y1="1228.2583" x2="2343.3633" y2="1301.8908"/><line class="cls-113" x1="524.5237" y1="1102.7108" x2="776.1553" y2="1030.6527"/><line class="cls-114" x1="1752.3035" y1="1130.8254" x2="1983.8363" y2="1148.0264"/><line class="cls-115" x1="792.4605" y1="1454.2812" x2="943.7557" y2="1572.5012"/><line class="cls-116" x1="1752.3035" y1="1130.8254" x2="1586.4286" y2="1171.189"/><line class="cls-117" x1="1996.372" y1="1243.0921" x2="1983.8363" y2="1148.0264"/><line class="cls-118" x1="2394.627" y1="1228.2583" x2="2495.9527" y2="1031.7386"/><line class="cls-119" x1="2514.3432" y1="487.0977" x2="2595.4435" y2="716.064"/><line class="cls-120" x1="1998.7772" y1="632.6487" x2="2092.4777" y2="956.0358"/><line class="cls-121" x1="1041.5014" y1="1479.1213" x2="792.4605" y2="1454.2812"/><line class="cls-122" x1="2096.0476" y1="1625.4115" x2="2124.6294" y2="1461.2474"/><line class="cls-123" x1="316.3791" y1="1664.2605" x2="503.3439" y2="1579.4601"/><line class="cls-124" x1="1812.6518" y1="689.2916" x2="1589.3178" y2="886.3084"/><line class="cls-125" x1="1889.0532" y1="1464.1546" x2="1754.4858" y2="1545.4615"/><line class="cls-126" x1="2124.9668" y1="1112.3544" x2="1983.8363" y2="1148.0264"/><line class="cls-127" x1="1812.6518" y1="689.2916" x2="1831.5467" y2="844.2926"/><line class="cls-128" x1="2223.2737" y1="1561.9593" x2="2096.0476" y2="1625.4115"/><line class="cls-129" x1="2096.0476" y1="1625.4115" x2="1889.0532" y2="1464.1546"/><line class="cls-130" x1="1652.7911" y1="1691.2539" x2="1754.4858" y2="1545.4615"/><line class="cls-131" x1="2364.3344" y1="951.6084" x2="2510.4455" y2="995.2648"/><line class="cls-132" x1="599.716" y1="1509.2987" x2="792.4605" y2="1454.2812"/><line class="cls-133" x1="2092.4777" y1="956.0358" x2="2133.0334" y2="980.8456"/><line class="cls-134" x1="815.8975" y1="1381.2741" x2="1041.5014" y2="1479.1213"/><line class="cls-135" x1="2911.5332" y1="269.1126" x2="2596.3698" y2="211.8921"/><line class="cls-136" x1="2364.3344" y1="951.6084" x2="2495.9527" y2="1031.7386"/><line class="cls-137" x1="2044.5399" y1="976.9345" x2="2092.4777" y2="956.0358"/><line class="cls-138" x1="1586.4286" y1="1171.189" x2="1367.6328" y2="1046.128"/><line class="cls-139" x1="2124.9668" y1="1112.3544" x2="2092.4777" y2="956.0358"/><line class="cls-140" x1="815.8975" y1="1381.2741" x2="792.4605" y2="1454.2812"/><line class="cls-141" x1="1998.7772" y1="632.6487" x2="1995.4715" y2="871.9503"/><line class="cls-142" x1="2044.5399" y1="976.9345" x2="2133.0334" y2="980.8456"/><line class="cls-143" x1="1812.6518" y1="689.2916" x2="1711.0587" y2="803.5246"/><line class="cls-144" x1="2124.9668" y1="1112.3544" x2="2133.0334" y2="980.8456"/><line class="cls-145" x1="599.716" y1="1509.2987" x2="503.3439" y2="1579.4601"/><line class="cls-146" x1="2223.2737" y1="1561.9593" x2="2270.4204" y2="1756.9347"/><line class="cls-147" x1="2343.3633" y1="1301.8908" x2="2345.9185" y2="1264.0248"/><line class="cls-148" x1="2124.9668" y1="1112.3544" x2="2044.5399" y2="976.9345"/><line class="cls-149" x1="1586.4286" y1="1171.189" x2="1445.2638" y2="1102.1083"/><line class="cls-150" x1="2596.3698" y1="211.8921" x2="2514.3432" y2="487.0977"/><line class="cls-151" x1="1352.8562" y1="1463.5462" x2="1415.0752" y2="1473.0688"/><line class="cls-152" x1="1589.3178" y1="886.3084" x2="1367.6328" y2="1046.128"/><line class="cls-153" x1="1415.0752" y1="1473.0688" x2="1336.8008" y2="1697.4837"/><line class="cls-154" x1="2364.3344" y1="951.6084" x2="2092.4777" y2="956.0358"/><line class="cls-155" x1="1810.3491" y1="1573.1999" x2="1889.0532" y2="1464.1546"/><line class="cls-156" x1="2891.4251" y1="1387.8415" x2="2701.7778" y2="1630.1148"/><line class="cls-157" x1="2364.3344" y1="951.6084" x2="2133.0334" y2="980.8456"/><line class="cls-158" x1="815.8975" y1="1381.2741" x2="599.716" y2="1509.2987"/><line class="cls-159" x1="2702.9567" y1="700.5504" x2="2595.4435" y2="716.064"/><line class="cls-160" x1="1996.372" y1="1243.0921" x2="1916.9702" y2="1259.9761"/><line class="cls-161" x1="1589.3178" y1="886.3084" x2="1445.2638" y2="1102.1083"/><line class="cls-162" x1="1711.0587" y1="803.5246" x2="1589.3178" y2="886.3084"/><line class="cls-163" x1="2394.627" y1="1228.2583" x2="2345.9185" y2="1264.0248"/><line class="cls-164" x1="1995.4715" y1="871.9503" x2="2092.4777" y2="956.0358"/><line class="cls-165" x1="2092.4777" y1="956.0358" x2="1986.1744" y2="976.0626"/><line class="cls-166" x1="1085.4653" y1="1001.8105" x2="1129.4172" y2="1019.6788"/><line class="cls-167" x1="1810.3491" y1="1573.1999" x2="1754.4858" y2="1545.4615"/><line class="cls-168" x1="1831.5467" y1="844.2926" x2="1711.0587" y2="803.5246"/><line class="cls-169" x1="1415.0752" y1="1473.0688" x2="1367.027" y2="1403.8279"/><line class="cls-170" x1="1367.6328" y1="1046.128" x2="1245.725" y2="1272.7171"/><line class="cls-171" x1="544.5594" y1="1886.804" x2="503.3439" y2="1579.4601"/><line class="cls-172" x1="2044.5399" y1="976.9345" x2="1995.4715" y2="871.9503"/><line class="cls-173" x1="1831.5467" y1="844.2926" x2="1995.4715" y2="871.9503"/><line class="cls-174" x1="2044.5399" y1="976.9345" x2="1986.1744" y2="976.0626"/><line class="cls-175" x1="1831.5467" y1="844.2926" x2="1986.1744" y2="976.0626"/><line class="cls-176" x1="1754.4858" y1="1545.4615" x2="1577.629" y2="1642.0123"/><line class="cls-177" x1="1153.4506" y1="1335.3568" x2="1245.725" y2="1272.7171"/><line class="cls-178" x1="792.4605" y1="1454.2812" x2="756.6552" y2="1488.0319"/><line class="cls-179" x1="1415.0752" y1="1473.0688" x2="1291.5475" y2="1485.2869"/><line class="cls-180" x1="2964.0703" y1="1124.3777" x2="2812.7932" y2="1172.9234"/><line class="cls-181" x1="1445.2638" y1="1102.1083" x2="1245.725" y2="1272.7171"/><line class="cls-182" x1="1445.2638" y1="1102.1083" x2="1367.6328" y2="1046.128"/><line class="cls-183" x1="1192.0674" y1="1405.1072" x2="1245.725" y2="1272.7171"/><line class="cls-184" x1="1153.4506" y1="1335.3568" x2="1192.0674" y2="1405.1072"/><line class="cls-185" x1="1352.8562" y1="1463.5462" x2="1192.0674" y2="1405.1072"/><line class="cls-186" x1="1705.5393" y1="1464.6051" x2="1754.4858" y2="1545.4615"/><line class="cls-187" x1="577.2642" y1="907.1831" x2="776.1553" y2="1030.6527"/><line class="cls-188" x1="599.716" y1="1509.2987" x2="756.6552" y2="1488.0319"/><line class="cls-189" x1="2079.5227" y1="899.4624" x2="2133.0334" y2="980.8456"/><line class="cls-190" x1="1245.725" y1="1272.7171" x2="1367.027" y2="1403.8279"/><line class="cls-191" x1="1995.4715" y1="871.9503" x2="1986.1744" y2="976.0626"/><line class="cls-192" x1="2079.5227" y1="899.4624" x2="2044.5399" y2="976.9345"/><line class="cls-193" x1="815.8975" y1="1381.2741" x2="756.6552" y2="1488.0319"/><line class="cls-194" x1="1352.8562" y1="1463.5462" x2="1367.027" y2="1403.8279"/><line class="cls-195" x1="1153.4506" y1="1335.3568" x2="1291.5475" y2="1485.2869"/><line class="cls-196" x1="1352.8562" y1="1463.5462" x2="1291.5475" y2="1485.2869"/><line class="cls-197" x1="1291.5475" y1="1485.2869" x2="1192.0674" y2="1405.1072"/><line class="cls-198" x1="1770.3226" y1="959.4982" x2="1711.0587" y2="803.5246"/><line class="cls-199" x1="2979.7794" y1="584.2681" x2="2702.9567" y2="700.5504"/><line class="cls-200" x1="2079.5227" y1="899.4624" x2="1995.4715" y2="871.9503"/><line class="cls-201" x1="1770.3226" y1="959.4982" x2="1986.1744" y2="976.0626"/><line class="cls-202" x1="2079.5227" y1="899.4624" x2="1986.1744" y2="976.0626"/><line class="cls-203" x1="1705.5393" y1="1464.6051" x2="1810.3491" y2="1573.1999"/><line class="cls-204" x1="2710.3218" y1="328.4691" x2="2596.3698" y2="211.8921"/><line class="cls-205" x1="2345.9185" y1="1264.0248" x2="2192.2959" y2="1264.2511"/><line class="cls-206" x1="2010.9157" y1="138.3264" x2="2186.6444" y2="349.0157"/><line class="cls-207" x1="1291.5475" y1="1485.2869" x2="1367.027" y2="1403.8279"/><line class="cls-208" x1="2899.7942" y1="995.2023" x2="2702.9567" y2="700.5504"/><line class="cls-209" x1="1777.0229" y1="978.5304" x2="1986.1744" y2="976.0626"/><line class="cls-210" x1="1705.5393" y1="1464.6051" x2="1577.629" y2="1642.0123"/><line class="cls-211" x1="1128.1067" y1="956.4646" x2="1085.4653" y2="1001.8105"/><line class="cls-212" x1="1810.3491" y1="1573.1999" x2="1756.0511" y2="1626.1465"/><line class="cls-213" x1="1309.0905" y1="1379.4804" x2="1367.027" y2="1403.8279"/><line class="cls-214" x1="1078.2132" y1="1062.071" x2="1085.4653" y2="1001.8105"/><line class="cls-215" x1="756.6552" y1="1488.0319" x2="972.7223" y2="1435.2526"/><line class="cls-216" x1="2710.3218" y1="328.4691" x2="2702.9567" y2="700.5504"/><line class="cls-217" x1="1309.0905" y1="1379.4804" x2="1291.5475" y2="1485.2869"/><line class="cls-218" x1="1770.3226" y1="959.4982" x2="1777.0229" y2="978.5304"/><line class="cls-219" x1="2162.3512" y1="312.2247" x2="2186.6444" y2="349.0157"/><line class="cls-220" x1="543.0292" y1="1227.1519" x2="756.6552" y2="1488.0319"/><line class="cls-221" x1="1705.5393" y1="1464.6051" x2="1756.0511" y2="1626.1465"/><line class="cls-222" x1="1128.1067" y1="956.4646" x2="1078.2132" y2="1062.071"/><line class="cls-223" x1="1916.9702" y1="1259.9761" x2="1955.4623" y2="1349.6977"/><line class="cls-224" x1="1371.5673" y1="1243.6134" x2="1367.027" y2="1403.8279"/><line class="cls-225" x1="802.2835" y1="1479.3312" x2="756.6552" y2="1488.0319"/><line class="cls-226" x1="2765.445" y1="619.3933" x2="2702.9567" y2="700.5504"/><line class="cls-227" x1="2165.9223" y1="603.9357" x2="2079.5227" y2="899.4624"/><line class="cls-228" x1="2192.2959" y1="1264.2511" x2="1955.4623" y2="1349.6977"/><line class="cls-229" x1="802.2835" y1="1479.3312" x2="972.7223" y2="1435.2526"/><line class="cls-230" x1="577.2642" y1="907.1831" x2="543.0292" y2="1227.1519"/><line class="cls-231" x1="1034.2797" y1="1193.7052" x2="1078.2132" y2="1062.071"/><line class="cls-232" x1="1371.5673" y1="1243.6134" x2="1309.0905" y2="1379.4804"/><line class="cls-233" x1="2010.9157" y1="138.3264" x2="2162.3512" y2="312.2247"/><line class="cls-234" x1="1777.0229" y1="978.5304" x2="1689.3664" y2="1151.1693"/><line class="cls-235" x1="1770.3226" y1="959.4982" x2="1728.435" y2="964.7159"/><line class="cls-236" x1="1007.7033" y1="1435.8741" x2="972.7223" y2="1435.2526"/><line class="cls-237" x1="2621.9451" y1="592.4168" x2="2702.9567" y2="700.5504"/><line class="cls-238" x1="1777.0229" y1="978.5304" x2="1728.435" y2="964.7159"/><line class="cls-239" x1="2172.919" y1="1189.1269" x2="2192.2959" y2="1264.2511"/><line class="cls-240" x1="2710.3218" y1="328.4691" x2="2765.445" y2="619.3933"/><line class="cls-241" x1="1309.0905" y1="1379.4804" x2="1204.8681" y2="1272.1991"/><line class="cls-242" x1="1128.1067" y1="956.4646" x2="1089.7658" y2="1003.9939"/><line class="cls-243" x1="1034.2797" y1="1193.7052" x2="1007.7033" y2="1435.8741"/><line class="cls-244" x1="2165.9223" y1="603.9357" x2="2162.3512" y2="312.2247"/><line class="cls-245" x1="1034.2797" y1="1193.7052" x2="1204.8681" y2="1272.1991"/><line class="cls-246" x1="1756.0511" y1="1626.1465" x2="1524.5473" y2="1530.52"/><line class="cls-247" x1="2710.3218" y1="328.4691" x2="2621.9451" y2="592.4168"/><line class="cls-248" x1="1078.2132" y1="1062.071" x2="1089.7658" y2="1003.9939"/><line class="cls-249" x1="802.2835" y1="1479.3312" x2="853.3128" y2="1511.5549"/><line class="cls-250" x1="1371.5673" y1="1243.6134" x2="1204.8681" y2="1272.1991"/><line class="cls-251" x1="802.2835" y1="1479.3312" x2="711.5579" y2="1466.2013"/><line class="cls-252" x1="1034.2797" y1="1193.7052" x2="906.8361" y2="1138.2137"/><line class="cls-253" x1="1728.435" y1="964.7159" x2="1689.3664" y2="1151.1693"/><line class="cls-254" x1="2165.9223" y1="603.9357" x2="2424.1886" y2="816.0042"/><line class="cls-255" x1="1435.7667" y1="1745.018" x2="1524.5473" y2="1530.52"/><line class="cls-256" x1="1371.5673" y1="1243.6134" x2="1483.6141" y2="999.6896"/><line class="cls-257" x1="1007.7033" y1="1435.8741" x2="853.3128" y2="1511.5549"/><line class="cls-258" x1="2172.919" y1="1189.1269" x2="1955.4623" y2="1349.6977"/><line class="cls-259" x1="853.3128" y1="1511.5549" x2="888.8741" y2="1666.8373"/><line class="cls-260" x1="1689.3664" y1="1151.1693" x2="1483.6141" y2="999.6896"/><line class="cls-261" x1="2621.9451" y1="592.4168" x2="2765.445" y2="619.3933"/><line class="cls-262" x1="711.5579" y1="1466.2013" x2="888.8741" y2="1666.8373"/><line class="cls-263" x1="853.3128" y1="1511.5549" x2="711.5579" y2="1466.2013"/><line class="cls-264" x1="1501.5251" y1="905.7054" x2="1483.6141" y2="999.6896"/><line class="cls-265" x1="1007.7033" y1="1435.8741" x2="1062.3953" y2="1643.7983"/><line class="cls-266" x1="2621.9451" y1="592.4168" x2="2424.1886" y2="816.0042"/><line class="cls-267" x1="906.8361" y1="1138.2137" x2="1089.7658" y2="1003.9939"/><line class="cls-268" x1="1501.6993" y1="928.3535" x2="1501.5251" y2="905.7054"/><line class="cls-269" x1="1981.4384" y1="1280.9784" x2="1955.4623" y2="1349.6977"/><line class="cls-270" x1="711.5579" y1="1466.2013" x2="775.5618" y2="1235.4091"/><line class="cls-271" x1="1981.4384" y1="1280.9784" x2="1689.3664" y2="1151.1693"/><line class="cls-272" x1="2165.9223" y1="603.9357" x2="1971.8933" y2="542.8255"/><line class="cls-273" x1="906.8361" y1="1138.2137" x2="775.5618" y2="1235.4091"/><line class="cls-274" x1="1713.0783" y1="1032.4869" x2="1689.3664" y2="1151.1693"/><line class="cls-275" x1="2162.3512" y1="312.2247" x2="1971.8933" y2="542.8255"/><line class="cls-276" x1="1501.6993" y1="928.3535" x2="1483.6141" y2="999.6896"/><line class="cls-277" x1="1501.5251" y1="905.7054" x2="1503.9391" y2="875.8651"/><line class="cls-278" x1="1728.435" y1="964.7159" x2="1713.0783" y2="1032.4869"/><line class="cls-279" x1="2499.9498" y1="1178.3726" x2="2424.1886" y2="816.0042"/><line class="cls-280" x1="2499.9498" y1="1178.3726" x2="2172.919" y2="1189.1269"/><line class="cls-281" x1="1503.9391" y1="875.8651" x2="1483.6141" y2="999.6896"/><line class="cls-282" x1="1981.4384" y1="1280.9784" x2="2172.919" y2="1189.1269"/><line class="cls-283" x1="1501.6993" y1="928.3535" x2="1503.9391" y2="875.8651"/><line class="cls-284" x1="1713.0783" y1="1032.4869" x2="1501.6993" y2="928.3535"/><line class="cls-285" x1="1713.0783" y1="1032.4869" x2="1503.9391" y2="875.8651"/><line class="cls-286" x1="1501.6993" y1="928.3535" x2="1263.6332" y2="932.3734"/><line class="cls-287" x1="1981.4384" y1="1280.9784" x2="1713.0783" y2="1032.4869"/><line class="cls-288" x1="1372.6428" y1="679.1678" x2="1501.6993" y2="928.3535"/><line class="cls-289" x1="1263.6332" y1="932.3734" x2="1503.9391" y2="875.8651"/><line class="cls-290" x1="1253.8517" y1="717.3432" x2="1501.6993" y2="928.3535"/><line class="cls-291" x1="1372.6428" y1="679.1678" x2="1503.9391" y2="875.8651"/><line class="cls-292" x1="432.7122" y1="1515.8624" x2="255.7723" y2="1710.9955"/><line class="cls-293" x1="1253.8517" y1="717.3432" x2="1503.9391" y2="875.8651"/><line class="cls-294" x1="1372.6428" y1="679.1678" x2="1263.6332" y2="932.3734"/><line class="cls-295" x1="1253.8517" y1="717.3432" x2="1263.6332" y2="932.3734"/><line class="cls-296" x1="1253.8517" y1="717.3432" x2="1372.6428" y2="679.1678"/><line class="cls-297" x1="2904.3384" y1="274.8053" x2="2783.3042" y2="-105.4801"/><line class="cls-298" x1="1971.8933" y1="542.8255" x2="1599.9037" y2="302.9064"/><line class="cls-299" x1="2846.0143" y1="50.9124" x2="2783.3042" y2="-105.4801"/><line class="cls-300" x1="2904.3384" y1="274.8053" x2="2846.0143" y2="50.9124"/><line class="cls-301" x1="2234.241" y1="662.2323" x2="1971.8933" y2="542.8255"/><path class="cls-302" d="M2332.1313,1209.83a7.2232,7.2232,0,1,1-3.1413,9.72A7.2232,7.2232,0,0,1,2332.1313,1209.83Z"/><circle class="cls-302" cx="1518.4189" cy="775.9444" r="6.5583" transform="translate(72.219 1679.3774) rotate(-59.0608)"/><path class="cls-302" d="M1727.0159,947.0385a10.1168,10.1168,0,1,1-4.4,13.614A10.117,10.117,0,0,1,1727.0159,947.0385Z"/><path class="cls-302" d="M2687.5185,1041.1827a9.4687,9.4687,0,1,1-4.1179,12.7419A9.4688,9.4688,0,0,1,2687.5185,1041.1827Z"/><path class="cls-302" d="M2325.149,439.508a6.5734,6.5734,0,1,1-2.8587,8.8458A6.5735,6.5735,0,0,1,2325.149,439.508Z"/><circle class="cls-302" cx="1669.3178" cy="1383.076" r="6.706" transform="translate(-467.9899 1020.5337) rotate(-30.0155)"/><path class="cls-302" d="M2693.3694,676.15a7.7566,7.7566,0,1,1-3.3733,10.438A7.7565,7.7565,0,0,1,2693.3694,676.15Z"/><path class="cls-302" d="M529.144,1280.1418a.7574.7574,0,1,1-.3294,1.0192A.7574.7574,0,0,1,529.144,1280.1418Z"/><path class="cls-302" d="M1750.425,1108.4019A7.8756,7.8756,0,1,1,1747,1119,7.8758,7.8758,0,0,1,1750.425,1108.4019Z"/><path class="cls-302" d="M1458.5065,708.17a6.3659,6.3659,0,1,1-2.7685,8.5664A6.3657,6.3657,0,0,1,1458.5065,708.17Z"/><path class="cls-302" d="M2661.4612,1027.5548a7.7319,7.7319,0,1,1-3.3626,10.4048A7.732,7.732,0,0,1,2661.4612,1027.5548Z"/><path class="cls-302" d="M1158.5286,1539.311a7.0183,7.0183,0,1,1-3.0522,9.4444A7.0182,7.0182,0,0,1,1158.5286,1539.311Z"/><path class="cls-302" d="M2605.52,1263.29a6.3033,6.3033,0,1,1-2.7413,8.4823A6.3033,6.3033,0,0,1,2605.52,1263.29Z"/><path class="cls-302" d="M1577.7917,1576.9177a9.5641,9.5641,0,1,1-4.1593,12.87A9.5638,9.5638,0,0,1,1577.7917,1576.9177Z"/><circle class="cls-302" cx="2682.6258" cy="885.5978" r="10.2294"/><path class="cls-302" d="M1948.5447,340.8518a9.4972,9.4972,0,1,1-4.13,12.78A9.4972,9.4972,0,0,1,1948.5447,340.8518Z"/><path class="cls-302" d="M540.23,1464.6416a6.2417,6.2417,0,1,1-2.7145,8.3994A6.2417,6.2417,0,0,1,540.23,1464.6416Z"/><path class="cls-302" d="M1684.8038,305.1907a8.8972,8.8972,0,1,1-3.8694,11.9729A8.8971,8.8971,0,0,1,1684.8038,305.1907Z"/><path class="cls-302" d="M618.4052,1158.1513a7.299,7.299,0,1,1-3.1743,9.8222A7.2991,7.2991,0,0,1,618.4052,1158.1513Z"/><path class="cls-302" d="M745.0862,1414.8425a5.705,5.705,0,1,1-2.4811,7.6772A5.705,5.705,0,0,1,745.0862,1414.8425Z"/><path class="cls-302" d="M932.539,1483.6809a2.4214,2.4214,0,1,1-1.053,3.2584A2.4213,2.4213,0,0,1,932.539,1483.6809Z"/><path class="cls-302" d="M2075.4809,567.11a6.8914,6.8914,0,1,1-2.997,9.2736A6.8914,6.8914,0,0,1,2075.4809,567.11Z"/><path class="cls-302" d="M1930.3546,564.18a6.2873,6.2873,0,1,1-2.7343,8.4607A6.2872,6.2872,0,0,1,1930.3546,564.18Z"/><path class="cls-302" d="M629.6113,824.4874a9.4246,9.4246,0,1,1-4.0986,12.6825A9.4245,9.4245,0,0,1,629.6113,824.4874Z"/><path class="cls-302" d="M1292.3711,1547.7379a7.4658,7.4658,0,1,1-3.2468,10.0466A7.4658,7.4658,0,0,1,1292.3711,1547.7379Z"/><circle class="cls-302" cx="2471.1391" cy="35.6222" r="9.7708" transform="translate(448.8129 1456.1833) rotate(-35.9116)"/><path class="cls-302" d="M825.4271,904.5919a6.5643,6.5643,0,1,1-2.8548,8.8335A6.5643,6.5643,0,0,1,825.4271,904.5919Z"/><path class="cls-302" d="M2880.3708,1538.4218a4.2693,4.2693,0,1,1-1.8567,5.7451A4.2691,4.2691,0,0,1,2880.3708,1538.4218Z"/><circle class="cls-302" cx="2501.6126" cy="1226.5223" r="13.4795" transform="translate(-273.6596 980.9883) rotate(-21.0625)"/><path class="cls-302" d="M983.952,1068.358a9.8336,9.8336,0,1,1-4.2765,13.233A9.8337,9.8337,0,0,1,983.952,1068.358Z"/><circle class="cls-302" cx="1532.2601" cy="1528.704" r="8.8325" transform="translate(-496.5593 774.6159) rotate(-24.5439)"/><circle class="cls-302" cx="933.0092" cy="286.2333" r="5.3204"/><path class="cls-302" d="M2809.041,1070.9587a5.0591,5.0591,0,1,1-2.2,6.8079A5.0591,5.0591,0,0,1,2809.041,1070.9587Z"/><path class="cls-302" d="M327.5073,1072.704a5.15,5.15,0,1,1-2.2395,6.93A5.15,5.15,0,0,1,327.5073,1072.704Z"/><path class="cls-302" d="M1939.28,112.0938a7.5405,7.5405,0,1,1-3.2793,10.1472A7.54,7.54,0,0,1,1939.28,112.0938Z"/><circle class="cls-302" cx="1216.2825" cy="1536.8312" r="8.3441"/><path class="cls-302" d="M143.0276,1259.7773a3.1737,3.1737,0,1,1-1.38,4.2708A3.1738,3.1738,0,0,1,143.0276,1259.7773Z"/><circle class="cls-302" cx="2673.1861" cy="806.57" r="7.144" transform="translate(222.027 2143.8426) rotate(-45.4054)"/><path class="cls-302" d="M2795.1065,423.5439a12.6311,12.6311,0,1,1-5.4932,16.9975A12.631,12.631,0,0,1,2795.1065,423.5439Z"/><circle class="cls-302" cx="1828.543" cy="281.5751" r="6.7757" transform="translate(998.3094 1934.9251) rotate(-72.0905)"/><path class="cls-302" d="M2021.9721,1542.8851a4.0617,4.0617,0,1,1-1.7664,5.4658A4.0618,4.0618,0,0,1,2021.9721,1542.8851Z"/><path class="cls-302" d="M2127.7141,492.7287a6.3818,6.3818,0,1,1-2.7754,8.5879A6.3818,6.3818,0,0,1,2127.7141,492.7287Z"/><path class="cls-302" d="M789.354,587.11a4.2394,4.2394,0,1,1-1.8437,5.7049A4.2394,4.2394,0,0,1,789.354,587.11Z"/><path class="cls-302" d="M2588.0967,258.9205a3.91,3.91,0,1,1-1.7,5.2622A3.9105,3.9105,0,0,1,2588.0967,258.9205Z"/><path class="cls-302" d="M848.8286,1314.1594a4.61,4.61,0,1,1-2.0048,6.2035A4.61,4.61,0,0,1,848.8286,1314.1594Z"/><path class="cls-302" d="M707.487,1558.2777a8.081,8.081,0,1,1-3.5144,10.8745A8.081,8.081,0,0,1,707.487,1558.2777Z"/><path class="cls-302" d="M2437.38,357.8515a10.1728,10.1728,0,1,1-4.424,13.6894A10.1727,10.1727,0,0,1,2437.38,357.8515Z"/><circle class="cls-302" cx="2138.9722" cy="1469.5759" r="11.9443" transform="translate(82.8402 3052.9825) rotate(-72.0904)"/><path class="cls-302" d="M1579.6457,1183.29a7.7709,7.7709,0,1,1-3.38,10.4571A7.7708,7.7708,0,0,1,1579.6457,1183.29Z"/><path class="cls-302" d="M1493.0584,533.44a9.6923,9.6923,0,1,1-4.2151,13.0427A9.6925,9.6925,0,0,1,1493.0584,533.44Z"/><circle class="cls-302" cx="189.3473" cy="1420.2053" r="3.494"/><path class="cls-302" d="M2673.5244,1087.8773a9.72,9.72,0,1,1-4.2273,13.0807A9.72,9.72,0,0,1,2673.5244,1087.8773Z"/><circle class="cls-302" cx="1977.5321" cy="140.8202" r="8.873" transform="translate(1235.4112 1979.2217) rotate(-72.0904)"/><circle class="cls-302" cx="1743.3385" cy="1489.2431" r="8.7712" transform="translate(-409.6725 2277.6707) rotate(-60.6182)"/><circle class="cls-302" cx="1882.7627" cy="650.6555" r="6.5393" transform="translate(468.06 2053.0693) rotate(-63.8145)"/><path class="cls-302" d="M333.2568,1335.83a4.44,4.44,0,1,1-1.9311,5.9754A4.44,4.44,0,0,1,333.2568,1335.83Z"/><path class="cls-302" d="M1351.9954,891.2313a8.16,8.16,0,1,1-3.5487,10.9806A8.16,8.16,0,0,1,1351.9954,891.2313Z"/><path class="cls-302" d="M1066.0409,1539.7955a11.1121,11.1121,0,1,1-4.8327,14.9535A11.1121,11.1121,0,0,1,1066.0409,1539.7955Z"/><circle class="cls-302" cx="2338.4179" cy="85.3022" r="5.1225"/><path class="cls-302" d="M2182.9077,1363.96a8.5523,8.5523,0,1,1-3.7194,11.5087A8.5523,8.5523,0,0,1,2182.9077,1363.96Z"/><path class="cls-302" d="M1087.3376,1573.7421a6.0183,6.0183,0,1,1-2.6174,8.0988A6.0184,6.0184,0,0,1,1087.3376,1573.7421Z"/><path class="cls-302" d="M1336.4981,1085.0124a2.9885,2.9885,0,1,1-1.3,4.0216A2.9885,2.9885,0,0,1,1336.4981,1085.0124Z"/><path class="cls-302" d="M2057.3115,907.6356a8.1562,8.1562,0,1,1-3.547,10.9757A8.1562,8.1562,0,0,1,2057.3115,907.6356Z"/><path class="cls-302" d="M1252.122,1420.8721a6.2357,6.2357,0,1,1-2.7119,8.3913A6.2357,6.2357,0,0,1,1252.122,1420.8721Z"/><path class="cls-302" d="M2802.2661,1094.5162a7.0843,7.0843,0,1,1-3.0809,9.5332A7.0843,7.0843,0,0,1,2802.2661,1094.5162Z"/><path class="cls-302" d="M1772.5972,1333.5784a5.2078,5.2078,0,1,1-2.2649,7.008A5.2079,5.2079,0,0,1,1772.5972,1333.5784Z"/><path class="cls-302" d="M2699.958,1241.8792a5.4925,5.4925,0,1,1-2.3887,7.3912A5.4924,5.4924,0,0,1,2699.958,1241.8792Z"/><circle class="cls-302" cx="2745.354" cy="1360.2684" r="7.5968" transform="translate(1218.6568 4016.6747) rotate(-86.4705)"/><circle class="cls-302" cx="2246.9112" cy="86.7841" r="12.162" transform="translate(1691.9977 2265.8235) rotate(-77.9246)"/><path class="cls-302" d="M2200.9114,389.08a3.5222,3.5222,0,1,1-1.5317,4.74A3.5222,3.5222,0,0,1,2200.9114,389.08Z"/><circle class="cls-302" cx="2159.8009" cy="699.235" r="9.1882" transform="translate(-50.2924 180.4316) rotate(-4.7288)"/><path class="cls-302" d="M392.0757,1219.2112a8.8505,8.8505,0,1,1-3.849,11.91A8.8505,8.8505,0,0,1,392.0757,1219.2112Z"/><circle class="cls-302" cx="1749.903" cy="1503.9574" r="11.8276" transform="translate(132.2618 3149.3404) rotate(-86.1646)"/><path class="cls-302" d="M989.6854,1314.731a1.1883,1.1883,0,1,1-.5167,1.5991A1.1885,1.1885,0,0,1,989.6854,1314.731Z"/><path class="cls-302" d="M1314.7212,1519.6612a6.9472,6.9472,0,1,1-3.0214,9.3488A6.9472,6.9472,0,0,1,1314.7212,1519.6612Z"/><path class="cls-302" d="M1950.1966,177.1778a11.7462,11.7462,0,1,1-5.1083,15.8067A11.7462,11.7462,0,0,1,1950.1966,177.1778Z"/><path class="cls-302" d="M1769.3421,1358.0837a1.8479,1.8479,0,1,1-.8036,2.4867A1.8478,1.8478,0,0,1,1769.3421,1358.0837Z"/><path class="cls-302" d="M1320.0987,1242.9421a8.5526,8.5526,0,1,1-3.7194,11.5091A8.5524,8.5524,0,0,1,1320.0987,1242.9421Z"/><path class="cls-302" d="M2396.76,243.5571a11.3932,11.3932,0,1,1-4.9548,15.3317A11.3932,11.3932,0,0,1,2396.76,243.5571Z"/><circle class="cls-302" cx="1749.7509" cy="1097.4921" r="9.4458" transform="translate(-281.8803 725.2128) rotate(-21.7133)"/><circle class="cls-302" cx="1314.6679" cy="992.4472" r="11.0243"/><path class="cls-302" d="M2270.8329,860.3213a10.5094,10.5094,0,1,1-4.57,14.1423A10.5093,10.5093,0,0,1,2270.8329,860.3213Z"/><path class="cls-302" d="M1976.4479,828.0081a4.0134,4.0134,0,1,1-1.7454,5.4007A4.0134,4.0134,0,0,1,1976.4479,828.0081Z"/><circle class="cls-302" cx="2307.527" cy="1616.3836" r="8.6475"/><path class="cls-302" d="M1955.4163,1075.8475a8.3942,8.3942,0,1,1-3.6505,11.2959A8.3941,8.3941,0,0,1,1955.4163,1075.8475Z"/><path class="cls-302" d="M1776.8077,1419.12a4.6567,4.6567,0,1,1-2.0251,6.2664A4.6566,4.6566,0,0,1,1776.8077,1419.12Z"/><path class="cls-302" d="M2319.8533,1028.2791a8.7155,8.7155,0,1,1-3.79,11.7283A8.7154,8.7154,0,0,1,2319.8533,1028.2791Z"/><path class="cls-302" d="M2130.75,629.3169a4.3141,4.3141,0,1,1-1.8761,5.8055A4.3141,4.3141,0,0,1,2130.75,629.3169Z"/><path class="cls-302" d="M987.73,1539.967a6.9861,6.9861,0,1,1-3.0382,9.4011A6.9861,6.9861,0,0,1,987.73,1539.967Z"/><path class="cls-302" d="M2862.9418,1270.4353a11.059,11.059,0,1,1-4.8094,14.882A11.0591,11.0591,0,0,1,2862.9418,1270.4353Z"/><circle class="cls-302" cx="1847.0966" cy="967.9916" r="11.9501" transform="translate(-205.2243 598.1908) rotate(-17.443)"/><path class="cls-302" d="M486.7634,1366.4822a8.5291,8.5291,0,1,1-3.7092,11.4775A8.5292,8.5292,0,0,1,486.7634,1366.4822Z"/><path class="cls-302" d="M967.5738,827.4636a5.4486,5.4486,0,1,1-2.37,7.3321A5.4485,5.4485,0,0,1,967.5738,827.4636Z"/><path class="cls-302" d="M2808.4585-4.284a2.2872,2.2872,0,0,1,3.0777.9947,2.2871,2.2871,0,0,1-.9946,3.0777,2.2872,2.2872,0,0,1-3.0777-.9947A2.2871,2.2871,0,0,1,2808.4585-4.284Z"/><path class="cls-302" d="M2861.2839,321.539a13.29,13.29,0,1,1-5.78,17.8837A13.29,13.29,0,0,1,2861.2839,321.539Z"/><path class="cls-302" d="M9.3937,458.2763A11.3424,11.3424,0,1,1,4.4611,473.54,11.3425,11.3425,0,0,1,9.3937,458.2763Z"/><circle class="cls-302" cx="1280.2755" cy="1607.8697" r="14.2882" transform="translate(-747.2694 1271.1023) rotate(-42.0407)"/><circle class="cls-302" cx="1766.8698" cy="833.0728" r="9.3182" transform="translate(-137.5014 1268.0549) rotate(-38.1101)"/><path class="cls-302" d="M1053.6377,977.5239a8.9936,8.9936,0,1,1-3.9112,12.1025A8.9936,8.9936,0,0,1,1053.6377,977.5239Z"/><path class="cls-302" d="M2391.9246,1204.5228a4.66,4.66,0,1,1-2.0266,6.2711A4.66,4.66,0,0,1,2391.9246,1204.5228Z"/><circle class="cls-302" cx="711.2591" cy="1589.4943" r="6.7307" transform="translate(-741.7085 629.6679) rotate(-32.444)"/><circle class="cls-302" cx="336.7256" cy="1489.6699" r="6.8798"/><path class="cls-302" d="M160.0932,1239.0741a6.0436,6.0436,0,1,1-2.6283,8.1328A6.0436,6.0436,0,0,1,160.0932,1239.0741Z"/><path class="cls-302" d="M892.2728,856.2993a15.5841,15.5841,0,1,1-6.7774,20.9713A15.5841,15.5841,0,0,1,892.2728,856.2993Z"/><path class="cls-302" d="M833.9237,1090.64a8.5637,8.5637,0,1,1-3.7243,11.5241A8.5637,8.5637,0,0,1,833.9237,1090.64Z"/><path class="cls-302" d="M2240.1364,242.6619a12.4824,12.4824,0,1,1-5.4285,16.7974A12.4825,12.4825,0,0,1,2240.1364,242.6619Z"/><circle class="cls-302" cx="1091.7293" cy="623.9491" r="10.7647" transform="translate(-165.5475 602.9634) rotate(-28.7927)"/><path class="cls-302" d="M2220.8871,1453.82a5.4626,5.4626,0,1,1-2.3756,7.3509A5.4626,5.4626,0,0,1,2220.8871,1453.82Z"/></g></g></svg>