<svg id="Layer_1" data-name="Layer 1" xmlns="http://www.w3.org/2000/svg" width="1920" height="1080" viewBox="0 0 1920 1080"><defs><style>.cls-1{fill:#f4f4f4;}.cls-2{fill:#d8dcdd;}.cls-3{opacity:0.1;}.cls-4{fill:#2a4851;}.cls-5{fill:#00c9ff;}.cls-6{fill:#f9572b;}</style></defs><path class="cls-1" d="M104.256,637.2581a366.3018,366.3018,0,0,0,72.7949,138.1783c2.31-8.4251,4.3232-17.0343,4.9157-25.7628,1.4724-19.8041-.6033-39.9579-1.2047-59.4994-.7611-22.1724-.7611-23.0753-21.5377-32.0037-15.8661-6.73-32.0733-11.7376-48.07-17.7035a44.3222,44.3222,0,0,1-6.8984-3.2089ZM698.7919,811.3039c-5.9482-.7746-11.17-2.561-13.6756-6.5764-9.2765-14.37,19.44-44.83,25.0846-56.0337,11.3127-22.0955,17.8855-35.043,41.9548-42.3009,5.3861-1.551,18.0462-6.1821,27.03-6.1821a19.47,19.47,0,0,1,3.4837.2856,363.6609,363.6609,0,0,1-83.8774,110.8075Zm-236.0794-6.969c-21.9189,0-30.8813-10.5347-30.6028-36.2154.1464-20.5732,13.8059-47.2,5.0934-67.4535-5.9669-14.0058-18.81-17.1807-31.5076-18.5067-14.67-1.62-30.4619-5.4252-43.759-12.8529-26.691-14.7285-27.69-28.8394-17.1708-53.6441,5.873-14.1717,8.8946-33.4421,16.17-46.4538,2.9758-5.3075,12.9181-10.3116,21.3959-10.3116a13.8545,13.8545,0,0,1,9.2774,2.991c5.1345,4.6027,1.0565,12.4015,2.7814,18.2086,4.13,14.0647,13.987,17.675,25.5245,17.675,6.0874,0,12.6424-1.0047,19.0715-2.01s12.7325-2.0113,18.3139-2.0113a27.9516,27.9516,0,0,1,9.1238,1.2974l4.9487,1.2064c11.3343,1.2529,23.1771,5.3165,34.422,7.4491,17.7677,3.282,58.4375,5.0327,61.1663,26.9479,2.1451,17.1145-14.88,23.9264-22.9611,35.5141-13.0117,18.6207-20.8889,43.1521-30.9436,63.59-13.01,26.2322,2.1952,68.3993-37.9216,73.6748a96.33,96.33,0,0,1-12.4227.9048Zm65.2924-376.2127a20.04,20.04,0,0,0,6.2479-1.1083c11.1076-3.5844,8.24-11.7365,8.1237-23.0269,0-18.554,3.7763-35.91,3.7566-54.5464-.1124-22.4764,13.0939-33.8213,31.8948-33.8213a62.2977,62.2977,0,0,1,20.4678,3.8209c3.0358,16.7631-19.3239,26.6739-28.2987,38.016-10.1225,12.7932-3.0036,26.4019,9.5478,26.4019a22.6378,22.6378,0,0,0,11.4572-3.4532c5.1023-2.9089,8.7411-12.885,13.2419-17.1468,5.6842-5.3708,12.678-9.9787,19.2116-14.0574a134.84,134.84,0,0,1,23.7962-11.3931c17.7177-6.6834,38.3658-.9326,54.4383-6.4933l2.3593,4.889c5.6823,3.2836,9.8635,9.4834,16.2669,11.2966a17.38,17.38,0,0,0,4.2366.4791c6.471,0,13.8148-2.7322,19.7844-3.1677q1.5741-.1151,3.148-.1133a57.7067,57.7067,0,0,1,17.4091,2.96,369.0351,369.0351,0,0,1,42.385,97.5647v.0572a358.704,358.704,0,0,1,8.2252,40.5938c-5.2949,6.3685-11.782,12.7031-19.3382,20.7455-12.9154,13.7694-18.5441,33.5653-33.2976,45.18-10.4453,8.4074-20.0824,13.2509-28.0114,24.4639-10.5205,14.6962-29.789,34.4735-33.0567,52.4339-2.0541,11.5163,14.1467,78.1845-3.6228,78.1845-3.514,0-8.35-2.6-14.9211-8.7482-13.3224-12.4567-16.1725-30.1317-13.7363-46.4,1.47-10.3134,2.15-13.1259-4.551-21.9687-4.8-6.4747-10.2633-12.123-16.1812-12.123-2.6465,0-5.3842,1.13-8.1948,3.8192-13.3794,12.7529-1.2582,48.9005-28.3649,49.3877-.3266.0072-.65.0106-.9657.0106-25.7216,0-15.3013-22.8021-21.1049-36.6169-1.9095-4.4776-11.5108-12.114-15.08-15.917-9.0249-9.3409-21.36-15.2836-33.28-20.9284-26.93-12.6941-54.5257-12.1657-81.7073-21.6351-40.5164-14.177-79.3365-25.8306-85.89-72.7405-1.6445-11.3564.4693-32.1356,14.4018-32.1356a15.988,15.988,0,0,1,2.8618.27c6.4264,1.1691,8.999,10.1779,15.5316,10.1779a8.0027,8.0027,0,0,0,1.9389-.2491c6.3837-1.6765,5.9848-11.1557,8.2753-16.0473,5.0407-10.8648,14.717-19.4114,22.009-29.1572,11.14-14.8785,19.5256-43.0175,40.3217-47.6291a22.36,22.36,0,0,1,4.9292-.5844c13.449,0,18.2479,14.4537,25.5594,25.4532,4.9363,7.6284,9.1766,15.0025,17.775,15.0025Zm-354.63-119.0881A363.6767,363.6767,0,0,1,298.7134,210.83a356.2421,356.2421,0,0,1,56.403-21.1943c23.4465,9.397,42.61,24.1755,41.5167,49.3039-1.019,23.1537-12.9367,34.3862-23.873,52.9937-13.5506,23.068,5.4941,54.5292-8.7482,78.6708-6.2461,10.945-17.3563,18.2165-23.8353,29.3641-6.1348,10.4107-9.8987,21.785-13.26,33.25-2.9857,10.1732-4.7008,29.2873-14.3761,35.6506-3.9931,2.6286-11.4172,3.8056-19.5077,3.8056-12.0338,0-25.5435-2.6019-31.4515-6.8966-12.1032-8.9215-23.4749-44.8031-25.819-59.3149-3.2542-21.1861,14.7161-33.8919,13.6988-52.9239-1.3081-22.8637-30.0745-30.9615-46.06-40.5343-6.7628-4.13-13.3382-6.156-19.4746-6.156a26.11,26.11,0,0,0-10.5509,2.1853ZM456.5332,174.6909A364.2858,364.2858,0,0,0,134.202,367.4c5.7153-10.5061,11.9419-20.7382,18.5441-30.6812h0c-4.1511,22.4916,26.1045,34.0525,41.2311,45.8193,12.3156,9.6585,38.6255,26.14,34.9269,40.9341-1.9506,8.0094-5.1227,11.44-9.3282,11.44a12.6352,12.6352,0,0,1-5.7671-1.6944c-2.0219-1.0951-4.06-7.7508-6.9681-9.4239-1.6588-.9769-4.4053-1.2786-7.4034-1.2786-4.5045,0-9.5781.6809-12.3935.7744-19.7762,1.0709-29.332,22.3882-35.5683,40.6067-5.4932,15.93,4.6748,24.2334,16.9306,24.2334a30.23,30.23,0,0,0,21.0024-8.7223c7.8069-7.7766,7.7-28.5317,19.6112-28.5336a15.9128,15.9128,0,0,1,6.42,1.5945c6.661,2.9312,15.7726,11.9294,22.2854,16.5016,10.0288,7.0207,17.85,16.75,26.3492,25.1856,25.6879,25.6888-8.9909,35.9878-27.95,51.8309-11.02,9.2426-17.8313,22.4969-28.5256,32.2731-8.6376,7.8791-17.0976,9.678-28.4317,13.1778-8.062,2.4218-34.5763,7.1028-33.751,18.0765.6658,7.3436,18.5352,15.9117,24.4262,19.5094,20.3626,12.3282,43.4853,22.4167,65.5021,32.0591,17.0334,7.308,69.662,17.6161,71.6268,40.3987,2.0943,22.12-22.9565,41.13-35.8183,55.6981-11.9534,13.5221-21.4922,30.137-31.6744,45.0154-3.1526,4.7132-7.7614,13.1813-12.9287,21.7494a365.4334,365.4334,0,0,0,76.9021,47.735h.1678a361.0944,361.0944,0,0,0,152.4705,33.63,368.6415,368.6415,0,0,0,157.0053-35.5159h.1553A365.3639,365.3639,0,0,0,809.0353,444.7665V444.66A364.0694,364.0694,0,0,0,456.5332,174.6909Z"/><path class="cls-2" d="M152.7461,336.719c-6.6022,9.943-12.8288,20.1751-18.5441,30.6812q-5.3618,9.8553-10.09,20.0262l-.0768.1624A365.3382,365.3382,0,0,0,103.24,635.0666h.0742a18.0144,18.0144,0,0,0,.5282,1.9417c.1374.0839.2748.1678.4132.25a44.3222,44.3222,0,0,0,6.8984,3.2089c15.9965,5.9659,32.2037,10.9735,48.07,17.7035,20.7766,8.9284,20.7766,9.8313,21.5377,32.0037.6014,19.5415,2.6771,39.6953,1.2047,59.4994-.5925,8.7285-2.6056,17.3377-4.9157,25.7628-.042.1535-.0848.307-.1268.46a366.6735,366.6735,0,0,0,49.544,48.1832c.0276-.0465.0545-.0911.0821-.1356,5.1673-8.5681,9.7761-17.0362,12.9287-21.7494,10.1822-14.8784,19.721-31.4933,31.6744-45.0154,12.8618-14.5679,37.9126-33.5777,35.8183-55.6981-1.9648-22.7826-54.5934-33.0907-71.6268-40.3987-22.0168-9.6424-45.1395-19.7309-65.5021-32.0591-5.891-3.5977-23.76-12.1658-24.4262-19.5094-.8253-10.9737,25.689-15.6547,33.751-18.0765,11.3341-3.5,19.7941-5.2987,28.4317-13.1778,10.6943-9.7762,17.5054-23.03,28.5256-32.2731,18.9589-15.8431,53.6377-26.1421,27.95-51.8309-8.4993-8.4359-16.32-18.1649-26.3492-25.1856-6.5128-4.5722-15.6244-13.57-22.2854-16.5016a15.9128,15.9128,0,0,0-6.42-1.5945c-11.9113.0019-11.8043,20.757-19.6112,28.5336a30.23,30.23,0,0,1-21.0024,8.7223c-12.2558,0-22.4238-8.3038-16.9306-24.2334,6.2363-18.2185,15.7921-39.5358,35.5683-40.6067,2.8154-.0935,7.889-.7744,12.3935-.7744,2.9981,0,5.7446.3017,7.4034,1.2786,2.9082,1.6731,4.9462,8.3288,6.9681,9.4239a12.6352,12.6352,0,0,0,5.7671,1.6944c4.2055,0,7.3776-3.4309,9.3282-11.44,3.6986-14.7938-22.6113-31.2756-34.9269-40.9341-15.1266-11.7668-45.3822-23.3277-41.2311-45.8193Z"/><path class="cls-2" d="M355.1164,189.6353a356.2421,356.2421,0,0,0-56.403,21.1943,363.6767,363.6767,0,0,0-125.3381,98.2045,26.11,26.11,0,0,1,10.5509-2.1853c6.1364,0,12.7118,2.0265,19.4746,6.156,15.9859,9.5728,44.7523,17.6706,46.06,40.5343,1.0173,19.032-16.953,31.7378-13.6988,52.9239,2.3441,14.5118,13.7158,50.3934,25.819,59.3149,5.908,4.2947,19.4177,6.8966,31.4515,6.8966,8.0905,0,15.5146-1.177,19.5077-3.8056,9.6753-6.3633,11.39-25.4774,14.3761-35.6506,3.3612-11.4655,7.1251-22.84,13.26-33.25,6.479-11.1476,17.5892-18.4191,23.8353-29.3641,14.2423-24.1416-4.8024-55.6028,8.7482-78.6708,10.9363-18.6075,22.854-29.84,23.873-52.9937,1.093-25.1284-18.07-39.9069-41.5167-49.3039Z"/><path class="cls-2" d="M382.332,558.8969c-8.4778,0-18.42,5.0041-21.3959,10.3116-7.2758,13.0117-10.2974,32.2821-16.17,46.4538-10.52,24.8047-9.52,38.9156,17.1708,53.6441,13.2971,7.4277,29.0892,11.2325,43.759,12.8529,12.6975,1.326,25.5407,4.5009,31.5076,18.5067,8.7125,20.2537-4.947,46.88-5.0934,67.4535-.2785,25.6807,8.6839,36.2154,30.6028,36.2154a96.33,96.33,0,0,0,12.4227-.9048c40.1168-5.2755,24.9117-47.4426,37.9216-73.6748,10.0547-20.4376,17.9319-44.969,30.9436-63.59,8.0808-11.5877,25.1062-18.4,22.9611-35.5141-2.7288-21.9152-43.3986-23.6659-61.1663-26.9479-11.2449-2.1326-23.0877-6.1962-34.422-7.4491l-4.9487-1.2064a27.9516,27.9516,0,0,0-9.1238-1.2974c-5.5814,0-11.8849,1.0066-18.3139,2.0113s-12.9841,2.01-19.0715,2.01c-11.5375,0-21.394-3.61-25.5245-17.675-1.7249-5.8071,2.3531-13.6059-2.7814-18.2086a13.8545,13.8545,0,0,0-9.2774-2.991Z"/><path class="cls-2" d="M779.1856,700.2108c-8.9837,0-21.6438,4.6311-27.03,6.1821-24.0693,7.2579-30.6421,20.2054-41.9548,42.3009-5.6446,11.2039-34.3611,41.6638-25.0846,56.0337,2.5057,4.0154,7.7274,5.8018,13.6756,6.5764a363.6609,363.6609,0,0,0,83.8774-110.8075,19.47,19.47,0,0,0-3.4837-.2856Z"/><path class="cls-2" d="M578.0279,315.6193c-18.8009,0-32.0072,11.3449-31.8948,33.8213.02,18.6361-3.7566,35.9924-3.7566,54.5464.1159,11.29,2.9839,19.4425-8.1237,23.0269a20.04,20.04,0,0,1-6.2479,1.1083c-8.5984,0-12.8387-7.3741-17.775-15.0025-7.3115-11-12.11-25.4532-25.5594-25.4532a22.36,22.36,0,0,0-4.9292.5844c-20.7961,4.6116-29.1821,32.7506-40.3217,47.6291-7.292,9.7458-16.9683,18.2924-22.009,29.1572-2.2905,4.8916-1.8916,14.3708-8.2753,16.0473a8.0027,8.0027,0,0,1-1.9389.2491c-6.5326,0-9.1052-9.0088-15.5316-10.1779a15.988,15.988,0,0,0-2.8618-.27c-13.9325,0-16.0463,20.7792-14.4018,32.1356,6.5531,46.91,45.3732,58.5635,85.89,72.7405,27.1816,9.4694,54.7773,8.941,81.7073,21.6351,11.92,5.6448,24.2549,11.5875,33.28,20.9284,3.5692,3.803,13.17,11.4394,15.08,15.917,5.8036,13.8148-4.6167,36.6169,21.1049,36.6169.316,0,.6391-.0034.9657-.0106,27.1067-.4872,14.9855-36.6348,28.3649-49.3877,2.8106-2.6895,5.5483-3.8192,8.1948-3.8192,5.9179,0,11.3807,5.6483,16.1812,12.123,6.7013,8.8428,6.0214,11.6553,4.551,21.9687-2.4362,16.2686.4139,33.9436,13.7363,46.4,6.5709,6.1481,11.4071,8.7482,14.9211,8.7482,17.7695,0,1.5687-66.6682,3.6228-78.1845,3.2677-17.96,22.5362-37.7377,33.0567-52.4339,7.929-11.213,17.5661-16.0565,28.0114-24.4639,14.7535-11.6151,20.3822-31.411,33.2976-45.18,7.5562-8.0424,14.0433-14.377,19.3382-20.7455a358.704,358.704,0,0,0-8.2252-40.5938v-.0572a369.0351,369.0351,0,0,0-42.385-97.5647,57.7067,57.7067,0,0,0-17.4091-2.96q-1.574,0-3.148.1133c-5.97.4355-13.3134,3.1677-19.7844,3.1677a17.38,17.38,0,0,1-4.2366-.4791c-6.4034-1.8132-10.5846-8.013-16.2669-11.2966l-2.3593-4.889c-16.0725,5.5607-36.7206-.19-54.4383,6.4933a134.84,134.84,0,0,0-23.7962,11.3931c-6.5336,4.0787-13.5274,8.6866-19.2116,14.0574-4.5008,4.2618-8.14,14.2379-13.2419,17.1468a22.6378,22.6378,0,0,1-11.4572,3.4532c-12.5514,0-19.67-13.6087-9.5478-26.4019,8.9748-11.3421,31.3345-21.2529,28.2987-38.016a62.2977,62.2977,0,0,0-20.4678-3.8209Z"/><g class="cls-3"><path class="cls-4" d="M804.2955,512.8678a12.6519,12.6519,0,1,1,2.3468-.22A12.6255,12.6255,0,0,1,804.2955,512.8678Zm.0248-22.5a9.88,9.88,0,1,0,1.815,19.5872,9.8788,9.8788,0,0,0-1.815-19.5872Z"/><path class="cls-4" d="M727.4529,508.3635a1.3706,1.3706,0,0,1-.0945-2.7377l65.7992-4.664a1.37,1.37,0,1,1,.1927,2.734L727.5512,508.36C727.519,508.3626,727.485,508.3635,727.4529,508.3635Z"/><path class="cls-4" d="M637.2062,850.8565a12.6214,12.6214,0,1,1,9.562-4.3811A12.63,12.63,0,0,1,637.2062,850.8565Zm.0125-22.4953a9.8715,9.8715,0,1,0,6.4372,2.39A9.8891,9.8891,0,0,0,637.2187,828.3612Z"/><path class="cls-4" d="M628.6881,832.2643a1.3624,1.3624,0,0,1-1.0082-.4426l-29.8069-32.373a1.37,1.37,0,0,1,2.0166-1.8562l29.8069,32.3732a1.3707,1.3707,0,0,1-1.0084,2.2986Z"/><path class="cls-4" d="M357.5972,888.016h0a14.7811,14.7811,0,1,1,12.7492-7.2831A14.7519,14.7519,0,0,1,357.5972,888.016Zm.0276-26.8212a12.041,12.041,0,1,0,6.0909,1.6652A12.117,12.117,0,0,0,357.6248,861.1948Z"/><path class="cls-4" d="M209.2553,719.9934h0a6.4913,6.4913,0,1,1,5.5975-3.1963A6.4915,6.4915,0,0,1,209.2553,719.9934Zm.0071-10.2437a3.7492,3.7492,0,0,0-1.9077,6.9815,3.8519,3.8519,0,0,0,5.1361-1.326,3.7513,3.7513,0,0,0-3.2284-5.6555Z"/><path class="cls-4" d="M361.5428,860.1813a1.371,1.371,0,0,1-1.2679-1.8881l18.3693-45.0887a1.37,1.37,0,1,1,2.5376,1.0351l-18.3691,45.0886A1.37,1.37,0,0,1,361.5428,860.1813Z"/><path class="cls-4" d="M180.6077,743.5184a1.3706,1.3706,0,0,1-.9691-2.34l24.0148-24.0157a1.3705,1.3705,0,0,1,1.9382,1.9382l-24.015,24.0157A1.3658,1.3658,0,0,1,180.6077,743.5184Z"/><path class="cls-4" d="M287.0125,723.3272A28.0874,28.0874,0,1,1,315.08,695.2424,28.1218,28.1218,0,0,1,287.0125,723.3272Zm0-53.4336a25.3462,25.3462,0,1,0,25.3264,25.3488A25.38,25.38,0,0,0,287.0125,669.8936Z"/><path class="cls-4" d="M145.5558,679.7608a30.3369,30.3369,0,1,1,30.3316-30.3351A30.3786,30.3786,0,0,1,145.5558,679.7608Zm0-57.9326a27.5957,27.5957,0,1,0,27.59,27.5975A27.6365,27.6365,0,0,0,145.5558,621.8282Z"/><path class="cls-4" d="M572.3189,807.1386a48.865,48.865,0,1,1,48.8578-48.8613A48.932,48.932,0,0,1,572.3189,807.1386Zm0-94.9887a46.1238,46.1238,0,1,0,46.1166,46.1274A46.1917,46.1917,0,0,0,572.3189,712.15Z"/><path class="cls-4" d="M329.8284,464.8435a34.7279,34.7279,0,1,1,34.7431-34.72A34.7663,34.7663,0,0,1,329.8284,464.8435Zm0-66.7146A31.9867,31.9867,0,1,0,361.83,430.1236,32.03,32.03,0,0,0,329.8284,398.1289Z"/><path class="cls-4" d="M271.5469,583.1215a39.9913,39.9913,0,1,1,40.0069-39.9809A40.0355,40.0355,0,0,1,271.5469,583.1215Zm0-77.2413a37.25,37.25,0,1,0,37.2657,37.26A37.3014,37.3014,0,0,0,271.5469,505.88Z"/><path class="cls-4" d="M183.2436,412.6665a39.99,39.99,0,1,1,39.9872-39.9784A40.0445,40.0445,0,0,1,183.2436,412.6665Zm0-77.2388a37.2488,37.2488,0,1,0,37.246,37.26A37.3114,37.3114,0,0,0,183.2436,335.4277Z"/><path class="cls-4" d="M287.016,293.6613A31.79,31.79,0,1,1,318.8028,261.88,31.8331,31.8331,0,0,1,287.016,293.6613Zm0-60.838A29.0484,29.0484,0,1,0,316.0616,261.88,29.0969,29.0969,0,0,0,287.016,232.8233Z"/><path class="cls-4" d="M445.6863,696.7808a36.2779,36.2779,0,1,1,36.2948-36.2725A36.3095,36.3095,0,0,1,445.6863,696.7808Zm0-69.8145a33.5367,33.5367,0,1,0,33.5536,33.542A33.57,33.57,0,0,0,445.6863,626.9663Z"/><path class="cls-4" d="M622.8952,647.359a36.2788,36.2788,0,1,1,36.2957-36.2743A36.3105,36.3105,0,0,1,622.8952,647.359Zm0-69.8163a33.5376,33.5376,0,1,0,33.5545,33.542A33.5706,33.5706,0,0,0,622.8952,577.5427Z"/><path class="cls-4" d="M655.62,310.2583a31.554,31.554,0,1,1,31.57-31.5512A31.5834,31.5834,0,0,1,655.62,310.2583Zm0-60.3668a28.8128,28.8128,0,1,0,28.8289,28.8156A28.8421,28.8421,0,0,0,655.62,249.8915Z"/><path class="cls-4" d="M763.5684,453.57a31.5549,31.5549,0,1,1,31.57-31.5514A31.5835,31.5835,0,0,1,763.5684,453.57Zm0-60.3686a28.8137,28.8137,0,1,0,28.8288,28.8172A28.8425,28.8425,0,0,0,763.5684,393.2015Z"/><path class="cls-4" d="M703.17,532.63a25.642,25.642,0,1,1,25.6557-25.6371A25.6639,25.6639,0,0,1,703.17,532.63Zm0-48.5428a22.9008,22.9008,0,1,0,22.9145,22.9057A22.9245,22.9245,0,0,0,703.17,484.0872Z"/><path class="cls-4" d="M724.7064,766.4972a30.8312,30.8312,0,1,1,30.8491-30.8259A30.8581,30.8581,0,0,1,724.7064,766.4972Zm0-58.9212a28.09,28.09,0,1,0,28.1079,28.0953A28.1186,28.1186,0,0,0,724.7064,707.576Z"/><path class="cls-4" d="M394.1551,557.2443a22.281,22.281,0,1,1,22.291-22.2774A22.301,22.301,0,0,1,394.1551,557.2443Zm0-41.8208a19.54,19.54,0,1,0,19.55,19.5434A19.56,19.56,0,0,0,394.1551,515.4235Z"/><path class="cls-4" d="M485.024,899.086a22.28,22.28,0,1,1,22.29-22.2739A22.2993,22.2993,0,0,1,485.024,899.086Zm0-41.8191a19.539,19.539,0,1,0,19.5486,19.5452A19.5612,19.5612,0,0,0,485.024,857.2669Z"/><path class="cls-4" d="M556.484,242.3675a22.28,22.28,0,1,1,22.2917-22.2758A22.3,22.3,0,0,1,556.484,242.3675Zm0-41.8182a19.5385,19.5385,0,1,0,19.55,19.5424A19.56,19.56,0,0,0,556.484,200.5493Z"/><path class="cls-4" d="M362.3674,357.393a22.2793,22.2793,0,1,1,22.2909-22.274A22.2994,22.2994,0,0,1,362.3674,357.393Zm0-41.8173a19.5381,19.5381,0,1,0,19.55,19.5433A19.56,19.56,0,0,0,362.3674,315.5757Z"/><path class="cls-4" d="M506.7356,407.1724a29.4347,29.4347,0,1,1,29.4358-29.4275A29.4663,29.4663,0,0,1,506.7356,407.1724Zm0-56.1282A26.6935,26.6935,0,1,0,533.43,377.7449,26.7294,26.7294,0,0,0,506.7356,351.0442Z"/><path class="cls-4" d="M494.113,558.23a39.9913,39.9913,0,1,1,39.9936-39.9818A40.0336,40.0336,0,0,1,494.113,558.23Zm0-77.2413a37.25,37.25,0,1,0,37.2524,37.26A37.3,37.3,0,0,0,494.113,480.9882Z"/><path class="cls-4" d="M774.4653,636.2035a39.99,39.99,0,1,1,39.9917-39.9811A40.0345,40.0345,0,0,1,774.4653,636.2035Zm0-77.2388a37.2488,37.2488,0,1,0,37.25,37.2577A37.2985,37.2985,0,0,0,774.4653,558.9647Z"/><path class="cls-4" d="M640.265,445.7917a39.9908,39.9908,0,1,1,40.0131-39.98A40.0355,40.0355,0,0,1,640.265,445.7917Zm0-77.24a37.25,37.25,0,1,0,37.272,37.26A37.3023,37.3023,0,0,0,640.265,368.5513Z"/><path class="cls-4" d="M133.1313,546.7043a34.0948,34.0948,0,1,1,34.1051-34.09A34.1249,34.1249,0,0,1,133.1313,546.7043Zm0-65.4484a31.3536,31.3536,0,1,0,31.3639,31.3585A31.3857,31.3857,0,0,0,133.1313,481.2559Z"/><path class="cls-4" d="M394.1962,251.78a33.2775,33.2775,0,1,1,33.2886-33.2744A33.3069,33.3069,0,0,1,394.1962,251.78Zm0-63.8138a30.5363,30.5363,0,1,0,30.5474,30.5394A30.5655,30.5655,0,0,0,394.1962,187.9659Z"/><path class="cls-4" d="M387.0408,822.7166a33.2779,33.2779,0,1,1,33.29-33.2744A33.307,33.307,0,0,1,387.0408,822.7166Zm0-63.8147a30.5368,30.5368,0,1,0,30.5483,30.54A30.5665,30.5665,0,0,0,387.0408,758.9019Z"/><path class="cls-4" d="M269.9031,842.5973A27.9509,27.9509,0,1,1,297.8656,814.65,27.9759,27.9759,0,0,1,269.9031,842.5973Zm0-53.1605A25.21,25.21,0,1,0,295.1244,814.65,25.2354,25.2354,0,0,0,269.9031,789.4368Z"/><path class="cls-4" d="M362.0525,422.8853a1.3705,1.3705,0,0,1-.3123-2.7047l121.2081-28.4747a1.3705,1.3705,0,1,1,.6283,2.6681l-121.21,28.4745A1.3529,1.3529,0,0,1,362.0525,422.8853Z"/><path class="cls-4" d="M303.845,675.8935a1.37,1.37,0,0,1-1.14-2.129l41.4568-62.4139a1.37,1.37,0,1,1,2.2825,1.517l-41.4568,62.4137A1.3655,1.3655,0,0,1,303.845,675.8935Z"/><path class="cls-4" d="M356.9119,596.0172a1.37,1.37,0,0,1-1.1413-2.129l27.41-41.2838a1.371,1.371,0,0,1,2.2843,1.5168l-27.41,41.2839A1.3727,1.3727,0,0,1,356.9119,596.0172Z"/><path class="cls-4" d="M498.0017,481.1952c-.041,0-.0821-.0018-.1249-.0054a1.3705,1.3705,0,0,1-1.2421-1.4874l6.65-74.112a1.3449,1.3449,0,0,1,1.4883-1.2431,1.3707,1.3707,0,0,1,1.2421,1.4876l-6.65,74.112A1.3713,1.3713,0,0,1,498.0017,481.1952Z"/><path class="cls-4" d="M408.0315,520.7317a1.37,1.37,0,0,1-1.1109-2.1726l33.8294-46.876a1.371,1.371,0,0,1,2.2236,1.6044l-33.8293,46.8759A1.371,1.371,0,0,1,408.0315,520.7317Z"/><path class="cls-4" d="M450.7493,461.5554a1.3705,1.3705,0,0,1-1.111-2.1729l41.9744-58.1707a1.371,1.371,0,0,1,2.2236,1.6043L451.862,460.987A1.3708,1.3708,0,0,1,450.7493,461.5554Z"/><path class="cls-4" d="M192.7787,533.2019a1.3884,1.3884,0,0,1-.3061-.0339l-29.4142-6.7094a1.3711,1.3711,0,0,1,.61-2.6734l29.4142,6.7094a1.3708,1.3708,0,0,1-.3043,2.7073Z"/><path class="cls-4" d="M232.9739,542.3767a1.3,1.3,0,0,1-.306-.0356l-31.7931-7.2528a1.3711,1.3711,0,1,1,.61-2.6734l31.793,7.2535a1.3714,1.3714,0,0,1-.3042,2.7083Z"/><path class="cls-4" d="M283.8037,670.1025a1.3711,1.3711,0,0,1-1.3617-1.23l-9.0035-87.129a1.3708,1.3708,0,0,1,2.727-.282l9.0035,87.129a1.3715,1.3715,0,0,1-1.2226,1.5046A1.2961,1.2961,0,0,1,283.8037,670.1025Z"/><path class="cls-4" d="M260.87,691.1753h-.0286a1.3427,1.3427,0,0,1-.3766-.0536l-90.2477-25.7754a1.3782,1.3782,0,0,1-1.0457-1.3276,1.4036,1.4036,0,0,1,1.7613-1.3171L261.18,688.4768a1.3775,1.3775,0,0,1,1.0459,1.3279A1.3588,1.3588,0,0,1,260.87,691.1753Z"/><path class="cls-4" d="M619.7312,756.8852a1.37,1.37,0,0,1-.1482-2.7323l77.7919-8.5251a1.3508,1.3508,0,0,1,1.5115,1.2118,1.3684,1.3684,0,0,1-1.2118,1.5115l-77.7917,8.5253A1.1051,1.1051,0,0,1,619.7312,756.8852Z"/><path class="cls-4" d="M717.7249,488.9369a1.3707,1.3707,0,0,1-1.0493-2.2522l32.3963-38.59a1.3705,1.3705,0,0,1,2.0988,1.7631l-32.3964,38.59A1.3679,1.3679,0,0,1,717.7249,488.9369Z"/><path class="cls-4" d="M688.2857,489.1938a1.3712,1.3712,0,0,1-1.1582-.6343l-30.4206-47.7352a1.3709,1.3709,0,0,1,2.3128-1.4724l30.4208,47.7352a1.3706,1.3706,0,0,1-1.1548,2.1067Z"/><path class="cls-4" d="M480.4232,658.1758a1.3707,1.3707,0,0,1-.3677-2.6913l40.1684-11.2093a1.3709,1.3709,0,0,1,.7352,2.6414l-40.1683,11.2091A1.3778,1.3778,0,0,1,480.4232,658.1758Z"/><path class="cls-4" d="M537.7935,642.1765a1.3706,1.3706,0,0,1-.3676-2.6911l53.4978-14.9071a1.3708,1.3708,0,1,1,.7352,2.6412l-53.4978,14.9072A1.3844,1.3844,0,0,1,537.7935,642.1765Z"/><path class="cls-4" d="M657.6027,616.3155a1.37,1.37,0,0,1-.166-2.73l79.3017-9.7744a1.37,1.37,0,0,1,.3355,2.72l-79.3016,9.7744A1.3814,1.3814,0,0,1,657.6027,616.3155Z"/><path class="cls-4" d="M458.7791,629.5057a1.3691,1.3691,0,0,1-1.2973-1.8149l24.8849-72.7361a1.3714,1.3714,0,0,1,2.5948.8887L460.0748,628.58A1.3689,1.3689,0,0,1,458.7791,629.5057Z"/><path class="cls-4" d="M204.7937,342.0067a1.3705,1.3705,0,0,1-.811-2.476l69.6941-51.0654a1.3707,1.3707,0,1,1,1.62,2.2112l-69.6941,51.0653A1.369,1.369,0,0,1,204.7937,342.0067Z"/><path class="cls-4" d="M297.8906,421.9109a1.3628,1.3628,0,0,1-.4095-.0625l-82.8639-25.9753a1.3707,1.3707,0,1,1,.8193-2.6162L298.3,419.232a1.3708,1.3708,0,0,1-.41,2.6789Z"/><path class="cls-4" d="M516.4886,352.8118a1.3693,1.3693,0,0,1-1.3081-1.78l34.6663-110.6958a1.3708,1.3708,0,1,1,2.6164.819L517.7969,351.8509A1.3714,1.3714,0,0,1,516.4886,352.8118Z"/><path class="cls-4" d="M463.1106,278.43a1.3654,1.3654,0,0,1-.7943-.2544l-48.1822-34.33a1.37,1.37,0,0,1,1.59-2.2326l48.184,34.33a1.3712,1.3712,0,0,1-.7976,2.4868Z"/><path class="cls-4" d="M492.6353,354.8472a1.3692,1.3692,0,0,1-1.2867-.9L468.45,291.2047a1.37,1.37,0,1,1,2.5734-.94l22.8986,62.7421a1.37,1.37,0,0,1-1.2867,1.8408Z"/><path class="cls-4" d="M640.6344,368.55a1.3909,1.3909,0,0,1-.339-.0419,1.37,1.37,0,0,1-.99-1.6659l14.7909-58.286a1.37,1.37,0,1,1,2.6556.6747L641.96,367.5171A1.3689,1.3689,0,0,1,640.6344,368.55Z"/><path class="cls-4" d="M628.8166,266.2279a1.3593,1.3593,0,0,1-.64-.16l-57.1671-30.39a1.37,1.37,0,1,1,1.285-2.42l57.1669,30.39a1.37,1.37,0,0,1-.6443,2.58Z"/><path class="cls-4" d="M345.56,324.1115a1.3648,1.3648,0,0,1-.9443-.3775l-39.3331-37.3852a1.37,1.37,0,0,1,1.8882-1.9863l39.3332,37.3852a1.3706,1.3706,0,0,1-.944,2.3638Z"/><path class="cls-4" d="M366.1606,315.5757a1.371,1.371,0,0,1-1.3009-1.8017l21.0049-63.3711a1.3706,1.3706,0,0,1,2.6022.862L367.4616,314.636A1.3715,1.3715,0,0,1,366.1606,315.5757Z"/><path class="cls-4" d="M383.2912,518.5225a1.37,1.37,0,0,1-1.1109-.5667L341.4185,461.71a1.3707,1.3707,0,0,1,2.22-1.608l40.7618,56.2461a1.3707,1.3707,0,0,1-1.1093,2.1746Z"/><path class="cls-4" d="M415.055,537.0727a1.3707,1.3707,0,0,1-.1848-2.7286l42.2012-5.79a1.3708,1.3708,0,0,1,.3729,2.7162l-42.2011,5.79A1.498,1.498,0,0,1,415.055,537.0727Z"/><path class="cls-4" d="M736.4867,710.0549a1.37,1.37,0,0,1-1.292-1.8293l26.8229-75.5325a1.3711,1.3711,0,0,1,2.5842.9172l-26.8231,75.5325A1.3707,1.3707,0,0,1,736.4867,710.0549Z"/><path class="cls-4" d="M499.574,863.1794a1.37,1.37,0,0,1-1.0939-2.1951l47.6173-63.2882a1.3713,1.3713,0,1,1,2.1915,1.6489l-47.6173,63.2884A1.3742,1.3742,0,0,1,499.574,863.1794Z"/><path class="cls-4" d="M467.4363,866.9074a1.3634,1.3634,0,0,1-.91-.3461l-59.0034-52.4787a1.3709,1.3709,0,0,1,1.8222-2.0488l59.0015,52.4788a1.37,1.37,0,0,1-.91,2.3948Z"/><path class="cls-4" d="M296.4764,815.0873a1.3706,1.3706,0,0,1-.2767-2.7127l60.8951-12.6191a1.3707,1.3707,0,0,1,.5568,2.6842l-60.8951,12.6189A1.3529,1.3529,0,0,1,296.4764,815.0873Z"/><path class="cls-4" d="M170.8315,738.0236a1.37,1.37,0,0,1-1.3448-1.1136l-11.7454-61.6554a1.3708,1.3708,0,0,1,2.6929-.514L172.18,736.3959a1.37,1.37,0,0,1-1.09,1.6027A1.28,1.28,0,0,1,170.8315,738.0236Z"/><path class="cls-4" d="M253.2705,795.3029a1.3687,1.3687,0,0,1-.69-.1873l-72.6638-42.3689a1.37,1.37,0,1,1,1.3814-2.3664L253.962,792.749a1.37,1.37,0,0,1-.6915,2.5539Z"/><path class="cls-4" d="M168.9227,633.7353a1.3706,1.3706,0,0,1-.87-2.4307l75.4343-61.8855a1.3708,1.3708,0,1,1,1.7381,2.12L169.791,633.4247A1.3639,1.3639,0,0,1,168.9227,633.7353Z"/><path class="cls-4" d="M139.02,622.6118a1.37,1.37,0,0,1-1.3706-1.3582l-.6557-76.3641a1.37,1.37,0,0,1,1.3589-1.3832,1.3108,1.3108,0,0,1,1.3823,1.3581l.6557,76.3642a1.3711,1.3711,0,0,1-1.3589,1.3832Z"/><path class="cls-4" d="M479.0473,374.4861a1.3484,1.3484,0,0,1-.4426-.074L382.2152,341.47a1.37,1.37,0,0,1,.8869-2.5931L479.49,371.819a1.37,1.37,0,0,1-.4424,2.6671Z"/><path class="cls-4" d="M531.46,365.8271a1.371,1.371,0,0,1-.7333-2.53l102.5767-64.7364a1.3708,1.3708,0,0,1,1.4634,2.3183L532.19,365.6157A1.36,1.36,0,0,1,531.46,365.8271Z"/><path class="cls-4" d="M342.4786,398.3716A1.371,1.371,0,0,1,341.22,396.46l17.5885-40.9741a1.37,1.37,0,1,1,2.5181,1.0815l-17.5884,40.9741A1.3692,1.3692,0,0,1,342.4786,398.3716Z"/><path class="cls-4" d="M298.9149,517.2616a1.37,1.37,0,0,1-1.3384-1.67l12.91-57.7646a1.37,1.37,0,1,1,2.675.5977l-12.91,57.7649A1.3711,1.3711,0,0,1,298.9149,517.2616Z"/><path class="cls-4" d="M153.7605,488.5915a1.3988,1.3988,0,0,1-.1917-.0133,1.37,1.37,0,0,1-1.1672-1.5473l11.2672-80.5562a1.37,1.37,0,0,1,2.7145.38L155.1159,487.411A1.37,1.37,0,0,1,153.7605,488.5915Z"/><path class="cls-4" d="M257.5742,508.5177a1.3674,1.3674,0,0,1-1.144-.6147l-64.3064-97.2157a1.37,1.37,0,1,1,2.2861-1.5116l64.3064,97.2158a1.3705,1.3705,0,0,1-1.1421,2.1262Z"/><path class="cls-4" d="M274.3175,789.7991a1.2278,1.2278,0,0,1-.1962-.0142,1.3691,1.3691,0,0,1-1.1619-1.551L276.63,762.66a1.3536,1.3536,0,0,1,1.5507-1.1617,1.3687,1.3687,0,0,1,1.1619,1.5508l-3.671,25.5736A1.37,1.37,0,0,1,274.3175,789.7991Z"/><path class="cls-4" d="M280.511,746.5629a1.2079,1.2079,0,0,1-.1963-.0142,1.3708,1.3708,0,0,1-1.1626-1.5508l3.3256-23.2217a1.3707,1.3707,0,0,1,2.7136.3891l-3.3258,23.2215A1.3693,1.3693,0,0,1,280.511,746.5629Z"/><path class="cls-4" d="M733.4672,424.7153a1.3693,1.3693,0,0,1-.15-.0081l-56.2782-6.1346a1.3706,1.3706,0,0,1,.2962-2.7251l56.2782,6.1346a1.3707,1.3707,0,0,1-.1462,2.7332Z"/><path class="cls-4" d="M527.6443,500.4316a1.3831,1.3831,0,0,1-1.3848-1.3706,1.3671,1.3671,0,0,1,.6979-1.2l85.4014-65.6823a1.3707,1.3707,0,0,1,1.67,2.1738L528.48,500.148A1.3725,1.3725,0,0,1,527.6443,500.4316Z"/><path class="cls-4" d="M591.948,596.3044a1.3634,1.3634,0,0,1-.7959-.2569l-69.9235-50.057a1.37,1.37,0,1,1,1.5954-2.2271l69.9235,50.057a1.37,1.37,0,0,1-.7995,2.484Z"/><path class="cls-4" d="M589.9992,715.6014a1.3433,1.3433,0,0,1-.439-.0731,1.37,1.37,0,0,1-.86-1.7364l23.3661-69.067a1.3705,1.3705,0,0,1,2.5966.8781l-23.366,69.067A1.37,1.37,0,0,1,589.9992,715.6014Z"/><path class="cls-4" d="M418.9248,791.4071a1.37,1.37,0,0,1-.2059-2.7251l49.6562-7.6293a1.3705,1.3705,0,1,1,.4176,2.7091l-49.6581,7.6292A1.4075,1.4075,0,0,1,418.9248,791.4071Z"/><path class="cls-4" d="M483.5481,781.4577a1.3705,1.3705,0,0,1-.207-2.7251l43.72-6.7119a1.37,1.37,0,1,1,.4176,2.709l-43.72,6.7119A1.4,1.4,0,0,1,483.5481,781.4577Z"/><path class="cls-4" d="M313.6784,695.6191a1.3711,1.3711,0,0,1-.28-2.7127l99.5412-20.9284a1.4088,1.4088,0,0,1,1.6669,1.3421,1.3587,1.3587,0,0,1-1.2,1.3616L313.962,695.59A1.3911,1.3911,0,0,1,313.6784,695.6191Z"/><path class="cls-4" d="M402.3269,762.8228a1.37,1.37,0,0,1-1.2456-1.94l31.1631-68.2941a1.37,1.37,0,1,1,2.4932,1.1387l-31.1632,68.2941A1.37,1.37,0,0,1,402.3269,762.8228Z"/><path class="cls-4" d="M612.3623,734.1509a1.3706,1.3706,0,0,1-.8815-2.42l58.9748-49.5679a1.37,1.37,0,0,1,1.7631,2.0986L613.2441,733.83A1.3649,1.3649,0,0,1,612.3623,734.1509Z"/><path class="cls-4" d="M682.95,674.8031a1.37,1.37,0,0,1-.8191-2.47l65.4815-48.7115a1.37,1.37,0,0,1,1.6347,2.1986l-65.4815,48.7115A1.3528,1.3528,0,0,1,682.95,674.8031Z"/><path class="cls-4" d="M531.9988,527.1807a1.3705,1.3705,0,0,1-.1159-2.7359l70.3268-6.0206a1.37,1.37,0,0,1,.2356,2.7306l-70.3268,6.02C532.0774,527.1788,532.0381,527.1807,531.9988,527.1807Z"/><path class="cls-4" d="M618.38,519.7842a1.37,1.37,0,0,1-.1142-2.7359l61.3269-5.2468a1.37,1.37,0,1,1,.2319,2.7306l-61.3267,5.2468Q618.439,519.7842,618.38,519.7842Z"/><path class="cls-4" d="M752.1575,566.0854a1.3665,1.3665,0,0,1-.9316-.3659l-38.6193-35.8066a1.37,1.37,0,0,1,1.8633-2.01L753.0892,563.71a1.3705,1.3705,0,0,1-.9317,2.3753Z"/><path class="cls-4" d="M531.3973,735.5251a1.3674,1.3674,0,0,1-.8475-.2946l-61.5269-48.5632a1.371,1.371,0,0,1,1.699-2.1522l61.5269,48.5632a1.3707,1.3707,0,0,1-.8515,2.4468Z"/><path class="cls-4" d="M342.6643,598.828a1.3671,1.3671,0,0,1-.763-.2319l-42.4893-28.497a1.3711,1.3711,0,1,1,1.5276-2.2772l42.4893,28.497a1.3706,1.3706,0,0,1-.7646,2.5091Z"/><path class="cls-4" d="M414.2251,646.7792a1.3737,1.3737,0,0,1-.9334-.3606l-53.9868-36.1529a1.3706,1.3706,0,0,1,1.5259-2.2772l54.1573,36.2671a1.38,1.38,0,0,1-.763,2.5236Z"/><path class="cls-4" d="M351.2475,615.3144a11.8491,11.8491,0,1,1,11.8488-11.8482A11.8618,11.8618,0,0,1,351.2475,615.3144Zm0-20.9569a9.1079,9.1079,0,1,0,9.1077,9.1087A9.119,9.119,0,0,0,351.2475,594.3575Z"/><path class="cls-4" d="M529.2256,653.6356a10.2973,10.2973,0,1,1,10.2955-10.2972A10.3079,10.3079,0,0,1,529.2256,653.6356Zm0-17.8533a7.5561,7.5561,0,1,0,7.5543,7.5561A7.5638,7.5638,0,0,0,529.2256,635.7823Z"/><path class="cls-4" d="M279.0753,764.2986a10.2973,10.2973,0,1,1,10.2965-10.2937A10.3069,10.3069,0,0,1,279.0753,764.2986Zm0-17.8533a7.5561,7.5561,0,1,0,7.5553,7.56A7.5652,7.5652,0,0,0,279.0753,746.4453Z"/><path class="cls-4" d="M173.0462,757.1708a10.2982,10.2982,0,1,1,10.2963-10.2992A10.31,10.31,0,0,1,173.0462,757.1708Zm0-17.8552a7.557,7.557,0,1,0,7.5551,7.556A7.5644,7.5644,0,0,0,173.0462,739.3156Z"/><path class="cls-4" d="M283.4119,360.5233c-.1533,0-.3069-.0037-.4622-.0117a8.9717,8.9717,0,1,1,.4622.0117Zm-.0134-15.2087a6.2337,6.2337,0,0,0-.31,12.4594l.3229.0081a6.2337,6.2337,0,0,0,.31-12.4594Z"/><path class="cls-4" d="M466.4263,292.8715a8.9748,8.9748,0,1,1,8.9748-8.9739A8.9847,8.9847,0,0,1,466.4263,292.8715Zm0-15.2085a6.2337,6.2337,0,1,0,6.2336,6.2346A6.241,6.241,0,0,0,466.4263,277.663Z"/><path class="cls-4" d="M446.0708,475.139a8.9753,8.9753,0,1,1,8.9741-8.9748A8.9851,8.9851,0,0,1,446.0708,475.139Zm0-15.2093a6.2341,6.2341,0,1,0,6.2329,6.2345A6.2412,6.2412,0,0,0,446.0708,459.93Z"/><path class="cls-4" d="M475.9634,789.5528a8.9758,8.9758,0,1,1,8.9767-8.9767A8.9856,8.9856,0,0,1,475.9634,789.5528Zm0-15.21a6.2346,6.2346,0,1,0,6.2355,6.2336A6.2409,6.2409,0,0,0,475.9634,774.3425Z"/><path class="cls-4" d="M221.8584,361.428a1.3707,1.3707,0,0,1-.15-2.7331l53.802-5.9785a1.371,1.371,0,0,1,.3034,2.7251l-53.802,5.9785A1.5022,1.5022,0,0,1,221.8584,361.428Z"/><path class="cls-4" d="M291.0921,351.435a1.3706,1.3706,0,0,1-.207-2.7252l50.37-7.7533a1.3706,1.3706,0,1,1,.4176,2.7092l-50.37,7.7532A1.3917,1.3917,0,0,1,291.0921,351.435Z"/><path class="cls-4" d="M562.4035,429.6686A12.6187,12.6187,0,1,1,575.0208,417.05,12.6332,12.6332,0,0,1,562.4035,429.6686Zm0-22.4962A9.8775,9.8775,0,1,0,572.28,417.05,9.8889,9.8889,0,0,0,562.4035,407.1724Z"/><path class="cls-4" d="M552.8629,412.4764a1.367,1.367,0,0,1-.7442-.22l-24.428-15.83a1.3709,1.3709,0,1,1,1.492-2.3l24.4279,15.8305a1.3705,1.3705,0,0,1-.7477,2.5208Z"/><path class="cls-4" d="M562.4035,429.6686A12.6187,12.6187,0,1,1,575.0208,417.05,12.6332,12.6332,0,0,1,562.4035,429.6686Zm0-22.4962A9.8775,9.8775,0,1,0,572.28,417.05,9.8889,9.8889,0,0,0,562.4035,407.1724Z"/><path class="cls-4" d="M610.3887,528.9268a9.4385,9.4385,0,1,1,9.437-9.4379A9.45,9.45,0,0,1,610.3887,528.9268Zm0-16.1357a6.6973,6.6973,0,1,0,6.6958,6.6978A6.7058,6.7058,0,0,0,610.3887,512.7911Z"/><path class="cls-4" d="M573.6485,418.42a1.3705,1.3705,0,0,1-.2838-2.7109l27.9848-5.9436a1.37,1.37,0,0,1,.5711,2.68L573.9358,418.39A1.3812,1.3812,0,0,1,573.6485,418.42Z"/><path class="cls-4" d="M552.8629,412.4764a1.367,1.367,0,0,1-.7442-.22l-24.428-15.83a1.3709,1.3709,0,1,1,1.492-2.3l24.4279,15.8305a1.3705,1.3705,0,0,1-.7477,2.5208Z"/><path class="cls-4" d="M676.8374,686.9617a9.0043,9.0043,0,1,1,9.0033-9.0052A9.0181,9.0181,0,0,1,676.8374,686.9617Zm0-15.2673a6.2631,6.2631,0,1,0,6.2622,6.2621A6.2713,6.2713,0,0,0,676.8374,671.6944Z"/><path class="cls-4" d="M196.9914,538.48a5.685,5.685,0,1,1,5.6849-5.685A5.6915,5.6915,0,0,1,196.9914,538.48Zm0-8.6287a2.9438,2.9438,0,1,0,2.9437,2.9437A2.947,2.947,0,0,0,196.9914,529.8513Z"/><path class="cls-4" d="M738.0179,345.2539a12.4892,12.4892,0,1,1,8.8269-3.6558A12.4125,12.4125,0,0,1,738.0179,345.2539Zm-.0018-22.2337a9.7537,9.7537,0,1,0,6.89,2.8563A9.6937,9.6937,0,0,0,738.0161,323.02Z"/><path class="cls-4" d="M671.5442,383.4485a1.37,1.37,0,0,1-.7924-2.49l58.6124-41.4506a1.37,1.37,0,1,1,1.5813,2.2379l-58.6126,41.4506A1.3543,1.3543,0,0,1,671.5442,383.4485Z"/><path class="cls-4" d="M501.0124,195.0963a5.403,5.403,0,1,1,5.402-5.4038A5.4093,5.4093,0,0,1,501.0124,195.0963Zm0-8.0648a2.6618,2.6618,0,1,0,2.6608,2.661A2.6644,2.6644,0,0,0,501.0124,187.0315Z"/><path class="cls-4" d="M470.058,278.6267a1.3937,1.3937,0,0,1-.4461-.0741,1.37,1.37,0,0,1-.85-1.7417L497.6661,192.72a1.37,1.37,0,1,1,2.5914.8905l-28.9038,84.0908A1.3694,1.3694,0,0,1,470.058,278.6267Z"/></g><path class="cls-5" d="M802.468,511.04a12.6517,12.6517,0,1,1,2.3468-.22A12.6257,12.6257,0,0,1,802.468,511.04Zm.0248-22.5006a9.88,9.88,0,1,0,1.8151,19.5872,9.8788,9.8788,0,0,0-1.8151-19.5872Z"/><path class="cls-5" d="M725.6254,506.536a1.3706,1.3706,0,0,1-.0945-2.7377l65.7993-4.664a1.37,1.37,0,1,1,.1926,2.7341l-65.7991,4.664C725.6916,506.5351,725.6576,506.536,725.6254,506.536Z"/><path class="cls-5" d="M635.3788,849.0291a12.6214,12.6214,0,1,1,9.562-4.3812A12.63,12.63,0,0,1,635.3788,849.0291Zm.0124-22.4953a9.8712,9.8712,0,1,0,6.4372,2.39A9.8889,9.8889,0,0,0,635.3912,826.5338Z"/><path class="cls-5" d="M626.8606,830.4369a1.3624,1.3624,0,0,1-1.0082-.4426l-29.8069-32.3731a1.37,1.37,0,0,1,2.0166-1.8561l29.8069,32.3732a1.3707,1.3707,0,0,1-1.0084,2.2986Z"/><path class="cls-5" d="M355.77,886.1886h0a14.7811,14.7811,0,1,1,12.7493-7.2832A14.7523,14.7523,0,0,1,355.77,886.1886Zm.0276-26.8213a12.0411,12.0411,0,1,0,6.0909,1.6652A12.1168,12.1168,0,0,0,355.7973,859.3673Z"/><path class="cls-5" d="M207.4278,718.1659h0a6.4912,6.4912,0,1,1,5.5975-3.1962A6.4915,6.4915,0,0,1,207.4278,718.1659Zm.0072-10.2436a3.7491,3.7491,0,0,0-1.9077,6.9814,3.8518,3.8518,0,0,0,5.136-1.326,3.7512,3.7512,0,0,0-3.2283-5.6554Z"/><path class="cls-5" d="M359.7154,858.3538a1.3707,1.3707,0,0,1-1.2679-1.8881l18.3692-45.0887a1.37,1.37,0,0,1,2.5376,1.0351l-18.369,45.0887A1.37,1.37,0,0,1,359.7154,858.3538Z"/><path class="cls-5" d="M178.78,741.6909a1.3705,1.3705,0,0,1-.9691-2.34l24.0148-24.0158a1.3705,1.3705,0,1,1,1.9382,1.9382L179.7492,741.29A1.3665,1.3665,0,0,1,178.78,741.6909Z"/><path class="cls-6" d="M285.1851,698.0032A12.015,12.015,0,1,1,297.18,685.9873,12.0194,12.0194,0,0,1,285.1851,698.0032Z"/><path class="cls-6" d="M274.7422,699.8789h2.4351l-.0186.0036,8.0264,8,7.9887-8v-.0036h2.4415a10.2116,10.2116,0,0,1,10.2125,10.208l-12.0963,8.6287L279.3608,720.47l-14.8392-10.3831A10.2121,10.2121,0,0,1,274.7422,699.8789Z"/><path class="cls-5" d="M285.1851,721.5a28.0874,28.0874,0,1,1,28.0675-28.0847A28.1217,28.1217,0,0,1,285.1851,721.5Zm0-53.4336a25.3462,25.3462,0,1,0,25.3263,25.3489A25.38,25.38,0,0,0,285.1851,668.0661Z"/><path class="cls-4" d="M143.7283,652.5755a13.03,13.03,0,1,1,13.025-13.0206A13.025,13.025,0,0,1,143.7283,652.5755Z"/><path class="cls-4" d="M132.4,654.5958h2.6376l-.0053.016,8.6965,8.68,8.6786-8.68-.0142-.016h2.6448a11.0921,11.0921,0,0,1,11.0763,11.0808l-15.9956,11.27-15.6832-1.9079-13.1144-9.362A11.09,11.09,0,0,1,132.4,654.5958Z"/><path class="cls-5" d="M143.7283,677.9333A30.3369,30.3369,0,1,1,174.06,647.5982,30.3787,30.3787,0,0,1,143.7283,677.9333Zm0-57.9326a27.5957,27.5957,0,1,0,27.59,27.5975A27.6365,27.6365,0,0,0,143.7283,620.0007Z"/><path class="cls-4" d="M570.4914,764.6144a21.3637,21.3637,0,1,1,21.3639-21.3529A21.357,21.357,0,0,1,570.4914,764.6144Z"/><path class="cls-4" d="M551.9188,767.9214h4.3241l-.0106.0285,14.2591,14.2306L584.7257,767.95l-.0232-.0285h4.3383a18.1891,18.1891,0,0,1,18.16,18.1711l-15.6458,13.3258-21.112,5.2485-22.7881-5.7357-13.9022-12.8386A18.189,18.189,0,0,1,551.9188,767.9214Z"/><path class="cls-5" d="M570.4914,805.3111A48.8649,48.8649,0,1,1,619.3492,756.45,48.9319,48.9319,0,0,1,570.4914,805.3111Zm0-94.9887A46.1238,46.1238,0,1,0,616.608,756.45,46.1916,46.1916,0,0,0,570.4914,710.3224Z"/><path class="cls-4" d="M328.0009,434.02a14.9989,14.9989,0,1,1,15.0086-14.989A14.9829,14.9829,0,0,1,328.0009,434.02Z"/><path class="cls-4" d="M314.9838,436.3779h3.0169l10,9.9823,10.0063-9.9823h3.03a12.7506,12.7506,0,0,1,12.7646,12.7529l-11.9052,10.2473L329.62,461.8008,315.8449,460.55l-13.6265-11.4189A12.7445,12.7445,0,0,1,314.9838,436.3779Z"/><path class="cls-5" d="M328.0009,463.0161a34.728,34.728,0,1,1,34.7431-34.72A34.7664,34.7664,0,0,1,328.0009,463.0161Zm0-66.7147a31.9868,31.9868,0,1,0,32.0019,31.9948A32.03,32.03,0,0,0,328.0009,396.3014Z"/><path class="cls-4" d="M254.6482,550.67h3.4943l11.577,11.5554L281.3024,550.67h3.5113a14.7607,14.7607,0,0,1,14.7768,14.7642l-17.7214,13.22h-26.433l-15.5663-13.22A14.7519,14.7519,0,0,1,254.6482,550.67Z"/><path class="cls-4" d="M269.72,547.9411a17.3663,17.3663,0,1,1,17.3769-17.3564A17.3516,17.3516,0,0,1,269.72,547.9411Z"/><path class="cls-5" d="M269.72,581.2941a39.9913,39.9913,0,1,1,40.0069-39.981A40.0355,40.0355,0,0,1,269.72,581.2941Zm0-77.2414a37.25,37.25,0,1,0,37.2657,37.26A37.3015,37.3015,0,0,0,269.72,504.0527Z"/><path class="cls-6" d="M181.4162,377.4879a17.3663,17.3663,0,1,0-17.39-17.3574A17.3486,17.3486,0,0,0,181.4162,377.4879Z"/><path class="cls-6" d="M196.4748,380.2149h-3.5095l-11.5707,11.5572-11.5768-11.5572h-3.5087a14.762,14.762,0,0,0-14.78,14.7667L165.38,406.7325l13.1606,3.6129,12.7058-2.145,10.8209-4.2768,9.1936-8.942A14.7563,14.7563,0,0,0,196.4748,380.2149Z"/><path class="cls-5" d="M181.4162,410.839a39.99,39.99,0,1,1,39.9871-39.9784A40.0444,40.0444,0,0,1,181.4162,410.839Zm0-77.2388a37.2488,37.2488,0,1,0,37.2459,37.26A37.3114,37.3114,0,0,0,181.4162,333.6Z"/><path class="cls-4" d="M285.1885,265.2723a13.6783,13.6783,0,1,0-13.6969-13.6712A13.6646,13.6646,0,0,0,285.1885,265.2723Z"/><path class="cls-4" d="M297.0491,267.422h-2.7635l-9.1131,9.1014-9.1185-9.1014H273.29a11.6253,11.6253,0,0,0-11.642,11.63l12.51,9.3443,19.8539,1.8605,14.6849-11.2048A11.6227,11.6227,0,0,0,297.0491,267.422Z"/><path class="cls-5" d="M285.1885,291.8339a31.79,31.79,0,1,1,31.7868-31.7817A31.8332,31.8332,0,0,1,285.1885,291.8339Zm0-60.8381a29.0485,29.0485,0,1,0,29.0456,29.0564A29.097,29.097,0,0,0,285.1885,230.9958Z"/><path class="cls-6" d="M443.8588,664.6808a15.7021,15.7021,0,1,0-15.6949-15.6959A15.7069,15.7069,0,0,0,443.8588,664.6808Z"/><path class="cls-6" d="M457.5121,667.1131h-3.1775l.0124.02-10.4882,10.4614L433.416,667.1329v-.02h-3.1873a13.3759,13.3759,0,0,0-13.3561,13.3544l15.7636,12.0319h23.2484l14.9782-12.0319A13.3678,13.3678,0,0,0,457.5121,667.1131Z"/><path class="cls-5" d="M443.8588,694.9533a36.2779,36.2779,0,1,1,36.2948-36.2724A36.3095,36.3095,0,0,1,443.8588,694.9533Zm0-69.8145a33.5367,33.5367,0,1,0,33.5536,33.5421A33.57,33.57,0,0,0,443.8588,625.1388Z"/><path class="cls-4" d="M621.0678,615.2555a15.6994,15.6994,0,1,0-15.6959-15.6922A15.7061,15.7061,0,0,0,621.0678,615.2555Z"/><path class="cls-4" d="M634.72,617.69h-3.1749l.0125.02-10.49,10.46-10.4419-10.46v-.02H607.44a13.3774,13.3774,0,0,0-13.3561,13.3562l16.1543,11.8516,22.7005.6336,15.1319-12.4852A13.3671,13.3671,0,0,0,634.72,617.69Z"/><path class="cls-5" d="M621.0678,645.5316a36.2788,36.2788,0,1,1,36.2957-36.2743A36.3106,36.3106,0,0,1,621.0678,645.5316Zm0-69.8164a33.5376,33.5376,0,1,0,33.5545,33.5421A33.5708,33.5708,0,0,0,621.0678,575.7152Z"/><path class="cls-4" d="M653.7924,282.07A13.577,13.577,0,1,0,640.22,268.498,13.5812,13.5812,0,0,0,653.7924,282.07Z"/><path class="cls-4" d="M665.5942,284.1724H662.85l.0106.017-9.0677,9.0454-9.032-9.0454v-.017H642.005a11.5649,11.5649,0,0,0-11.5465,11.5492l16.6845,11.7411,16.3275-1.9854,13.6721-9.7557A11.5583,11.5583,0,0,0,665.5942,284.1724Z"/><path class="cls-5" d="M653.7924,308.4309a31.554,31.554,0,1,1,31.57-31.5513A31.5835,31.5835,0,0,1,653.7924,308.4309Zm0-60.3668A28.8128,28.8128,0,1,0,682.6213,276.88,28.8421,28.8421,0,0,0,653.7924,248.0641Z"/><path class="cls-4" d="M761.7409,425.38a13.577,13.577,0,1,0-13.572-13.5722A13.5837,13.5837,0,0,0,761.7409,425.38Z"/><path class="cls-4" d="M773.5445,427.4824H770.798l.0108.017-9.0679,9.0445-9.0318-9.0445v-.017h-2.7538a11.5658,11.5658,0,0,0-11.5483,11.5492l16.6845,11.7419,16.3293-1.9862,13.67-9.7557A11.5586,11.5586,0,0,0,773.5445,427.4824Z"/><path class="cls-5" d="M761.7409,451.7427a31.5549,31.5549,0,1,1,31.57-31.5515A31.5835,31.5835,0,0,1,761.7409,451.7427Zm0-60.3687A28.8138,28.8138,0,1,0,790.57,420.1912,28.8424,28.8424,0,0,0,761.7409,391.374Z"/><path class="cls-4" d="M701.3421,509.3361a10.9179,10.9179,0,1,0-10.9112-10.913A10.9236,10.9236,0,0,0,701.3421,509.3361Z"/><path class="cls-4" d="M710.8345,511.027h-2.2094l.009.0143-7.292,7.2733-7.26-7.2733v-.0143h-2.2183a9.301,9.301,0,0,0-9.2872,9.2863l13.4187,9.4415,13.13-1.5954,10.9933-7.8461A9.2945,9.2945,0,0,0,710.8345,511.027Z"/><path class="cls-5" d="M701.3421,530.8025a25.642,25.642,0,1,1,25.6557-25.637A25.6639,25.6639,0,0,1,701.3421,530.8025Zm0-48.5428a22.9008,22.9008,0,1,0,22.9145,22.9058A22.9244,22.9244,0,0,0,701.3421,482.26Z"/><path class="cls-4" d="M722.8789,738.9086a13.2526,13.2526,0,1,0-13.2454-13.2472A13.26,13.26,0,0,0,722.8789,738.9086Z"/><path class="cls-4" d="M734.4005,740.9629h-2.6823l.0108.0142-8.85,8.8267-8.8142-8.8267v-.0142h-2.6913a11.2847,11.2847,0,0,0-11.2715,11.2663L716.39,763.6919l15.9314-1.9382,13.349-9.5245A11.2774,11.2774,0,0,0,734.4005,740.9629Z"/><path class="cls-5" d="M722.8789,764.67a30.8313,30.8313,0,1,1,30.8492-30.826A30.8581,30.8581,0,0,1,722.8789,764.67Zm0-58.9213a28.09,28.09,0,1,0,28.108,28.0953A28.1186,28.1186,0,0,0,722.8789,705.7485Z"/><path class="cls-6" d="M392.3276,536.7328a9.4055,9.4055,0,1,0-9.4013-9.4A9.4113,9.4113,0,0,0,392.3276,536.7328Z"/><path class="cls-6" d="M400.505,538.1909h-1.9026l.0071.0115-6.2819,6.2658-6.2577-6.2658v-.0115h-1.91a8.0119,8.0119,0,0,0-8.0014,7.9977l11.5618,8.1378,11.309-1.3758,9.4738-6.762A8.0068,8.0068,0,0,0,400.505,538.1909Z"/><path class="cls-5" d="M392.3276,555.4169a22.281,22.281,0,1,1,22.291-22.2775A22.301,22.301,0,0,1,392.3276,555.4169Zm0-41.8208a19.54,19.54,0,1,0,19.55,19.5433A19.56,19.56,0,0,0,392.3276,513.5961Z"/><path class="cls-6" d="M483.1965,878.5754a9.405,9.405,0,1,0-9.4015-9.4A9.4123,9.4123,0,0,0,483.1965,878.5754Z"/><path class="cls-6" d="M491.3736,880.0352h-1.9023l.0087.0124-6.2835,6.266-6.2587-6.266v-.0124h-1.91a8.0109,8.0109,0,0,0-8.0022,7.9951l11.5627,8.1362,11.3108-1.3742,9.4728-6.762A8.0066,8.0066,0,0,0,491.3736,880.0352Z"/><path class="cls-5" d="M483.1965,897.2586a22.28,22.28,0,1,1,22.29-22.274A22.2994,22.2994,0,0,1,483.1965,897.2586Zm0-41.8192a19.539,19.539,0,1,0,19.5487,19.5452A19.5612,19.5612,0,0,0,483.1965,855.4394Z"/><path class="cls-4" d="M554.6565,221.8578a9.406,9.406,0,1,0-9.4013-9.4025A9.4119,9.4119,0,0,0,554.6565,221.8578Z"/><path class="cls-4" d="M562.8318,223.3157h-1.9005l.0089.0117-6.2837,6.2667L548.4,223.3274v-.0117h-1.91a8.0116,8.0116,0,0,0-8,7.997l11.5591,8.136,11.311-1.375,9.4763-6.761A8.0112,8.0112,0,0,0,562.8318,223.3157Z"/><path class="cls-5" d="M554.6565,240.54a22.28,22.28,0,1,1,22.2917-22.2758A22.3,22.3,0,0,1,554.6565,240.54Zm0-41.8183a19.5386,19.5386,0,1,0,19.55,19.5425A19.56,19.56,0,0,0,554.6565,198.7218Z"/><path class="cls-4" d="M360.54,336.8849a9.4059,9.4059,0,1,0-9.4013-9.4023A9.4132,9.4132,0,0,0,360.54,336.8849Z"/><path class="cls-4" d="M368.7152,338.343h-1.9l.0089.0116L360.54,344.62l-6.2577-6.2658v-.0116h-1.91a8.01,8.01,0,0,0-8.0013,7.9959l11.56,8.1371L367.2439,353.1l9.4729-6.7612A8.0064,8.0064,0,0,0,368.7152,338.343Z"/><path class="cls-5" d="M360.54,355.5656a22.2793,22.2793,0,1,1,22.291-22.274A22.2994,22.2994,0,0,1,360.54,355.5656Zm0-41.8174a19.5381,19.5381,0,1,0,19.55,19.5434A19.56,19.56,0,0,0,360.54,313.7482Z"/><path class="cls-4" d="M504.9082,380.734a12.62,12.62,0,1,0-12.6227-12.6118A12.6223,12.6223,0,0,0,504.9082,380.734Z"/><path class="cls-4" d="M515.8623,382.7177H513.305l-8.3968,8.3957-8.4217-8.3957H493.931a10.719,10.719,0,0,0-10.7255,10.73l11.5374,8.618,18.421,1.499,13.4453-10.117A10.735,10.735,0,0,0,515.8623,382.7177Z"/><path class="cls-5" d="M504.9082,405.345a29.4347,29.4347,0,1,1,29.4357-29.4276A29.4664,29.4664,0,0,1,504.9082,405.345Zm0-56.1282a26.6935,26.6935,0,1,0,26.6946,26.7006A26.7293,26.7293,0,0,0,504.9082,349.2168Z"/><path class="cls-4" d="M492.2855,523.0473A17.3662,17.3662,0,1,0,474.9139,505.69,17.3687,17.3687,0,0,0,492.2855,523.0473Z"/><path class="cls-4" d="M507.3621,525.7761h-3.5212l-11.5554,11.5563L480.7,525.7761h-3.514a14.7533,14.7533,0,0,0-14.7642,14.766l16.8755,13.2206h26.27l16.5845-13.2206A14.7758,14.7758,0,0,0,507.3621,525.7761Z"/><path class="cls-5" d="M492.2855,556.4021A39.9913,39.9913,0,1,1,532.2791,516.42,40.0336,40.0336,0,0,1,492.2855,556.4021Zm0-77.2414a37.25,37.25,0,1,0,37.2524,37.26A37.2992,37.2992,0,0,0,492.2855,479.1607Z"/><path class="cls-6" d="M772.6379,601.0231a17.3653,17.3653,0,1,0-17.3715-17.3537A17.3673,17.3673,0,0,0,772.6379,601.0231Z"/><path class="cls-6" d="M787.7127,603.7517H784.188l-11.55,11.5556L761.054,603.7517h-3.5175a14.76,14.76,0,0,0-14.7679,14.766l14.4894,11.9909,22.16,2.5074,12.9563-5.1629L802.5,618.5177A14.7731,14.7731,0,0,0,787.7127,603.7517Z"/><path class="cls-5" d="M772.6379,634.376A39.99,39.99,0,1,1,812.63,594.3949,40.0344,40.0344,0,0,1,772.6379,634.376Zm0-77.2387a37.2488,37.2488,0,1,0,37.2505,37.2576A37.2985,37.2985,0,0,0,772.6379,557.1373Z"/><path class="cls-6" d="M638.4376,410.6115a17.3653,17.3653,0,1,1,17.3751-17.3555A17.3544,17.3544,0,0,1,638.4376,410.6115Z"/><path class="cls-6" d="M623.3521,413.34h3.5085l11.577,11.5556L650.0162,413.34h3.5069a14.7564,14.7564,0,0,1,14.7731,14.766l-16.0474,13.0724-25.9914.4881-17.698-13.56A14.78,14.78,0,0,1,623.3521,413.34Z"/><path class="cls-5" d="M638.4376,443.9643a39.9909,39.9909,0,1,1,40.0131-39.98A40.0355,40.0355,0,0,1,638.4376,443.9643Zm0-77.24a37.25,37.25,0,1,0,37.2719,37.26A37.3023,37.3023,0,0,0,638.4376,366.7238Z"/><path class="cls-4" d="M131.3038,516.41a14.7157,14.7157,0,1,0-14.7143-14.716A14.7247,14.7247,0,0,0,131.3038,516.41Z"/><path class="cls-4" d="M144.096,518.6974h-2.9733l.0046.0134-9.8235,9.7993-9.795-9.7993v-.0134h-2.9883a12.5362,12.5362,0,0,0-12.5157,12.5218l6.9511,6.1766,11.1353,6.5478,17.6964-2.1612,14.8212-10.5632A12.5223,12.5223,0,0,0,144.096,518.6974Z"/><path class="cls-5" d="M131.3038,544.8768a34.0948,34.0948,0,1,1,34.1051-34.09A34.1249,34.1249,0,0,1,131.3038,544.8768Zm0-65.4483a31.3536,31.3536,0,1,0,31.3639,31.3584A31.3856,31.3856,0,0,0,131.3038,479.4285Z"/><path class="cls-6" d="M392.3687,222.162a14.348,14.348,0,1,0-14.3457-14.3493A14.3574,14.3574,0,0,0,392.3687,222.162Z"/><path class="cls-6" d="M404.8452,224.3937h-2.9009l.0043.01-9.58,9.5558-9.5468-9.5558v-.01h-2.9151a12.2208,12.2208,0,0,0-12.2034,12.2076l14.8784,11.0344,20.011-.7352,14.4512-10.2992A12.21,12.21,0,0,0,404.8452,224.3937Z"/><path class="cls-5" d="M392.3687,249.9522a33.2775,33.2775,0,1,1,33.2887-33.2744A33.3068,33.3068,0,0,1,392.3687,249.9522Zm0-63.8137a30.5363,30.5363,0,1,0,30.5475,30.5393A30.5654,30.5654,0,0,0,392.3687,186.1385Z"/><path class="cls-4" d="M385.2133,793.0972a14.3467,14.3467,0,1,0-14.3457-14.3432A14.3546,14.3546,0,0,0,385.2133,793.0972Z"/><path class="cls-4" d="M397.69,795.33h-2.8991l.0027.0106-9.58,9.5585-9.5468-9.5585V795.33h-2.9144a12.224,12.224,0,0,0-12.2041,12.2085L375.75,818.86l19.6888-1.0224,14.451-10.2992A12.2116,12.2116,0,0,0,397.69,795.33Z"/><path class="cls-5" d="M385.2133,820.8891a33.2779,33.2779,0,1,1,33.29-33.2743A33.3069,33.3069,0,0,1,385.2133,820.8891Zm0-63.8146a30.5367,30.5367,0,1,0,30.5484,30.54A30.5664,30.5664,0,0,0,385.2133,757.0745Z"/><path class="cls-4" d="M268.0757,817.3877a11.9517,11.9517,0,1,0-11.95-11.9463A11.9581,11.9581,0,0,0,268.0757,817.3877Z"/><path class="cls-4" d="M278.4686,819.2472H276.054l.0044.0126-7.9827,7.9576-7.955-7.9576v-.0126h-2.427a10.184,10.184,0,0,0-10.1661,10.1707l14.69,10.3364,14.376-1.7525,12.04-8.5839A10.1753,10.1753,0,0,0,278.4686,819.2472Z"/><path class="cls-5" d="M268.0757,840.77a27.9509,27.9509,0,1,1,27.9624-27.9474A27.9758,27.9758,0,0,1,268.0757,840.77Zm0-53.1606a25.21,25.21,0,1,0,25.2213,25.2132A25.2354,25.2354,0,0,0,268.0757,787.6093Z"/><path class="cls-5" d="M360.2251,421.0578a1.37,1.37,0,0,1-.3124-2.7046l121.2082-28.4747a1.37,1.37,0,1,1,.6283,2.668l-121.21,28.4746A1.3573,1.3573,0,0,1,360.2251,421.0578Z"/><path class="cls-5" d="M302.0176,674.0661a1.37,1.37,0,0,1-1.14-2.129l41.4567-62.4139a1.37,1.37,0,1,1,2.2825,1.5169L303.16,673.4539A1.3657,1.3657,0,0,1,302.0176,674.0661Z"/><path class="cls-5" d="M355.0844,594.19a1.37,1.37,0,0,1-1.1412-2.129l27.41-41.2837a1.371,1.371,0,1,1,2.2843,1.5168l-27.41,41.2839A1.3729,1.3729,0,0,1,355.0844,594.19Z"/><path class="cls-5" d="M496.1742,479.3678c-.0409,0-.0821-.0018-.1248-.0055a1.3705,1.3705,0,0,1-1.2421-1.4874l6.6495-74.112a1.3448,1.3448,0,0,1,1.4883-1.243,1.3706,1.3706,0,0,1,1.2421,1.4875l-6.65,74.112A1.3715,1.3715,0,0,1,496.1742,479.3678Z"/><path class="cls-5" d="M406.2041,518.9043a1.37,1.37,0,0,1-1.1109-2.1727l33.8293-46.8759a1.371,1.371,0,0,1,2.2237,1.6043l-33.8294,46.8759A1.3708,1.3708,0,0,1,406.2041,518.9043Z"/><path class="cls-5" d="M448.9218,459.7279a1.37,1.37,0,0,1-1.1109-2.1728l41.9743-58.1708a1.371,1.371,0,0,1,2.2237,1.6044L450.0345,459.16A1.371,1.371,0,0,1,448.9218,459.7279Z"/><path class="cls-5" d="M190.9513,531.3745a1.3873,1.3873,0,0,1-.3061-.034l-29.4142-6.7093a1.3711,1.3711,0,0,1,.61-2.6734l29.4143,6.7093a1.3709,1.3709,0,0,1-.3043,2.7074Z"/><path class="cls-5" d="M231.1464,540.5483a1.3855,1.3855,0,0,1-.3059-.034l-31.7932-7.2535a1.3711,1.3711,0,1,1,.61-2.6734l31.793,7.2535a1.3709,1.3709,0,0,1-.3043,2.7074Z"/><path class="cls-5" d="M281.9762,668.275a1.371,1.371,0,0,1-1.3616-1.23l-9.0035-87.129a1.3707,1.3707,0,1,1,2.7269-.2819l9.0035,87.1289a1.3715,1.3715,0,0,1-1.2225,1.5046A1.2967,1.2967,0,0,1,281.9762,668.275Z"/><path class="cls-5" d="M259.042,689.3478h-.0285a1.3464,1.3464,0,0,1-.3767-.0535l-90.2477-25.7754a1.3782,1.3782,0,0,1-1.0456-1.3277,1.4035,1.4035,0,0,1,1.7613-1.317l90.2477,25.7752a1.3773,1.3773,0,0,1,1.0458,1.3278A1.3587,1.3587,0,0,1,259.042,689.3478Z"/><path class="cls-5" d="M617.9037,755.0577a1.37,1.37,0,0,1-.1482-2.7322l77.792-8.5251a1.3508,1.3508,0,0,1,1.5115,1.2118,1.3686,1.3686,0,0,1-1.2118,1.5115l-77.7918,8.5252A1.09,1.09,0,0,1,617.9037,755.0577Z"/><path class="cls-5" d="M715.8975,487.1094a1.3705,1.3705,0,0,1-1.0493-2.2521l32.3962-38.59a1.3706,1.3706,0,0,1,2.0989,1.7631l-32.3965,38.59A1.3677,1.3677,0,0,1,715.8975,487.1094Z"/><path class="cls-5" d="M686.4582,487.3664a1.3714,1.3714,0,0,1-1.1582-.6343l-30.4206-47.7352a1.3709,1.3709,0,0,1,2.3128-1.4724L687.613,485.26a1.3706,1.3706,0,0,1-1.1548,2.1067Z"/><path class="cls-5" d="M478.5957,656.3483a1.3707,1.3707,0,0,1-.3677-2.6913l40.1684-11.2093a1.3709,1.3709,0,0,1,.7352,2.6414l-40.1682,11.2091A1.3791,1.3791,0,0,1,478.5957,656.3483Z"/><path class="cls-5" d="M535.966,640.3491a1.3706,1.3706,0,0,1-.3675-2.6911l53.4977-14.9071a1.3708,1.3708,0,1,1,.7352,2.6412l-53.4977,14.9071A1.3858,1.3858,0,0,1,535.966,640.3491Z"/><path class="cls-5" d="M655.7752,614.488a1.37,1.37,0,0,1-.1659-2.73l79.3016-9.7743a1.37,1.37,0,0,1,.3355,2.72l-79.3016,9.7743A1.3814,1.3814,0,0,1,655.7752,614.488Z"/><path class="cls-5" d="M456.9509,627.6782a1.3691,1.3691,0,0,1-1.2966-1.8148l24.8849-72.7361a1.3714,1.3714,0,1,1,2.5948.8887l-24.8867,72.7361A1.369,1.369,0,0,1,456.9509,627.6782Z"/><path class="cls-5" d="M202.9663,340.1793a1.37,1.37,0,0,1-.811-2.476l69.6941-51.0654a1.3707,1.3707,0,0,1,1.62,2.2112l-69.6941,51.0652A1.37,1.37,0,0,1,202.9663,340.1793Z"/><path class="cls-5" d="M296.0632,420.0834a1.3592,1.3592,0,0,1-.4095-.0625L212.79,394.0456a1.3707,1.3707,0,1,1,.8192-2.6162l82.8637,25.9751a1.3707,1.3707,0,0,1-.4095,2.6789Z"/><path class="cls-5" d="M514.6611,350.9843a1.3691,1.3691,0,0,1-1.3081-1.78l34.6664-110.6959a1.3708,1.3708,0,1,1,2.6163.8191l-34.6663,110.696A1.3712,1.3712,0,0,1,514.6611,350.9843Z"/><path class="cls-5" d="M461.2831,276.602a1.3644,1.3644,0,0,1-.7942-.2544l-48.1822-34.33a1.37,1.37,0,1,1,1.59-2.2326l48.1841,34.33a1.3712,1.3712,0,0,1-.7977,2.4868Z"/><path class="cls-5" d="M490.8079,353.02a1.369,1.369,0,0,1-1.2867-.9l-22.8986-62.7421a1.37,1.37,0,1,1,2.5734-.94l22.8986,62.7421a1.37,1.37,0,0,1-1.2867,1.8408Z"/><path class="cls-5" d="M638.8069,366.7229a1.3907,1.3907,0,0,1-.339-.0418,1.37,1.37,0,0,1-.99-1.6659l14.7909-58.2861a1.37,1.37,0,1,1,2.6557.6747L640.1329,365.69A1.369,1.369,0,0,1,638.8069,366.7229Z"/><path class="cls-5" d="M626.9891,264.4a1.36,1.36,0,0,1-.64-.16l-57.1671-30.3895a1.37,1.37,0,1,1,1.2851-2.42l57.1669,30.39a1.37,1.37,0,0,1-.6444,2.58Z"/><path class="cls-5" d="M343.7324,322.2841a1.3641,1.3641,0,0,1-.9442-.3776l-39.3331-37.3852a1.37,1.37,0,0,1,1.8881-1.9863L344.6765,319.92a1.3707,1.3707,0,0,1-.9441,2.3638Z"/><path class="cls-5" d="M364.3332,313.7482a1.3708,1.3708,0,0,1-1.301-1.8017l21.005-63.3711a1.3706,1.3706,0,1,1,2.6021.862l-21.0052,63.3711A1.3713,1.3713,0,0,1,364.3332,313.7482Z"/><path class="cls-5" d="M381.4638,516.6951a1.37,1.37,0,0,1-1.111-.5667L339.591,459.8823a1.3706,1.3706,0,0,1,2.22-1.6079L382.573,514.52a1.3707,1.3707,0,0,1-1.1092,2.1747Z"/><path class="cls-5" d="M413.2275,535.2452a1.3706,1.3706,0,0,1-.1847-2.7285l42.2011-5.79a1.3708,1.3708,0,1,1,.373,2.7161l-42.2011,5.79A1.5008,1.5008,0,0,1,413.2275,535.2452Z"/><path class="cls-5" d="M734.6593,708.2275a1.37,1.37,0,0,1-1.2921-1.8293L760.19,630.8657a1.3711,1.3711,0,0,1,2.5842.9172l-26.823,75.5325A1.3709,1.3709,0,0,1,734.6593,708.2275Z"/><path class="cls-5" d="M497.7465,861.352a1.37,1.37,0,0,1-1.0939-2.1952L544.27,795.8687a1.3712,1.3712,0,1,1,2.1914,1.6489l-47.6173,63.2883A1.374,1.374,0,0,1,497.7465,861.352Z"/><path class="cls-5" d="M465.6089,865.08a1.3636,1.3636,0,0,1-.91-.3461l-59.0033-52.4788a1.3709,1.3709,0,0,1,1.8221-2.0487l59.0015,52.4787a1.3705,1.3705,0,0,1-.91,2.3949Z"/><path class="cls-5" d="M294.6489,813.26a1.3707,1.3707,0,0,1-.2767-2.7127l60.8951-12.6192a1.3707,1.3707,0,0,1,.5569,2.6842l-60.8951,12.619A1.3607,1.3607,0,0,1,294.6489,813.26Z"/><path class="cls-5" d="M169.0041,736.1961a1.37,1.37,0,0,1-1.3449-1.1136l-11.7454-61.6553a1.3708,1.3708,0,0,1,2.6929-.5141l11.7457,61.6553a1.37,1.37,0,0,1-1.09,1.6027A1.28,1.28,0,0,1,169.0041,736.1961Z"/><path class="cls-5" d="M251.4431,793.4754a1.3678,1.3678,0,0,1-.69-.1873L178.09,750.9192a1.37,1.37,0,1,1,1.3813-2.3663l72.6638,42.3687a1.37,1.37,0,0,1-.6915,2.5538Z"/><path class="cls-5" d="M167.0953,631.9079a1.3707,1.3707,0,0,1-.87-2.4307L241.66,567.5916a1.3708,1.3708,0,0,1,1.7381,2.12l-75.4344,61.8854A1.3632,1.3632,0,0,1,167.0953,631.9079Z"/><path class="cls-5" d="M137.192,620.7843a1.37,1.37,0,0,1-1.3705-1.3581l-.6557-76.3642a1.37,1.37,0,0,1,1.3589-1.3832,1.3109,1.3109,0,0,1,1.3823,1.3582l.6556,76.3641a1.3711,1.3711,0,0,1-1.3589,1.3832Z"/><path class="cls-5" d="M477.22,372.6587a1.3488,1.3488,0,0,1-.4426-.074l-96.3894-32.9425a1.37,1.37,0,0,1,.8868-2.5932l96.3876,32.9425a1.37,1.37,0,0,1-.4424,2.6672Z"/><path class="cls-5" d="M529.6324,364a1.3709,1.3709,0,0,1-.7334-2.53l102.5767-64.7364a1.3708,1.3708,0,0,1,1.4634,2.3183L530.3623,363.7882A1.36,1.36,0,0,1,529.6324,364Z"/><path class="cls-5" d="M340.6512,396.5441a1.3709,1.3709,0,0,1-1.2583-1.9113l17.5886-40.9742A1.37,1.37,0,1,1,359.5,354.74l-17.5884,40.9742A1.3694,1.3694,0,0,1,340.6512,396.5441Z"/><path class="cls-5" d="M297.0875,515.4341a1.37,1.37,0,0,1-1.3385-1.6695L308.6591,456a1.3705,1.3705,0,1,1,2.6751.5978l-12.91,57.7648A1.371,1.371,0,0,1,297.0875,515.4341Z"/><path class="cls-5" d="M151.9331,486.7641a1.3716,1.3716,0,0,1-1.3589-1.5607l11.2671-80.5562a1.3705,1.3705,0,0,1,2.7146.38l-11.2674,80.5562A1.37,1.37,0,0,1,151.9331,486.7641Z"/><path class="cls-5" d="M255.7467,506.69a1.3675,1.3675,0,0,1-1.144-.6148L190.2963,408.86a1.37,1.37,0,0,1,2.2862-1.5117l64.3064,97.2158a1.3706,1.3706,0,0,1-1.1422,2.1263Z"/><path class="cls-5" d="M272.49,787.9717a1.2292,1.2292,0,0,1-.1963-.0143,1.3691,1.3691,0,0,1-1.1619-1.5509l3.671-25.5737a1.3536,1.3536,0,0,1,1.5508-1.1617,1.3689,1.3689,0,0,1,1.1619,1.5508l-3.671,25.5736A1.37,1.37,0,0,1,272.49,787.9717Z"/><path class="cls-5" d="M278.6835,744.7355a1.2089,1.2089,0,0,1-.1963-.0143,1.3708,1.3708,0,0,1-1.1626-1.5507l3.3256-23.2217a1.3707,1.3707,0,0,1,2.7136.389l-3.3258,23.2215A1.3692,1.3692,0,0,1,278.6835,744.7355Z"/><path class="cls-5" d="M731.64,422.8878a1.3723,1.3723,0,0,1-.15-.008l-56.2782-6.1346a1.3706,1.3706,0,0,1,.2962-2.7251l56.2783,6.1346a1.3706,1.3706,0,0,1-.1462,2.7331Z"/><path class="cls-5" d="M525.8168,498.6042a1.3833,1.3833,0,0,1-1.3848-1.3706,1.3669,1.3669,0,0,1,.6979-1.2l85.4015-65.6823a1.3707,1.3707,0,0,1,1.67,2.1737l-85.5495,65.7956A1.372,1.372,0,0,1,525.8168,498.6042Z"/><path class="cls-5" d="M590.1205,594.477a1.3632,1.3632,0,0,1-.7958-.257l-69.9235-50.057a1.37,1.37,0,1,1,1.5954-2.2271l69.9234,50.057a1.37,1.37,0,0,1-.7995,2.4841Z"/><path class="cls-5" d="M588.1717,713.774a1.3423,1.3423,0,0,1-.4389-.0731,1.37,1.37,0,0,1-.86-1.7365l23.366-69.0669a1.3706,1.3706,0,0,1,2.5967.8781l-23.3661,69.0669A1.37,1.37,0,0,1,588.1717,713.774Z"/><path class="cls-5" d="M417.0974,789.58a1.37,1.37,0,0,1-.206-2.7251l49.6562-7.6293a1.37,1.37,0,1,1,.4176,2.709l-49.6581,7.6293A1.4061,1.4061,0,0,1,417.0974,789.58Z"/><path class="cls-5" d="M481.7206,779.63a1.3705,1.3705,0,0,1-.207-2.7251l43.72-6.7118a1.37,1.37,0,1,1,.4176,2.709l-43.72,6.7119A1.4156,1.4156,0,0,1,481.7206,779.63Z"/><path class="cls-5" d="M311.851,693.7916a1.371,1.371,0,0,1-.28-2.7126l99.5413-20.9285a1.4087,1.4087,0,0,1,1.6668,1.3421,1.3587,1.3587,0,0,1-1.2,1.3617l-99.4438,20.9086A1.3855,1.3855,0,0,1,311.851,693.7916Z"/><path class="cls-5" d="M400.5,760.9953a1.3694,1.3694,0,0,1-1.2456-1.94l31.1631-68.2941A1.37,1.37,0,1,1,432.91,691.9L401.7469,760.194A1.3705,1.3705,0,0,1,400.5,760.9953Z"/><path class="cls-5" d="M610.5349,732.3234a1.3705,1.3705,0,0,1-.8816-2.42l58.9748-49.568a1.37,1.37,0,1,1,1.7631,2.0987l-58.9746,49.5679A1.3644,1.3644,0,0,1,610.5349,732.3234Z"/><path class="cls-5" d="M681.1222,672.9756a1.37,1.37,0,0,1-.819-2.47l65.4814-48.7114a1.37,1.37,0,1,1,1.6347,2.1986l-65.4815,48.7114A1.3521,1.3521,0,0,1,681.1222,672.9756Z"/><path class="cls-5" d="M530.1713,525.3532a1.3705,1.3705,0,0,1-.1159-2.7359l70.3268-6.02a1.37,1.37,0,0,1,.2356,2.7305l-70.3268,6.02C530.25,525.3514,530.2106,525.3532,530.1713,525.3532Z"/><path class="cls-5" d="M616.5527,517.9567a1.37,1.37,0,0,1-.1142-2.7358l61.3269-5.2469a1.37,1.37,0,0,1,.2319,2.7306l-61.3268,5.2468Q616.6117,517.9566,616.5527,517.9567Z"/><path class="cls-5" d="M750.33,564.2579a1.3673,1.3673,0,0,1-.9317-.3658l-38.6193-35.8067a1.37,1.37,0,1,1,1.8633-2.0094l38.6193,35.8066a1.3705,1.3705,0,0,1-.9316,2.3753Z"/><path class="cls-5" d="M529.57,733.6976a1.3678,1.3678,0,0,1-.8476-.2945L467.1955,684.84a1.371,1.371,0,1,1,1.699-2.1522l61.5268,48.5633a1.3707,1.3707,0,0,1-.8514,2.4467Z"/><path class="cls-5" d="M340.8368,597.0005a1.366,1.366,0,0,1-.7629-.2319l-42.4894-28.497a1.3711,1.3711,0,1,1,1.5276-2.2772l42.4893,28.497a1.3706,1.3706,0,0,1-.7646,2.5091Z"/><path class="cls-5" d="M412.3977,644.9517a1.3742,1.3742,0,0,1-.9335-.3605l-53.9867-36.153a1.3706,1.3706,0,0,1,1.5259-2.2772l54.1572,36.2672a1.38,1.38,0,0,1-.7629,2.5235Z"/><path class="cls-5" d="M349.42,613.4869a11.8491,11.8491,0,1,1,11.8489-11.8481A11.8617,11.8617,0,0,1,349.42,613.4869Zm0-20.9569a9.1079,9.1079,0,1,0,9.1077,9.1088A9.119,9.119,0,0,0,349.42,592.53Z"/><path class="cls-5" d="M527.3981,651.8082a10.2973,10.2973,0,1,1,10.2956-10.2972A10.3079,10.3079,0,0,1,527.3981,651.8082Zm0-17.8534a7.5561,7.5561,0,1,0,7.5544,7.5562A7.5638,7.5638,0,0,0,527.3981,633.9548Z"/><path class="cls-5" d="M277.2479,762.4712a10.2973,10.2973,0,1,1,10.2964-10.2938A10.307,10.307,0,0,1,277.2479,762.4712Zm0-17.8534a7.5561,7.5561,0,1,0,7.5552,7.56A7.5653,7.5653,0,0,0,277.2479,744.6178Z"/><path class="cls-5" d="M171.2188,755.3433a10.2982,10.2982,0,1,1,10.2962-10.2992A10.31,10.31,0,0,1,171.2188,755.3433Zm0-17.8551a7.557,7.557,0,1,0,7.555,7.5559A7.5644,7.5644,0,0,0,171.2188,737.4882Z"/><path class="cls-5" d="M281.5844,358.6958c-.1533,0-.3068-.0036-.4621-.0117a8.9716,8.9716,0,1,1,.4621.0117Zm-.0133-15.2086a6.2337,6.2337,0,0,0-.31,12.4594l.3229.008a6.2337,6.2337,0,0,0,.31-12.4594Z"/><path class="cls-5" d="M464.5988,291.0441a8.9749,8.9749,0,1,1,8.9749-8.974A8.9848,8.9848,0,0,1,464.5988,291.0441Zm0-15.2085a6.2337,6.2337,0,1,0,6.2337,6.2345A6.241,6.241,0,0,0,464.5988,275.8356Z"/><path class="cls-5" d="M444.2433,473.3116a8.9753,8.9753,0,1,1,8.9741-8.9748A8.9852,8.9852,0,0,1,444.2433,473.3116Zm0-15.2094a6.2341,6.2341,0,1,0,6.2329,6.2346A6.2412,6.2412,0,0,0,444.2433,458.1022Z"/><path class="cls-5" d="M474.136,787.7253a8.9757,8.9757,0,1,1,8.9766-8.9766A8.9854,8.9854,0,0,1,474.136,787.7253Zm0-15.21a6.2346,6.2346,0,1,0,6.2354,6.2337A6.2409,6.2409,0,0,0,474.136,772.515Z"/><path class="cls-5" d="M220.0309,359.6006a1.3708,1.3708,0,0,1-.15-2.7332l53.802-5.9785a1.371,1.371,0,1,1,.3034,2.7251l-53.802,5.9785A1.5,1.5,0,0,1,220.0309,359.6006Z"/><path class="cls-5" d="M289.2647,349.6075a1.3705,1.3705,0,0,1-.2071-2.7251l50.37-7.7534a1.3706,1.3706,0,0,1,.4176,2.7092l-50.37,7.7532A1.39,1.39,0,0,1,289.2647,349.6075Z"/><path class="cls-5" d="M560.576,427.8411a12.6187,12.6187,0,1,1,12.6173-12.6191A12.6333,12.6333,0,0,1,560.576,427.8411Zm0-22.4961a9.8775,9.8775,0,1,0,9.8761,9.877A9.8889,9.8889,0,0,0,560.576,405.345Z"/><path class="cls-4" d="M571.8211,416.5926a1.3705,1.3705,0,0,1-.2838-2.7109l27.9847-5.9436a1.37,1.37,0,0,1,.5711,2.68l-27.9847,5.9437A1.3885,1.3885,0,0,1,571.8211,416.5926Z"/><path class="cls-5" d="M560.576,427.8411a12.6187,12.6187,0,1,1,12.6173-12.6191A12.6333,12.6333,0,0,1,560.576,427.8411Zm0-22.4961a9.8775,9.8775,0,1,0,9.8761,9.877A9.8889,9.8889,0,0,0,560.576,405.345Z"/><path class="cls-5" d="M608.5612,527.0993a9.4385,9.4385,0,1,1,9.437-9.4379A9.45,9.45,0,0,1,608.5612,527.0993Zm0-16.1357a6.6973,6.6973,0,1,0,6.6958,6.6978A6.7057,6.7057,0,0,0,608.5612,510.9636Z"/><path class="cls-5" d="M571.8211,416.5926a1.3705,1.3705,0,0,1-.2838-2.7109l27.9847-5.9436a1.37,1.37,0,0,1,.5711,2.68l-27.9847,5.9437A1.3885,1.3885,0,0,1,571.8211,416.5926Z"/><path class="cls-5" d="M551.0354,410.649a1.3675,1.3675,0,0,1-.7441-.22l-24.1157-15.5764a1.3709,1.3709,0,1,1,1.4919-2.3l24.1157,15.5764a1.3706,1.3706,0,0,1-.7478,2.5208Z"/><path class="cls-5" d="M675.01,685.1342a9.0043,9.0043,0,1,1,9.0034-9.0051A9.0181,9.0181,0,0,1,675.01,685.1342Zm0-15.2673a6.2631,6.2631,0,1,0,6.2622,6.2622A6.2713,6.2713,0,0,0,675.01,669.8669Z"/><path class="cls-5" d="M195.1639,536.6526a5.685,5.685,0,1,1,5.6849-5.6851A5.6914,5.6914,0,0,1,195.1639,536.6526Zm0-8.6288a2.9438,2.9438,0,1,0,2.9437,2.9437A2.947,2.947,0,0,0,195.1639,528.0238Z"/><path class="cls-5" d="M736.1905,343.4265a12.4892,12.4892,0,1,1,8.8268-3.6558A12.4122,12.4122,0,0,1,736.1905,343.4265Zm-.0018-22.2338a9.7536,9.7536,0,1,0,6.89,2.8563A9.694,9.694,0,0,0,736.1887,321.1927Z"/><path class="cls-5" d="M669.7167,381.6211a1.37,1.37,0,0,1-.7924-2.49l58.6125-41.4505a1.37,1.37,0,1,1,1.5812,2.2379l-58.6125,41.45A1.3549,1.3549,0,0,1,669.7167,381.6211Z"/><path class="cls-5" d="M499.1849,193.2688a5.403,5.403,0,1,1,5.402-5.4037A5.4093,5.4093,0,0,1,499.1849,193.2688Zm0-8.0647a2.6618,2.6618,0,1,0,2.6608,2.661A2.6643,2.6643,0,0,0,499.1849,185.2041Z"/><path class="cls-5" d="M468.2305,276.7992a1.393,1.393,0,0,1-.446-.074,1.37,1.37,0,0,1-.85-1.7418l28.9038-84.0908a1.37,1.37,0,1,1,2.5913.8905L469.5262,275.874A1.3693,1.3693,0,0,1,468.2305,276.7992Z"/></svg>