<svg id="Layer_1" data-name="Layer 1" xmlns="http://www.w3.org/2000/svg" xmlns:xlink="http://www.w3.org/1999/xlink" width="96" height="91" viewBox="0 0 96 91"><defs><clipPath id="clip-path"><path d="M0,0H7.75a45.5,45.5,0,0,1,0,91H0V71H7.75a25.5,25.5,0,0,0,0-51H0ZM36.251,0h32A27.75,27.75,0,0,1,89.582,45.5,27.75,27.75,0,0,1,68.251,91h-32A53.69,53.69,0,0,0,54.9974,71H68.25a7.75,7.75,0,0,0,0-15.5H60.5a53.6881,53.6881,0,0,0,0-20h7.75a7.75,7.75,0,0,0,0-15.5H54.9974A53.69,53.69,0,0,0,36.251,0Z" style="fill:none"/></clipPath><linearGradient id="linear-gradient" x1="-52" y1="1031" x2="-9" y2="1074" gradientTransform="translate(0 -908)" gradientUnits="userSpaceOnUse"><stop offset="0" stop-color="#f9a03c"/><stop offset="1" stop-color="#f7974e"/></linearGradient><linearGradient id="linear-gradient-2" x1="107" y1="836" x2="170" y2="899" gradientTransform="translate(0 -908)" gradientUnits="userSpaceOnUse"><stop offset="0" stop-color="#b84e51"/><stop offset="1" stop-color="#f68e48"/></linearGradient><linearGradient id="linear-gradient-3" x1="1.2824" y1="906.7093" x2="86.2824" y2="992.7093" gradientTransform="translate(0 -908)" gradientUnits="userSpaceOnUse"><stop offset="0" stop-color="#f26d58"/><stop offset="1" stop-color="#f9a03c"/></linearGradient></defs><g style="clip-path:url(#clip-path)"><path d="M-127-102V198H173Z" style="fill:url(#linear-gradient)"/><path d="M-73-102H227V198Z" style="fill:url(#linear-gradient-2)"/><path d="M-100-102,200,198" style="fill:none;stroke-width:40px;stroke:url(#linear-gradient-3)"/></g></svg>