<svg xmlns="http://www.w3.org/2000/svg" xmlns:xlink="http://www.w3.org/1999/xlink" width="1920" height="1080" viewBox="0 0 1920 1080"><defs><style>.cls-1{isolation:isolate;}.cls-2{fill:#a8a8a8;}.cls-3{fill:#3f3f3f;}.cls-4{mix-blend-mode:multiply;fill:url(#radial-gradient);}</style><radialGradient id="radial-gradient" cx="13268.489" cy="-879.5413" r="349.8478" gradientTransform="translate(462.7205 382.288) rotate(90) scale(0.0476 1.065)" gradientUnits="userSpaceOnUse"><stop offset="0.0161" stop-color="#6d6d6d"/><stop offset="0.1617" stop-color="#939393"/><stop offset="0.3381" stop-color="#b9b9b9"/><stop offset="0.513" stop-color="#d8d8d8"/><stop offset="0.6838" stop-color="#eee"/><stop offset="0.8484" stop-color="#fbfbfb"/><stop offset="1" stop-color="#fff"/></radialGradient></defs><g class="cls-1"><g id="layer"><path class="cls-2" d="M1359.0686,948.6108a.17.17,0,0,1-.0551-.0054l-87.558-17.2141a.2655.2655,0,0,1-.1943-.1524.2738.2738,0,0,1,.0145-.2492l4.4368-7.3878-78.9352-23.6935h-.0013c-.0041.0027-.0027,0-.0067-.0024h0a.11.11,0,0,1-.0248-.01h0l-.0054-.0027h-.004s.0159,0-.0038-.0027c0,0-.0053.0027-.004-.0026l-.004-.0025h-.0011a.1742.1742,0,0,1-.029-.0185l-97.7139-72.041h-.0014l-.0013-.0027h-.0027l-.0027-.0027h-.0013l-.0014-.0027h-.001c-.0014,0,.0169-.0024-.0041-.0024l-.0013-.0027h-.0027l-.0078-.0078h0l-.0027-.0027h0l-.0027-.0026-.0024-.0027-.0013-.0027h-.0014l-.0013-.0024-.0027-.0027h-.0014l-.001-.0027-.0027-.0027h-.0014v-.0024l-.0078-.0081-.0026-.0051-79.778-107.0864a.2674.2674,0,0,1-.0237-.2836.28.28,0,0,1,.2482-.1444l19.8091.6589-58.3066-104.29a.27.27,0,0,1-.0328-.1444V616.47h0a.2692.2692,0,0,1,.01-.0553l61.4192-209.0205L972.4523,482.47a.2687.2687,0,0,1-.4594-.24l23.06-104.893a.2873.2873,0,0,1,.0327-.0853h0l.0014-.0027h0l.0011-.0013,100.7516-162.848a.2348.2348,0,0,1,.0379-.0471v-.0013l.0014-.0014.0223-.02h0l.0054-.004h0l.0118-.0078L1198.82,141.9463l.0092-.0054h0l.004-.0027s0,.0013.004-.0024a.2491.2491,0,0,1,.0525-.0237l117.8724-42.5628a.209.209,0,0,1,.0393-.0118.2613.2613,0,0,1,.0554-.0067l138.5558-3.6018a.1908.1908,0,0,1,.0393.0013h.0027a.1933.1933,0,0,1,.0341.0065l104.8654,23.8865a.3446.3446,0,0,1,.04.01l.0024.0013h0c.0132.0051.0263.0116.0395.0183l72.2432,41.1923a.26.26,0,0,1,.0422.03l81.8334,68.9051a.2787.2787,0,0,1,.0524.0591l68.25,98.5489a.3853.3853,0,0,1,.0263.0433v.004l.0078.0183,23.0265,58.9381a.2676.2676,0,0,1-.1075.3256.2648.2648,0,0,1-.3388-.047L1782.72,362.86l-.2546,46.2762,35.6151,16.2587a.2605.2605,0,0,1,.1521.2086l10.1573,75.0825a.1926.1926,0,0,1,.0027.0683.1792.1792,0,0,1-.0078.0368l-27.0512,114.0277,15.3054,8.2671a.2717.2717,0,0,1,.121.3361l-43.3387,109.0316-.0026.0054h0l-.0027.0051h0v.0027h0v.0027h0l-.0027.0024h0v.0027a.4678.4678,0,0,1-.0315.0473l-76.4226,99.7433v.0027h0l-.0027.0027h0l-.0027.0027h0v.0024h-.0027v.0027a.1993.1993,0,0,1-.0524.0446l-90.9014,65.58a.1889.1889,0,0,1-.063.0366l-99.5069,39.4927a.26.26,0,0,1-.3361-.1234l-9.1413-16.9936-37.3373,7.6633L1453.43,947.33a.2706.2706,0,0,1-.2546.1863l-94.0992,1.095Zm99.94-20.5092-97.134,19.9393,91.1009-1.0606Zm-182.48-4.8148,82.21,24.6753-10.72-70.6181-48.0838,6.96Zm188.2951-62.7106-104.7618,87.2889,99.1357-20.3487,15.5157-48.55ZM1348.55,877.268l10.7127,70.5629L1464.0022,860.56ZM1271.9346,930.94l81.7783,16.0775-77.4689-23.2551Zm225.5665-10.7374,8.95,16.6417,96.4409-38.2744Zm-22.4332-40.58L1459.8017,927.39l36.8829-7.5687Zm-276.9991,20.1126,77.9284,23.3916,23.251-38.7233-34.5922,5.0037h0Zm277.2276-20.824,21.94,40.7974,107.4276-22.0525-124.7414-33.2209ZM1178.8712,857.544l18.1475,41.8106,66.5386-10.32Zm-78.0372-29.0177,95.3761,70.3165-18.0384-41.5587Zm379.2535,35.3971L1605.3069,897.27l-27.0434-50.5581L1481.86,858.3788Zm139.0994-22.1654-12.927,55.2941,89.4836-64.5589Zm-40.3511,4.883,26.8991,50.2931,12.8824-55.1052Zm-336.04-69.76,22.0356,111.959,34.7736-5.0328,39.3178-65.4831Zm-64.2215,79.98,85.6861,31.8609-22.0644-112.098-121.1121-52.2149Zm160.5834-37.8856-38.8663,64.7322,47.6469-6.8942Zm126.2775,41.6033,9.5062,17.6762,4.46-13.9561Zm-125.7917-41.9867,8.8263,58.1454,115.2748-16.684Zm126.6791,41.6662,13.2422,3.5258,1.7062-5.3345Zm52.1806-118.2991-53.1572,117.8765,16.1062-1.9506Zm-178.4513,76.2022,124.2255,41.5036-47.6021-75.6613Zm77.12-34.3782,47.694,75.8084,54.7876-121.4942Zm103.08-45.5309-38.2139,119.5618,95.9526-11.6116Zm-420.8068,89.1844,78.43,29.162-57.216-131.8195Zm421.3924-89.2186,57.7254,107.9161,40.1855-4.8648,10.5169-44.9952Zm108.9187,58.3188-10.4408,44.6645,76.5541-9.2648Zm.1288-.5409,66.57,35.6439-4.668-97.3413-47.7095.982Zm62.44-61.7079,4.6258,96.4853,36.035-97.3227Zm41.2385-.8506-35.9457,97.084,75-97.8873Zm-693.4533-11.9555,58.572,104.7629-13.8013-103.2719Zm45.3154,1.51,13.766,103.0118,21.0471-101.8515Zm-65.52-2.1842,76.9872,103.34-57.41-102.6864ZM1242.67,776.2407l96.4461,41.58,24.6583-117.5588L1230.2971,713.38Zm121.5689-75.5774-24.5556,117.0756,76.7009-34.1946Zm156.9819,37.1482,108.1733,57.9222,14.1293-60.44Zm-156.5289-37.437,52.1886,82.9494,102.4762-45.6831ZM1121.63,724.06l120.4415,51.9235-12.3128-62.5507Zm561.7613-159.3116L1520.8244,737.2838,1643.65,734.753Zm-318.8938,135.025,155.29,37.4184-70.9334-214.5941Zm84.7975-177.5523L1520.176,736.67l57.4654-191.53Zm128.879,23.0133-57.4,191.3168,162.57-172.5354Zm105.53,20.538-39.5,168.97,47.5574-.982Zm.5013-.7458,8.094,168.7234,40.8891-.8425L1749.6305,688.5Zm65.7641,124.1116-16.2033,43.7585,38.9647-.8032Zm.25-.6775,22.7431,42.9238,7.784-125.3688Zm31.1492-83.8128L1773.634,729.24l27.08-114.1433Zm19.8368,10.7137-26.92,113.4634,41.887-105.38Zm-715.851,107.0891,34.3876,1.1474L1081.58,694.21ZM1200.0522,562.509,1121.0213,723.58l108.6339-10.6772ZM1081.4789,693.4516l38.8007,29.8812-4.6612-140.2256-47.3029,11.8374Zm34.6736-110.4783L1120.8,722.81l78.8669-160.7345Zm-76.3479,137.96,45.0046,1.5017-3.8344-28.6919-98.9964-76.2391Zm160.77-158.5607L1230.192,712.85l133.261-13.0977Zm.21-.5251L1364.02,699.5266l84.417-177.3031ZM981.7079,616.6165l99.1658,76.37-13.0832-97.911Zm702.76-52.2437,65.4121,123.45,30.9052-83.4612Zm-641.7215-156.706L981.4939,616.1151l86.2243-21.5748Zm738.7294,196.427,19.3669,10.4619,26.3816-111.195Zm-96.9109-40.2616,96.2939,39.9782.4514-82.3087Zm97.2862-42.5655-.4489,81.6878,46.1871-101.7007ZM1043.215,407.1194l25.0282,187.29,47.3582-11.8506-3.573-107.509Zm69.3685,68.4787,3.5508,106.8265,83.4994-20.8949Zm465.7456,69.1191,105.0019,18.75-74.703-119.7363Zm175.9326-147.8666-69.8726,166.4722,96.9265-42.4093.6089-111.4326ZM1638.7428,344.116l45.2237,218.8183,69.8043-166.3068Zm-29.91,98.9282,74.48,119.3756-44.9874-217.6723Zm-235.8393-36.7057L1201.0184,561.2646l247.429-39.5871Zm-260.4348,68.4787,87.38,86.2584,12.7695-170.0205-103.1443-6.3557Zm100.6885-83.7725L1200.48,561.0256l172.2149-155.1425L1352.6,375.1642Zm236.2268,130.6618L1577.7963,544.62l30.4511-101.4972-27.8233-44.5949Zm67.4283-224.9944L1449.445,520.9936l130.69-122.9314Zm-101.1557,71.1367,33.1945,152.9545,67.3916-224.0662Zm366.7163,41.8764-.6089,110.952,45.9769-20.1164-10.11-74.74Zm-409.0651-3.75,74.9315,114.5384-33.0472-152.2719ZM995.5288,377.6714l-22.8,103.7115,69.8739-75.1415,7.0018-25.2371Zm47.6507,28.658,68.8225,67.9391-2.9783-89.6032-51.7687-3.19Zm537.6465-8.1766,27.6287,44.2836,29.372-97.9029Zm173.6433-1.7985,27.4606,12.5373.2546-46.6149-9.1992-10.0341Zm-401.2709-21.2584L1373.1,405.5194l41.5444-37.4252Zm-303.0449,5.9426-6.4646,23.302,12.969-22.9017Zm467.3185-84.4261,63.0626,101.0743,57.3445-53.9395Zm121.9088,47.2044,114.5973,52.3144,18.6056-44.3244-18.3508-20.0153Zm-529.8362,40.3417,102.7024,6.33L1106.5808,294.961Zm180.5886-104.4806-76.5789,110.7906,138.7161-15.807Zm-183.2019,14.875,105.7606,95.6124-5.8388-103.84ZM1207.39,286.28l5.831,103.7247,76.374-110.4939Zm575.3327,75.7888,22.1708,24.1792-21.995-56.2947Zm-725.1736,18.8851,51.4573,3.1714-2.9533-88.826Zm-7.2485-.4462,6.6514.4094,48.4723-85.5968-39.7406,29.7408Zm-54.2376-3.3422,53.6889,3.308,15.2282-54.8847Zm99.2422-160.88L996.2915,376.3234l68.9236-51.5821Zm195.8165,63.9327,61.7471,94.3747,61.8485-7.049Zm94.7777,6.3743,29.679,80.7164,100.4707-71.03Zm-94.8132-7.0569,123.81,87.4782-29.586-80.466Zm482.1276,72.1607,8.9761,9.79.1731-31.5863Zm-18.3168-19.9748,17.9152,19.539,9.4037-22.3991Zm-62.8892-67.7932-53.0943,79.396,114.8651-12.0267ZM1517.296,295.9653l120.7484,47.2687L1617.7035,195.27Zm100.9589-100.6309,20.2885,147.5792,53.0915-79.3933-30.8-33.59Zm74.06,68.1335,62.1308,67.76,27.5211-2.8811L1695.7645,258.31Zm3.7491-5.6065,85.2778,69.286-66.9585-96.6824Zm-600.0934-41.9641L1065.9186,324.215l40.0858-29.9995Zm289.7253,70.14,130.6657,9.7256L1440.1671,144.376l-80.0417,72.1211Zm55.01-141.7864,76.0237,151.0445,34.84-141.1641ZM1552.11,154.18l-34.8011,141.0108,100.2291-100.5167-28.6526-37.2163Zm-350.3068,42.2963-94.82,97.533,99.8392-8.2225Zm-105.4363,18.2854,10.093,78.78,54.9739-90.2568Zm65.7718-11.6011-54.3769,89.2763,93.5018-96.177Zm128.6481,75.8135,94.3193,7.02-25.41-69.11Zm-88.4441-82.4636,5.017,89.233,82.1668-6.7667Zm.0984-.6484,87.5082,82.784,19.99-134.3726-75.7756,24.9955Zm108.07-51.7776L1290.5152,278.495l68.98-62.1541L1330.5025,137.49Zm353.1854,88.17,28.2459,30.8054,3.4024-5.09Zm-2.4912-2.7157,34.4414,27.9818,18.3192-27.3977-78.5779-28.7419ZM1634.5975,200.52l78.4442,28.6919-80.3949-67.6938-10.8922,24.9957Zm-15.2872-5.0183,39.0331,31.7122-24.0529-26.2345Zm-288.2956-58.1795,28.9109,78.6319,79.8084-71.9124-61.7856-22.2023Zm-132.94,5.807-100.3684,70.5893,71.8-23.6854Zm-29.0005,47.6126-69.3831,22.8875,62.1163-10.9554Zm.7876-.26-7.35,12.067,39.2429-6.9216-.8769-15.3777Zm448.3936,4.06,15.2452,5.5761-11.9792-13.0661Zm-416.848-14.4653.8678,15.2239,30.51-25.5756Zm388.2086-22.5529,28.2141,36.648,3.2921-7.5528-26.2479-28.6266Zm-390.86-14.48-28.4623,46.7292,30.5533-10.0785Zm396.9115,15.0194,25.6911,28.016,10.79-24.7645Zm-396.4128-15.7113,2.12,37.1678,32.5238-10.7282,81.6259-68.4234Zm117.2332-42.09-81.2087,68.0744,74.75-24.6584Zm278.6414,57.2133,36.2108,3.2278L1561.6586,120.97Zm-5.9595-.5315,5.1664.4608-30.01-32.73Zm-36.9278-3.2908,36.1979,3.2265-28.0147-36.3869Zm-110.1132-9.8147,109.5726,9.7661,8.2354-33.3717Zm-63.35-22.2733,61.2971,22.0278,14.9355-47.1743Zm76.8286-25.2489-14.9645,47.2713,118.3728-23.7182ZM1316.969,100.68,1310.6,143.49l19.7175-6.5055Zm.34-.6328,13.519,36.7689,46.3-15.2729Zm.9871-.2164,59.66,21.4393,75.6522-24.9562Z"/><path class="cls-2" d="M1293.21,279.1959a3.07,3.07,0,1,0-3.07,3.07A3.07,3.07,0,0,0,1293.21,279.1959Z"/><path class="cls-2" d="M1785.7091,328.5467a3.07,3.07,0,1,0-3.07,3.07A3.07,3.07,0,0,0,1785.7091,328.5467Z"/><path class="cls-2" d="M1808.738,387.4907a3.07,3.07,0,1,0-3.07,3.07A3.07,3.07,0,0,0,1808.738,387.4907Z"/><path class="cls-2" d="M1563.3686,119.8857a3.07,3.07,0,1,0-3.07,3.07A3.07,3.07,0,0,0,1563.3686,119.8857Z"/><path class="cls-2" d="M1458.4944,95.9978a3.07,3.07,0,1,0-3.07,3.07A3.07,3.07,0,0,0,1458.4944,95.9978Z"/><path class="cls-2" d="M1099.1379,214.541a3.07,3.07,0,1,0-3.07,3.07A3.07,3.07,0,0,0,1099.1379,214.541Z"/><path class="cls-2" d="M1045.9149,406.3764a3.07,3.07,0,1,0-3.07,3.07A3.0695,3.0695,0,0,0,1045.9149,406.3764Z"/><path class="cls-2" d="M1109.3608,294.3365a3.07,3.07,0,1,0-3.07,3.07A3.07,3.07,0,0,0,1109.3608,294.3365Z"/><path class="cls-2" d="M1123.6365,723.8946a3.07,3.07,0,1,0-3.07,3.07A3.07,3.07,0,0,0,1123.6365,723.8946Z"/><path class="cls-2" d="M1342.3809,818.1984a3.07,3.07,0,1,0-3.07,3.07A3.07,3.07,0,0,0,1342.3809,818.1984Z"/><path class="cls-2" d="M1367.1825,699.9581a3.07,3.07,0,1,0-3.07,3.07A3.07,3.07,0,0,0,1367.1825,699.9581Z"/><path class="cls-2" d="M1123.6365,723.8946a3.07,3.07,0,1,0-3.07,3.07A3.07,3.07,0,0,0,1123.6365,723.8946Z"/><path class="cls-2" d="M1203.2322,561.6748a3.07,3.07,0,1,0-3.07,3.07A3.07,3.07,0,0,0,1203.2322,561.6748Z"/><path class="cls-2" d="M1267.6879,889.1425a3.07,3.07,0,1,0-3.07,3.07A3.07,3.07,0,0,0,1267.6879,889.1425Z"/><path class="cls-2" d="M1467.9753,860.159a3.07,3.07,0,1,0-3.07,3.07A3.07,3.07,0,0,0,1467.9753,860.159Z"/><path class="cls-2" d="M1362.1384,948.3433a3.07,3.07,0,1,0-3.07,3.0695A3.07,3.07,0,0,0,1362.1384,948.3433Z"/><path class="cls-2" d="M1342.3809,818.1984a3.07,3.07,0,1,0-3.07,3.07A3.07,3.07,0,0,0,1342.3809,818.1984Z"/><path class="cls-2" d="M1274.5759,931.1289a3.07,3.07,0,1,0-3.07,3.07A3.07,3.07,0,0,0,1274.5759,931.1289Z"/><path class="cls-2" d="M1362.1384,948.3433a3.07,3.07,0,1,0-3.07,3.0695A3.07,3.07,0,0,0,1362.1384,948.3433Z"/><path class="cls-2" d="M1199.9243,899.6525a3.07,3.07,0,1,0-3.07,3.0695A3.07,3.07,0,0,0,1199.9243,899.6525Z"/><path class="cls-2" d="M1267.6879,889.1425a3.07,3.07,0,1,0-3.07,3.07A3.07,3.07,0,0,0,1267.6879,889.1425Z"/><path class="cls-2" d="M1102.205,827.6083a3.07,3.07,0,1,0-3.07,3.07A3.07,3.07,0,0,0,1102.205,827.6083Z"/><path class="cls-2" d="M1199.9243,899.6525a3.07,3.07,0,1,0-3.07,3.0695A3.07,3.07,0,0,0,1199.9243,899.6525Z"/><path class="cls-2" d="M1123.6365,723.8946a3.07,3.07,0,1,0-3.07,3.07A3.07,3.07,0,0,0,1123.6365,723.8946Z"/><path class="cls-2" d="M1102.205,827.6083a3.07,3.07,0,1,0-3.07,3.07A3.07,3.07,0,0,0,1102.205,827.6083Z"/><path class="cls-2" d="M1022.4276,720.5219a3.07,3.07,0,1,0-3.0695,3.07A3.07,3.07,0,0,0,1022.4276,720.5219Z"/><path class="cls-2" d="M1123.6365,723.8946a3.07,3.07,0,1,0-3.07,3.07A3.07,3.07,0,0,0,1123.6365,723.8946Z"/><path class="cls-2" d="M984.1742,616.4918a3.07,3.07,0,1,0-3.07,3.0695A3.07,3.07,0,0,0,984.1742,616.4918Z"/><path class="cls-2" d="M1102.205,827.6083a3.07,3.07,0,1,0-3.07,3.07A3.07,3.07,0,0,0,1102.205,827.6083Z"/><path class="cls-2" d="M1045.9149,406.3764a3.07,3.07,0,1,0-3.07,3.07A3.0695,3.0695,0,0,0,1045.9149,406.3764Z"/><path class="cls-2" d="M1203.2322,561.6748a3.07,3.07,0,1,0-3.07,3.07A3.07,3.07,0,0,0,1203.2322,561.6748Z"/><path class="cls-2" d="M984.1742,616.4918a3.07,3.07,0,1,0-3.07,3.0695A3.07,3.07,0,0,0,984.1742,616.4918Z"/><path class="cls-2" d="M1045.9149,406.3764a3.07,3.07,0,1,0-3.07,3.07A3.0695,3.0695,0,0,0,1045.9149,406.3764Z"/><path class="cls-2" d="M975.3256,482.2869a3.07,3.07,0,1,0-3.07,3.07A3.07,3.07,0,0,0,975.3256,482.2869Z"/><path class="cls-2" d="M998.3857,377.3891a3.07,3.07,0,1,0-3.07,3.07A3.0695,3.0695,0,0,0,998.3857,377.3891Z"/><path class="cls-2" d="M1216.0655,390.8032a3.07,3.07,0,1,0-3.07,3.07A3.07,3.07,0,0,0,1216.0655,390.8032Z"/><path class="cls-2" d="M1203.2322,561.6748a3.07,3.07,0,1,0-3.07,3.07A3.07,3.07,0,0,0,1203.2322,561.6748Z"/><path class="cls-2" d="M1367.1825,699.9581a3.07,3.07,0,1,0-3.07,3.07A3.07,3.07,0,0,0,1367.1825,699.9581Z"/><path class="cls-2" d="M1467.9753,860.159a3.07,3.07,0,1,0-3.07,3.07A3.07,3.07,0,0,0,1467.9753,860.159Z"/><path class="cls-2" d="M1342.3809,818.1984a3.07,3.07,0,1,0-3.07,3.07A3.07,3.07,0,0,0,1342.3809,818.1984Z"/><path class="cls-2" d="M1523.26,737.5642a3.07,3.07,0,1,0-3.07,3.0695A3.07,3.07,0,0,0,1523.26,737.5642Z"/><path class="cls-2" d="M1367.1825,699.9581a3.07,3.07,0,1,0-3.07,3.07A3.07,3.07,0,0,0,1367.1825,699.9581Z"/><path class="cls-2" d="M1451.9693,521.8767a3.07,3.07,0,1,0-3.07,3.0695A3.07,3.07,0,0,0,1451.9693,521.8767Z"/><path class="cls-2" d="M1203.2322,561.6748a3.07,3.07,0,1,0-3.07,3.07A3.07,3.07,0,0,0,1203.2322,561.6748Z"/><path class="cls-2" d="M1418.5159,367.7318a3.07,3.07,0,1,0-3.07,3.07A3.07,3.07,0,0,0,1418.5159,367.7318Z"/><path class="cls-2" d="M1216.0655,390.8032a3.07,3.07,0,1,0-3.07,3.07A3.07,3.07,0,0,0,1216.0655,390.8032Z"/><path class="cls-2" d="M1109.3608,294.3365a3.07,3.07,0,1,0-3.07,3.07A3.07,3.07,0,0,0,1109.3608,294.3365Z"/><path class="cls-2" d="M998.3857,377.3891a3.07,3.07,0,1,0-3.07,3.07A3.0695,3.0695,0,0,0,998.3857,377.3891Z"/><path class="cls-2" d="M1099.1379,214.541a3.07,3.07,0,1,0-3.07,3.07A3.07,3.07,0,0,0,1099.1379,214.541Z"/><path class="cls-2" d="M1109.3608,294.3365a3.07,3.07,0,1,0-3.07,3.07A3.07,3.07,0,0,0,1109.3608,294.3365Z"/><path class="cls-2" d="M1293.21,279.1959a3.07,3.07,0,1,0-3.07,3.07A3.07,3.07,0,0,0,1293.21,279.1959Z"/><path class="cls-2" d="M1216.0655,390.8032a3.07,3.07,0,1,0-3.07,3.07A3.07,3.07,0,0,0,1216.0655,390.8032Z"/><path class="cls-2" d="M1205.1065,195.851a3.07,3.07,0,1,0-3.07,3.07A3.07,3.07,0,0,0,1205.1065,195.851Z"/><path class="cls-2" d="M1109.3608,294.3365a3.07,3.07,0,1,0-3.07,3.07A3.07,3.07,0,0,0,1109.3608,294.3365Z"/><path class="cls-2" d="M1202.044,142.1662a3.07,3.07,0,1,0-3.07,3.07A3.07,3.07,0,0,0,1202.044,142.1662Z"/><path class="cls-2" d="M1099.1379,214.541a3.07,3.07,0,1,0-3.07,3.07A3.07,3.07,0,0,0,1099.1379,214.541Z"/><path class="cls-2" d="M1205.1065,195.851a3.07,3.07,0,1,0-3.07,3.07A3.07,3.07,0,0,0,1205.1065,195.851Z"/><path class="cls-2" d="M1202.044,142.1662a3.07,3.07,0,1,0-3.07,3.07A3.07,3.07,0,0,0,1202.044,142.1662Z"/><path class="cls-2" d="M1319.9278,99.6a3.07,3.07,0,1,0-3.0695,3.07A3.0695,3.0695,0,0,0,1319.9278,99.6Z"/><path class="cls-2" d="M1205.1065,195.851a3.07,3.07,0,1,0-3.07,3.07A3.07,3.07,0,0,0,1205.1065,195.851Z"/><path class="cls-2" d="M1293.21,279.1959a3.07,3.07,0,1,0-3.07,3.07A3.07,3.07,0,0,0,1293.21,279.1959Z"/><path class="cls-2" d="M1451.9693,521.8767a3.07,3.07,0,1,0-3.07,3.0695A3.07,3.07,0,0,0,1451.9693,521.8767Z"/><path class="cls-2" d="M1523.26,737.5642a3.07,3.07,0,1,0-3.07,3.0695A3.07,3.07,0,0,0,1523.26,737.5642Z"/><path class="cls-2" d="M1456.2432,947.2481a3.07,3.07,0,1,0-3.0695,3.07A3.07,3.07,0,0,0,1456.2432,947.2481Z"/><path class="cls-2" d="M1362.1384,948.3433a3.07,3.07,0,1,0-3.07,3.0695A3.07,3.07,0,0,0,1362.1384,948.3433Z"/><circle class="cls-2" cx="1605.8341" cy="897.6911" r="3.0698"/><path class="cls-2" d="M1523.26,737.5642a3.07,3.07,0,1,0-3.07,3.0695A3.07,3.07,0,0,0,1523.26,737.5642Z"/><path class="cls-2" d="M1467.9753,860.159a3.07,3.07,0,1,0-3.07,3.07A3.07,3.07,0,0,0,1467.9753,860.159Z"/><path class="cls-2" d="M1509.398,937.1838a3.07,3.07,0,1,0-3.07,3.0695A3.07,3.07,0,0,0,1509.398,937.1838Z"/><circle class="cls-2" cx="1605.8341" cy="897.6911" r="3.0698"/><path class="cls-2" d="M1467.9753,860.159a3.07,3.07,0,1,0-3.07,3.07A3.07,3.07,0,0,0,1467.9753,860.159Z"/><path class="cls-2" d="M1699.8174,832.1034a3.07,3.07,0,1,0-3.07,3.07A3.07,3.07,0,0,0,1699.8174,832.1034Z"/><path class="cls-2" d="M1686.95,563.8373a3.07,3.07,0,1,0-3.07,3.0695A3.07,3.07,0,0,0,1686.95,563.8373Z"/><circle class="cls-2" cx="1605.8341" cy="897.6911" r="3.0698"/><path class="cls-2" d="M1699.8174,832.1034a3.07,3.07,0,1,0-3.07,3.07A3.07,3.07,0,0,0,1699.8174,832.1034Z"/><path class="cls-2" d="M1523.26,737.5642a3.07,3.07,0,1,0-3.07,3.0695A3.07,3.07,0,0,0,1523.26,737.5642Z"/><path class="cls-2" d="M1776.2411,732.3548a3.07,3.07,0,1,0-3.07,3.07A3.0695,3.0695,0,0,0,1776.2411,732.3548Z"/><path class="cls-2" d="M1699.8174,832.1034a3.07,3.07,0,1,0-3.07,3.07A3.07,3.07,0,0,0,1699.8174,832.1034Z"/><path class="cls-2" d="M1784.1956,604.2118a3.07,3.07,0,1,0-3.07,3.07A3.07,3.07,0,0,0,1784.1956,604.2118Z"/><path class="cls-2" d="M1819.58,623.3223a3.07,3.07,0,1,0-3.07,3.0695A3.07,3.07,0,0,0,1819.58,623.3223Z"/><path class="cls-2" d="M1776.2411,732.3548a3.07,3.07,0,1,0-3.07,3.07A3.0695,3.0695,0,0,0,1776.2411,732.3548Z"/><path class="cls-2" d="M1831.1952,500.7258a3.07,3.07,0,1,0-3.07,3.07A3.07,3.07,0,0,0,1831.1952,500.7258Z"/><path class="cls-2" d="M1784.1956,604.2118a3.07,3.07,0,1,0-3.07,3.07A3.07,3.07,0,0,0,1784.1956,604.2118Z"/><path class="cls-2" d="M1776.2411,732.3548a3.07,3.07,0,1,0-3.07,3.07A3.0695,3.0695,0,0,0,1776.2411,732.3548Z"/><path class="cls-2" d="M1686.95,563.8373a3.07,3.07,0,1,0-3.07,3.0695A3.07,3.07,0,0,0,1686.95,563.8373Z"/><path class="cls-2" d="M1523.26,737.5642a3.07,3.07,0,1,0-3.07,3.0695A3.07,3.07,0,0,0,1523.26,737.5642Z"/><path class="cls-2" d="M1641.4419,343.651a3.07,3.07,0,1,0-3.07,3.07A3.07,3.07,0,0,0,1641.4419,343.651Z"/><path class="cls-2" d="M1451.9693,521.8767a3.07,3.07,0,1,0-3.07,3.0695A3.07,3.07,0,0,0,1451.9693,521.8767Z"/><path class="cls-2" d="M1686.95,563.8373a3.07,3.07,0,1,0-3.07,3.0695A3.07,3.07,0,0,0,1686.95,563.8373Z"/><path class="cls-2" d="M1519.8851,296.0664a3.07,3.07,0,1,0-3.07,3.07A3.07,3.07,0,0,0,1519.8851,296.0664Z"/><path class="cls-2" d="M1418.5159,367.7318a3.07,3.07,0,1,0-3.07,3.07A3.07,3.07,0,0,0,1418.5159,367.7318Z"/><path class="cls-2" d="M1451.9693,521.8767a3.07,3.07,0,1,0-3.07,3.0695A3.07,3.07,0,0,0,1451.9693,521.8767Z"/><path class="cls-2" d="M1519.8851,296.0664a3.07,3.07,0,1,0-3.07,3.07A3.07,3.07,0,0,0,1519.8851,296.0664Z"/><path class="cls-2" d="M1293.21,279.1959a3.07,3.07,0,1,0-3.07,3.07A3.07,3.07,0,0,0,1293.21,279.1959Z"/><path class="cls-2" d="M1418.5159,367.7318a3.07,3.07,0,1,0-3.07,3.07A3.07,3.07,0,0,0,1418.5159,367.7318Z"/><path class="cls-2" d="M1319.9278,99.6a3.07,3.07,0,1,0-3.0695,3.07A3.0695,3.0695,0,0,0,1319.9278,99.6Z"/><path class="cls-2" d="M1293.21,279.1959a3.07,3.07,0,1,0-3.07,3.07A3.07,3.07,0,0,0,1293.21,279.1959Z"/><path class="cls-2" d="M1443.3172,143.94a3.07,3.07,0,1,0-3.07,3.07A3.07,3.07,0,0,0,1443.3172,143.94Z"/><path class="cls-2" d="M1458.4944,95.9978a3.07,3.07,0,1,0-3.07,3.07A3.07,3.07,0,0,0,1458.4944,95.9978Z"/><path class="cls-2" d="M1319.9278,99.6a3.07,3.07,0,1,0-3.0695,3.07A3.0695,3.0695,0,0,0,1319.9278,99.6Z"/><path class="cls-2" d="M1443.3172,143.94a3.07,3.07,0,1,0-3.07,3.07A3.07,3.07,0,0,0,1443.3172,143.94Z"/><path class="cls-2" d="M1519.8851,296.0664a3.07,3.07,0,1,0-3.07,3.07A3.07,3.07,0,0,0,1519.8851,296.0664Z"/><path class="cls-2" d="M1563.3686,119.8857a3.07,3.07,0,1,0-3.07,3.07A3.07,3.07,0,0,0,1563.3686,119.8857Z"/><path class="cls-2" d="M1443.3172,143.94a3.07,3.07,0,1,0-3.07,3.07A3.07,3.07,0,0,0,1443.3172,143.94Z"/><path class="cls-2" d="M1635.6142,161.079a3.07,3.07,0,1,0-3.07,3.07A3.07,3.07,0,0,0,1635.6142,161.079Z"/><path class="cls-2" d="M1563.3686,119.8857a3.07,3.07,0,1,0-3.07,3.07A3.07,3.07,0,0,0,1563.3686,119.8857Z"/><path class="cls-2" d="M1620.9658,194.697a3.07,3.07,0,1,0-3.0695,3.07A3.07,3.07,0,0,0,1620.9658,194.697Z"/><path class="cls-2" d="M1635.6142,161.079a3.07,3.07,0,1,0-3.07,3.07A3.07,3.07,0,0,0,1635.6142,161.079Z"/><path class="cls-2" d="M1717.449,229.9873a3.07,3.07,0,1,0-3.07,3.07A3.07,3.07,0,0,0,1717.449,229.9873Z"/><path class="cls-2" d="M1620.9658,194.697a3.07,3.07,0,1,0-3.0695,3.07A3.07,3.07,0,0,0,1620.9658,194.697Z"/><path class="cls-2" d="M1519.8851,296.0664a3.07,3.07,0,1,0-3.07,3.07A3.07,3.07,0,0,0,1519.8851,296.0664Z"/><path class="cls-2" d="M1641.4419,343.651a3.07,3.07,0,1,0-3.07,3.07A3.07,3.07,0,0,0,1641.4419,343.651Z"/><path class="cls-2" d="M1686.95,563.8373a3.07,3.07,0,1,0-3.07,3.0695A3.07,3.07,0,0,0,1686.95,563.8373Z"/><path class="cls-2" d="M1784.1956,604.2118a3.07,3.07,0,1,0-3.07,3.07A3.07,3.07,0,0,0,1784.1956,604.2118Z"/><path class="cls-2" d="M1785.7091,328.5467a3.07,3.07,0,1,0-3.07,3.07A3.07,3.07,0,0,0,1785.7091,328.5467Z"/><path class="cls-2" d="M1620.9658,194.697a3.07,3.07,0,1,0-3.0695,3.07A3.07,3.07,0,0,0,1620.9658,194.697Z"/><path class="cls-2" d="M1717.449,229.9873a3.07,3.07,0,1,0-3.07,3.07A3.07,3.07,0,0,0,1717.449,229.9873Z"/><path class="cls-2" d="M1641.4419,343.651a3.07,3.07,0,1,0-3.07,3.07A3.07,3.07,0,0,0,1641.4419,343.651Z"/><path class="cls-2" d="M1785.7091,328.5467a3.07,3.07,0,1,0-3.07,3.07A3.07,3.07,0,0,0,1785.7091,328.5467Z"/><path class="cls-2" d="M1641.4419,343.651a3.07,3.07,0,1,0-3.07,3.07A3.07,3.07,0,0,0,1641.4419,343.651Z"/><path class="cls-2" d="M1821.0368,425.6387a3.07,3.07,0,1,0-3.07,3.07A3.07,3.07,0,0,0,1821.0368,425.6387Z"/><path class="cls-2" d="M1831.1952,500.7258a3.07,3.07,0,1,0-3.07,3.07A3.07,3.07,0,0,0,1831.1952,500.7258Z"/><path class="cls-2" d="M1686.95,563.8373a3.07,3.07,0,1,0-3.07,3.0695A3.07,3.07,0,0,0,1686.95,563.8373Z"/><path class="cls-2" d="M1785.7091,328.5467a3.07,3.07,0,1,0-3.07,3.07A3.07,3.07,0,0,0,1785.7091,328.5467Z"/><path class="cls-3" d="M1358.881,965.9456a.5829.5829,0,0,1-.1156-.0132L1250.1262,942.05a.6111.6111,0,0,1-.096-.0288.5427.5427,0,0,1-.0893-.0473l-168.655-104.3454a.5161.5161,0,0,1-.0893-.0683h-.0013c-.0027-.0054-.0092-.01-.0078-.0081l-.0054-.0051h-.0013l-.0011-.0027-.0054-.0054c.0013.0027-.004,0-.004-.0051h-.0011a.6685.6685,0,0,1-.0554-.0683L1006.1651,730.899a.5184.5184,0,0,1-.0588-.1051.1987.1987,0,0,1-.0132-.0341L962.0077,608.67h0l-.0014-.0053h-.0013l-.0014-.0051h0l-.0051-.0159s.0051.0027-.0013-.0051l-.0014-.0027-.0013-.0027V608.63l-.0014-.0024v-.0027h0l-.0013-.0027V608.62l-.0013-.0024h0a.5639.5639,0,0,1-.017-.1314l-3.7292-143.4981a.5409.5409,0,0,1,.0051-.1024V464.88c.0027-.0159.0054-.03.0091-.0447l24.7371-108.6064a.5022.5022,0,0,1,.0592-.1575l42.6665-74.8293.0169-.0277h0l.0027-.0038.0014-.0027.0013-.0013.0014-.0013c.0105-.0156.0223-.0315.0352-.0474l71.3705-84.7567a.5368.5368,0,0,1,.1116-.1L1199.33,125.61a.5151.5151,0,0,1,.0656-.0393l.0038-.0027c.0185-.0091.0368-.0172.0564-.025l61.0439-23.85a.5381.5381,0,0,1,.5592.8979l-25.2121,23.1171,47.102.2587,16.7692-36.7332a.541.541,0,0,1,.4172-.31l77.7644-10.52a.1577.1577,0,0,1,.093-.0051.5229.5229,0,0,1,.12.0156l117.908,27.9727,8.4666-15.6769a.5408.5408,0,0,1,.6721-.2441l112.93,44.8874.0287.0131h0l.0027.0014a.56.56,0,0,1,.1076.0669l103.2956,79.1425a.7.7,0,0,1,.0788.0723v.0013l.0024.0027c.0132.0143.0263.0315.04.0471l67.9219,94.1529c.0132.0183.0264.0382.04.0591v.0014l.0024.0024c.0105.0223.0212.0446.0317.0683L1830.54,412.0407a.5348.5348,0,0,1-.2441.6721l-17.4345,9.3749,7.8706,38.3349,19.8973,6.36a.54.54,0,0,1,.3753.5055l1.1342,97.4606a.5786.5786,0,0,1-.0027.0683.5664.5664,0,0,1-.01.06l-17.8284,90.681a.5391.5391,0,0,1-.8035.36l-7.3665-4.4237-24.4417,81.4345-.0159.0447v.0024h0a.5935.5935,0,0,1-.076.1314l-74.6035,101.19a.4862.4862,0,0,1-.0866.0971h0l-.0027.0027h0l-.0024.0026c0,.0027.0024,0-.0054.0027v.0025h-.0027l-.0024.0026-.0026.0027-.0027.0027h-.0027l-.0156.0129-110.9117,82.6265a.5219.5219,0,0,1-.57.0447.5365.5365,0,0,1-.2887-.4936l.6694-20.0573-107.6166,60.1667a.5422.5422,0,0,1-.4229.0446L1282.2913,893.45l76.9558,71.5633a.5381.5381,0,0,1-.3661.932Zm-108.0841-24.8487L1357.072,964.46l-77.087-71.6843-25.77-7.1488Zm32.038-48.6074,214.2987,62.9733-22.1813-88.6462Zm193.1914-25.8149,22.11,88.36,78.3889-101.7913Zm102.0114-13.633-78.1292,101.4523,105.8971-59.2059,1.5385-46.1635ZM1197.2419,869.82l52.5442,70.2086,3.37-54.6957Zm-112.1927-31.1283,163.0516,100.88L1195.5471,869.35Zm521.8118,57.24-.6535,19.5925,103.4214-77.05Zm1.5649-46.9512-1.5227,45.6963,106.9235-59.7809Zm-353.6922,28.2432,25.4285,14.4,69.77-70.6785L1258.0126,824Zm96.7609-56.3312-69.7519,70.66L1474.69,865.7663l-12.1525-48.5629Zm-97.2112,63.6373,21.9014,6.075L1254.66,878.4151ZM1196.1878,868.41l57.0361,15.8255.3952-6.4084-87.4413-49.5161Zm-30.0492-41.3563,87.5539,49.5787,3.241-52.598ZM1084.2734,837.36l110.22,30.58-30.5256-40.7893Zm379.364-20.1938,12.1262,48.458,101.6939-13.5911,30.5482-39.6658Zm144.896-3.7225L1578.97,851.8314l28.4112-3.7965Zm1.1106-.9952-1.1816,35.4417,104.8786-14.014Zm-539.3856-42.4644,11.7442,66.5831,80.618-10.3279Zm-61.7343-37.6023,71.39,101.5076-23.9535-72.6133Zm602.3748,79.2266L1716.2054,833.37l29.918-80.4528Zm136.5923-59.2847-29.1043,78.2685,71.1644-96.5248Zm-690.1128,9.8134,22.36,67.783-10.7033-60.6815Zm206.1157-44.58-98.0354,108.4411,91.54-3.04Zm-107.3028,5.1062,8.4534,102.6337,98.205-108.63Zm-92.7352,5.214,100.1,97.3149-8.4389-102.4684Zm6.5542,40.6973,90.4011,55.0608-97.3883-94.6793Zm194.618-51.9391L1258.08,822.9212l92.9518-3.09,88.8758-90.0323Zm176.19,13.7725-88.2249,89.3707,109.6763-3.644Zm1.092-.0658,21.4595,85.756,143.5859-4.77Zm.8637-.7718,165.7227,81.3138-10.9842-111.77Zm221.1509-43.53-53.7663,124.7178,136.4845-59.24,32.8007-88.2131ZM1598.57,698.9043l10.8872,110.7619,53.1889-123.3739Zm-541.7115,61.6582,11.9281,7.2668-7.0294-39.8549-15.3605.8769ZM1008.3534,731.02l47.0875,28.6814-10.1559-30.7869Zm771.7151-66.3073-32.0577,86.2124,42.5615-18.4743Zm-4.358-37.4843,5.1061,35.2869,10.52,67.8353,23.8405-79.426ZM964.0476,611.1506,1006.97,730.0221l37.9671-2.166-10.9909-33.32ZM1264.61,715.5541l175.2,13.1607L1279.7014,550.9866l-31.4971,20.606ZM1583.9238,560.86l-141.42,167.6655,154.9011-30.488Zm-183.3452-88.2145,40.8748,255.46,142.0187-168.3795ZM1035.813,696.7647l10.2347,31.0285,15.0562-.8584Zm244.7981-146.3741,159.6767,177.2478-40.8025-255.0135ZM1148.09,637.3827l-84.5664,89.4156,91.5065-5.1457Zm-113.1876,56.62,27.3257,32.5982,85.2-90.0637-138.2685-20.5694Zm114.2548-56.7566,6.9466,84.3459,106.4273-5.9831Zm.3347-1.0764,113.9661,78.7723-16.2613-142.6908ZM1584.94,560.217l13.5257,137.6136,64.6954-12.7354,42.887-99.4755ZM963.8336,609.2236l69.2018,82.5529L1007.9687,615.79Zm743.2172-23.2181-42.6087,98.8375,115.2352-22.68-5.1586-35.649Zm109.3965,64.4276,6.9415,4.1664,15.5576-79.1242Zm-40.9363-24.5779,39.986,24.0056,25.3449-84.4376-72.4848,11.0051Zm-766.7282-11.0318L1147.126,635.406l-63.7752-70.781-81.27,29.8812Zm75.6548-50.5973,63.6481,70.6363,7.1958-96.6848Zm71.9518-26.4579-7.1816,96.4931,89.5863-126.7907Zm83.4666-29.9366L1150.5743,634.193l96.4856-63.1386Zm468.5022,77.7039,65.9635,39.603-7.0278-48.55ZM964.6737,608.26l42.9184,6.3875-6.5213-19.7685Zm20.5562-61.406L963.4069,607.58l37.3265-13.7225Zm-25.8162-78.259,3.5612,137.0109,21.7074-60.4084Zm26.4055,76.6157,15.925,48.2741,80.8307-29.721L1008.64,481.71Zm764.2369-87.75-42.467,127.1031,59.5523-9.0389ZM1585.7456,559.2876l120.1369,25.1979-35.0871-78.708Zm85.9686-54.0892,35.0162,78.5494,42.5458-127.3485Zm79.3524-48.2491,17.1381,118.4131,72.3719-10.9869ZM1240.9547,507.976l7.1133,62.4195,30.9052-20.2175Zm-231.6456-27.13,74.354,82.5187,71.7063-26.3659,10.0261-134.7151Zm741.789-25.5414,89.5441,107.4695-20.8369-101.5195-50.0358-15.992Zm69.8807,6.3256,20.018,97.5211-1.0633-91.4633Zm-419.6533,10.1809,182.64,86.9595,38.5712-160.0849Zm222.1117-72.2681-38.2717,158.8389,85.186-53.597ZM1241.25,506.6988l38.6327,42.8832,117.2754-76.7195ZM959.6212,465.7912l25.652,77.763,22.47-62.5283ZM1166.4273,402.91l-9.95,133.6822,82.9088-30.4852Zm.9148-.5683,73.1214,103.4266,157.2747-34.1315Zm457.0088-3.39,46.92,105.2551,77.8588-48.9843ZM959.415,464.5981l48.3164,15.2962L983.4878,358.9069Zm59.81-98.8941-10.1667,114.0632L1164.4611,401.55Zm-35.01-8.6413,24.0177,119.8611,9.9355-111.4811Zm439.9692-18.3547-23.6107,132.2184,220.9238-73.02Zm-256.8891,62.4953L1398.12,470.6285l-126.519-134.5027Zm105.2368-65.6576,127.0125,135.0274,23.6027-132.1762L1318.354,306.956Zm498.5528,109.0094,48.4711,15.4919-7.6815-37.4275Zm-139.0126-43.3L1749.615,454.261l-1.9429-16.06Zm122.6595,39.2024-3.6281,13.6241,17.2431-9.2725Zm-5.9331-1.8969,1.6644,13.7475,3.2423-12.1788Zm6.2087.856,14.6545,4.6836,41.9867-22.5789-22.58-110.0019Zm-6.3506-2.0294,5.3269,1.7025,34.3153-128.8554-51.6843,27.6432Zm-123.9987-39.63L1747.53,437.0256l-11.9347-98.6039Zm166.2348-82.6972,21.7453,105.9286,16.7259-8.9957Zm-728.7361-17.994,103.6446,103.3508,48.6523-124.285ZM1019.3207,364.62l144.9315,35.7713L1060.9633,297.3947l-38.2768,29.4691Zm196.1579-88.1591-48.3843,123.6008L1270.85,335.3266Zm208.8946,61.1815,196.8878,59.0707-177.56-167.3018Zm20.7949-108.3254L1622.7205,396.61l-2.6015-126.3942Zm239.0608,55.886L1624.59,396.5815l110.87-59.3056-4.996-41.2635Zm-63.0284-14.7344,2.5808,125.3493,59.3634-110.8681ZM984.7336,356.0836l33.5317,8.2763,3.262-36.6036Zm40.7-72.166L985.69,353.62l36.5154-33.4806Zm-3.37,37.81-28.965,26.5589,28.558-21.9869Zm297.504-15.5288,103.768,31.1323,19.2671-107.8964Zm412.0109-9.9264,4.8963,40.4587,51.149-27.3569Zm-514.5264-19.708,54.7285,58.1819,45.2011-28.201ZM1023.24,320.65l-.424,4.757,37.1442-28.5962-7.2668-3.1673Zm3.4182-38.35-3.2766,36.7622,28.2327-25.8883Zm704.784,12.8364,56.4181,13.1894-65.8719-91.3081ZM1217.48,275.5691l100.7162,30.2175,122.3144-76.3125ZM1097.69,252.385l-35.4051,43.5776,151.5278-20.8293-81.4963-54.4973Zm-44.13,40.464,7.141,3.1109,5.3148-14.5311Zm631.194-8.6268,45.5729,10.6536-9.451-78.111Zm-617.0158-4.3739-5.1207,14,29.6411-36.4815Zm-40.674,1.4557,25.4183,11.0751,14.3368-13.1464L1096.01,199.426Zm594.1127-11.945,62.4929,14.61,36.6128-68.375-100.1138,4.8017Zm-523.3449-71.7839-29.29,80.0785,28.3652-26.0089,28.79-35.435Zm172.4593-41.2907-54.0736,118.4473,225.3224-46.569ZM1133.133,219.8876l81.5015,54.5016-12.3453-117.9121Zm70.1431-64.3148,12.3417,117.8843,53.6809-117.59-45.51-19.1018Zm243.94,73.1187,172.8792,40.414-1-48.6585Zm-320.6213-11.8821-24.2565,29.8551,29.0581-26.6431Zm445.89-56.2893-126.76,67.166,173.3464-8.3144-.8637-41.9222Zm-301.7477-5.2151,171.577,72.0176-43.5959-99.6438-115.08-.6325ZM1485.4642,128.3l-41.0469,98.864,126.716-67.1437Zm-85.5695-.6143,43.4384,99.2826,41.0283-98.8194Zm219.3974,50.1657.853,41.4694,98.4018-4.72ZM1127.276,215.972l4.9371,3.3013,69.9368-64.1271-2.9063-27.7548ZM1098.5172,196.74l27.8609,18.6306,70.4662-86.731Zm520.7512-20.0443,98.7771,36.5718-99.5935-76.307Zm-45.51-16.85,44.4252,16.4487-.8137-39.5567Zm-84.9866-31.467,83.6344,30.9667,43.5461-23.0725Zm-264.1116,7.5859,45.0858,18.9244,12.7131-27.8494-47.7779-.2623Zm-24.3876-9.0707,2.8642,27.348,19.56-17.9348Zm2.0765-.2938,21.22,8.9064,9.53-8.737Zm283.6871.5315,125.6237,7.7972-115.0858-27.3045Zm11.0656-20.4866,113.7285,26.9815-105.624-41.9837Zm-97.6786,19.9629,83.2262.4567L1379.0342,80.0058Zm-16.1759-45.8694,101.6837,46.18,10.5589-19.55Zm-99.12,45.2355,114.1183.6274L1377.6492,79.523,1300.574,89.9507Zm-81.6694-.449,31.8071.1745,23.9467-21.9568Z"/><circle class="cls-3" cx="1199.6441" cy="126.0478" r="6.5044"/><circle class="cls-3" cx="1260.6956" cy="102.1957" r="4.9473"/><path class="cls-3" d="M990.0269,356.3379a6.5045,6.5045,0,1,1-6.5044-6.5046A6.5045,6.5045,0,0,1,990.0269,356.3379Z"/><path class="cls-3" d="M965.285,464.9618a6.5044,6.5044,0,1,1-6.5044-6.5046A6.5044,6.5044,0,0,1,965.285,464.9618Z"/><path class="cls-3" d="M1088.0661,837.1669a6.5044,6.5044,0,1,1-6.5044-6.5047A6.5046,6.5046,0,0,1,1088.0661,837.1669Z"/><path class="cls-3" d="M1286.76,892.2927a6.5045,6.5045,0,1,1-6.5044-6.5044A6.5046,6.5046,0,0,1,1286.76,892.2927Z"/><circle class="cls-3" cx="1164.2102" cy="826.5784" r="6.5044"/><circle class="cls-3" cx="1609.1267" cy="811.7926" r="6.5044"/><path class="cls-3" d="M1713.3068,585.2272a6.5045,6.5045,0,1,1-6.5046-6.5044A6.5044,6.5044,0,0,1,1713.3068,585.2272Z"/><path class="cls-3" d="M1590.8389,559.539a6.5044,6.5044,0,1,1-6.5044-6.5047A6.5046,6.5046,0,0,1,1590.8389,559.539Z"/><circle class="cls-3" cx="1609.1267" cy="811.7926" r="6.5044"/><path class="cls-3" d="M1447.6113,729.3508a6.5044,6.5044,0,1,1-6.5044-6.5044A6.5045,6.5045,0,0,1,1447.6113,729.3508Z"/><path class="cls-3" d="M1786.7874,662.591a6.5045,6.5045,0,1,1-6.5044-6.5043A6.5044,6.5044,0,0,1,1786.7874,662.591Z"/><path class="cls-3" d="M1756.7678,455.1425a6.5044,6.5044,0,1,1-6.5044-6.5044A6.5044,6.5044,0,0,1,1756.7678,455.1425Z"/><circle class="cls-3" cx="1841.6003" cy="564.7634" r="6.5044"/><path class="cls-3" d="M1713.3068,585.2272a6.5045,6.5045,0,1,1-6.5046-6.5044A6.5044,6.5044,0,0,1,1713.3068,585.2272Z"/><path class="cls-3" d="M1828.7031,655.4568a4.9327,4.9327,0,1,1-4.9325-4.9328A4.9326,4.9326,0,0,1,1828.7031,655.4568Z"/><circle class="cls-3" cx="1841.6003" cy="564.7634" r="6.5044"/><circle class="cls-3" cx="1791.1685" cy="732.7774" r="6.5044"/><path class="cls-3" d="M1786.7874,662.591a6.5045,6.5045,0,1,1-6.5044-6.5043A6.5044,6.5044,0,0,1,1786.7874,662.591Z"/><path class="cls-3" d="M1723.053,833.9906a6.5045,6.5045,0,1,1-6.5046-6.5046A6.5045,6.5045,0,0,1,1723.053,833.9906Z"/><circle class="cls-3" cx="1791.1685" cy="732.7774" r="7.2477"/><circle class="cls-3" cx="1609.1267" cy="811.7926" r="6.5044"/><path class="cls-3" d="M1723.053,833.9906a6.5045,6.5045,0,1,1-6.5046-6.5046A6.5045,6.5045,0,0,1,1723.053,833.9906Z"/><path class="cls-3" d="M1613.42,916.62a7.7871,7.7871,0,1,1-7.7869-7.787A7.7871,7.7871,0,0,1,1613.42,916.62Z"/><circle class="cls-3" cx="1609.1267" cy="811.7926" r="9.9056"/><path class="cls-3" d="M1504.388,956.2413a6.5045,6.5045,0,1,1-6.5044-6.5044A6.5044,6.5044,0,0,1,1504.388,956.2413Z"/><path class="cls-3" d="M1723.053,833.9906a6.5045,6.5045,0,1,1-6.5046-6.5046A6.5045,6.5045,0,0,1,1723.053,833.9906Z"/><path class="cls-3" d="M1286.76,892.2927a6.5045,6.5045,0,1,1-6.5044-6.5044A6.5046,6.5046,0,0,1,1286.76,892.2927Z"/><path class="cls-3" d="M1447.6113,729.3508a6.5044,6.5044,0,1,1-6.5044-6.5044A6.5045,6.5045,0,0,1,1447.6113,729.3508Z"/><path class="cls-3" d="M1504.388,956.2413a6.5045,6.5045,0,1,1-6.5044-6.5044A6.5044,6.5044,0,0,1,1504.388,956.2413Z"/><path class="cls-3" d="M1291.2515,892.2927a10.9956,10.9956,0,1,1-10.9955-10.9955A10.9955,10.9955,0,0,1,1291.2515,892.2927Z"/><path class="cls-3" d="M1365.3851,965.4063a6.5046,6.5046,0,1,1-6.5044-6.5046A6.5046,6.5046,0,0,1,1365.3851,965.4063Z"/><path class="cls-3" d="M1256.7367,941.5214a6.5045,6.5045,0,1,1-6.5046-6.5046A6.5045,6.5045,0,0,1,1256.7367,941.5214Z"/><path class="cls-3" d="M1270.6305,716.0587a6.5045,6.5045,0,1,1-6.5044-6.5044A6.5044,6.5044,0,0,1,1270.6305,716.0587Z"/><path class="cls-3" d="M1447.6113,729.3508a6.5044,6.5044,0,1,1-6.5044-6.5044A6.5045,6.5045,0,0,1,1447.6113,729.3508Z"/><path class="cls-3" d="M1590.8389,559.539a6.5044,6.5044,0,1,1-6.5044-6.5047A6.5046,6.5046,0,0,1,1590.8389,559.539Z"/><path class="cls-3" d="M1756.7678,455.1425a6.5044,6.5044,0,1,1-6.5044-6.5044A6.5044,6.5044,0,0,1,1756.7678,455.1425Z"/><path class="cls-3" d="M1715.5524,585.2272a8.75,8.75,0,1,1-8.75-8.75A8.75,8.75,0,0,1,1715.5524,585.2272Z"/><path class="cls-3" d="M1629.79,397.8813a6.5046,6.5046,0,1,1-6.5044-6.5044A6.5047,6.5047,0,0,1,1629.79,397.8813Z"/><path class="cls-3" d="M1594.7031,559.539a10.3687,10.3687,0,1,1-10.3686-10.3689A10.3685,10.3685,0,0,1,1594.7031,559.539Z"/><path class="cls-3" d="M1406.3905,471.7205a6.5045,6.5045,0,1,1-6.5044-6.5044A6.5044,6.5044,0,0,1,1406.3905,471.7205Z"/><path class="cls-3" d="M1451.323,729.3508a10.2161,10.2161,0,1,1-10.2161-10.2158A10.2161,10.2161,0,0,1,1451.323,729.3508Z"/><circle class="cls-3" cx="1240.2299" cy="506.37" r="6.5044"/><path class="cls-3" d="M1270.6305,716.0587a6.5045,6.5045,0,1,1-6.5044-6.5044A6.5044,6.5044,0,0,1,1270.6305,716.0587Z"/><circle class="cls-3" cx="1164.2102" cy="826.5784" r="6.5044"/><path class="cls-3" d="M1258.196,941.5214a7.9638,7.9638,0,1,1-7.9639-7.9638A7.9638,7.9638,0,0,1,1258.196,941.5214Z"/><path class="cls-3" d="M1088.0661,837.1669a6.5044,6.5044,0,1,1-6.5044-6.5047A6.5046,6.5046,0,0,1,1088.0661,837.1669Z"/><circle class="cls-3" cx="1164.2102" cy="826.5784" r="6.5044"/><path class="cls-3" d="M1155.0329,636.156a6.5046,6.5046,0,1,1-6.5044-6.5046A6.5046,6.5046,0,0,1,1155.0329,636.156Z"/><path class="cls-3" d="M1270.6305,716.0587a6.5045,6.5045,0,1,1-6.5044-6.5044A6.5044,6.5044,0,0,1,1270.6305,716.0587Z"/><path class="cls-3" d="M1068.708,727.4093a6.5045,6.5045,0,1,1-6.5043-6.5044A6.5044,6.5044,0,0,1,1068.708,727.4093Z"/><circle class="cls-3" cx="1164.2102" cy="826.5784" r="6.5044"/><path class="cls-3" d="M1013.1037,730.5813a6.5044,6.5044,0,1,1-6.5044-6.5047A6.5044,6.5044,0,0,1,1013.1037,730.5813Z"/><path class="cls-3" d="M1088.0661,837.1669a6.5044,6.5044,0,1,1-6.5044-6.5047A6.5046,6.5046,0,0,1,1088.0661,837.1669Z"/><path class="cls-3" d="M1068.708,727.4093a6.5045,6.5045,0,1,1-6.5043-6.5044A6.5044,6.5044,0,0,1,1068.708,727.4093Z"/><path class="cls-3" d="M1013.1037,730.5813a6.5044,6.5044,0,1,1-6.5044-6.5047A6.5044,6.5044,0,0,1,1013.1037,730.5813Z"/><path class="cls-3" d="M969.0158,608.4825a6.5045,6.5045,0,1,1-6.5044-6.5044A6.5044,6.5044,0,0,1,969.0158,608.4825Z"/><path class="cls-3" d="M1070.7213,727.4093a8.5178,8.5178,0,1,1-8.5176-8.5176A8.5177,8.5177,0,0,1,1070.7213,727.4093Z"/><path class="cls-3" d="M1155.0329,636.156a6.5046,6.5046,0,1,1-6.5044-6.5046A6.5046,6.5046,0,0,1,1155.0329,636.156Z"/><path class="cls-3" d="M1406.3905,471.7205a6.5045,6.5045,0,1,1-6.5044-6.5044A6.5044,6.5044,0,0,1,1406.3905,471.7205Z"/><path class="cls-3" d="M1629.79,397.8813a6.5046,6.5046,0,1,1-6.5044-6.5044A6.5047,6.5047,0,0,1,1629.79,397.8813Z"/><path class="cls-3" d="M1844.4534,467.2939a3.9873,3.9873,0,1,1-3.9873-3.9873A3.9873,3.9873,0,0,1,1844.4534,467.2939Z"/><circle class="cls-3" cx="1841.6003" cy="564.7634" r="6.5044"/><path class="cls-3" d="M1795.6419,309.1752a6.5045,6.5045,0,1,1-6.5044-6.5044A6.5046,6.5046,0,0,1,1795.6419,309.1752Z"/><path class="cls-3" d="M1629.79,397.8813a6.5046,6.5046,0,1,1-6.5044-6.5044A6.5047,6.5047,0,0,1,1629.79,397.8813Z"/><path class="cls-3" d="M1756.7678,455.1425a6.5044,6.5044,0,1,1-6.5044-6.5044A6.5044,6.5044,0,0,1,1756.7678,455.1425Z"/><path class="cls-3" d="M1836.5465,412.2388a6.5045,6.5045,0,1,1-6.5046-6.5044A6.5044,6.5044,0,0,1,1836.5465,412.2388Z"/><path class="cls-3" d="M1795.6419,309.1752a6.5045,6.5045,0,1,1-6.5044-6.5044A6.5046,6.5046,0,0,1,1795.6419,309.1752Z"/><path class="cls-3" d="M1756.7678,455.1425a6.5044,6.5044,0,1,1-6.5044-6.5044A6.5044,6.5044,0,0,1,1756.7678,455.1425Z"/><path class="cls-3" d="M1449.8517,228.3383a6.5045,6.5045,0,1,1-6.5046-6.5047A6.5046,6.5046,0,0,1,1449.8517,228.3383Z"/><path class="cls-3" d="M1795.6419,309.1752a6.5045,6.5045,0,1,1-6.5044-6.5044A6.5046,6.5046,0,0,1,1795.6419,309.1752Z"/><path class="cls-3" d="M1629.79,397.8813a6.5046,6.5046,0,1,1-6.5044-6.5044A6.5047,6.5047,0,0,1,1629.79,397.8813Z"/><path class="cls-3" d="M1624.3942,135.8548a6.5044,6.5044,0,1,1-6.5044-6.5047A6.5044,6.5044,0,0,1,1624.3942,135.8548Z"/><path class="cls-3" d="M1726.3519,215.0112a5.1472,5.1472,0,1,1-5.1471-5.1473A5.1474,5.1474,0,0,1,1726.3519,215.0112Z"/><circle class="cls-3" cx="1485.1655" cy="127.6159" r="6.5044"/><path class="cls-3" d="M1511.4634,90.9666a6.5044,6.5044,0,1,1-6.5044-6.5044A6.5045,6.5045,0,0,1,1511.4634,90.9666Z"/><circle class="cls-3" cx="1572.5898" cy="159.9728" r="3.9196"/><path class="cls-3" d="M1622.6538,177.1785a3.7759,3.7759,0,1,1-3.7757-3.7757A3.7757,3.7757,0,0,1,1622.6538,177.1785Z"/><circle class="cls-3" cx="1620.0711" cy="269.6209" r="3.7757"/><circle class="cls-3" cx="1619.7448" cy="219.4956" r="3.7757"/><circle class="cls-3" cx="1683.517" cy="284.669" r="3.7757"/><circle class="cls-3" cx="1730.6948" cy="295.2432" r="3.7757"/><path class="cls-3" d="M1740.1644,337.54a3.7757,3.7757,0,1,1-3.7757-3.7757A3.7759,3.7759,0,0,1,1740.1644,337.54Z"/><circle class="cls-3" cx="1748.0232" cy="437.2205" r="3.7757"/><path class="cls-3" d="M1773.7536,444.8373a3.7759,3.7759,0,1,1-3.776-3.7757A3.7759,3.7759,0,0,1,1773.7536,444.8373Z"/><circle class="cls-3" cx="1671.4062" cy="504.4285" r="3.7757"/><circle class="cls-3" cx="1767.7375" cy="576.1167" r="3.7757"/><path class="cls-3" d="M1778.6821,626.2988a3.7759,3.7759,0,1,1-3.7757-3.7758A3.7757,3.7757,0,0,1,1778.6821,626.2988Z"/><circle class="cls-3" cx="1664.2372" cy="684.9936" r="3.7757"/><circle class="cls-3" cx="1598.3735" cy="699.3315" r="3.7757"/><circle class="cls-3" cx="1475.6069" cy="866.9032" r="3.7757"/><circle class="cls-3" cx="1462.6134" cy="816.7211" r="3.7757"/><circle class="cls-3" cx="1351.0483" cy="820.7536" r="3.7757"/><path class="cls-3" d="M1257.1486,885.2732a3.7759,3.7759,0,1,1-3.7758-3.7757A3.7757,3.7757,0,0,1,1257.1486,885.2732Z"/><circle class="cls-3" cx="1196.0219" cy="869.1433" r="3.7757"/><circle class="cls-3" cx="1257.8532" cy="823.8901" r="3.7757"/><circle class="cls-3" cx="1071.0151" cy="768.3314" r="3.7757"/><circle class="cls-3" cx="1056.2294" cy="761.1628" r="3.7757"/><circle class="cls-3" cx="1045.4761" cy="728.4548" r="3.7757"/><path class="cls-3" d="M1038.0507,695.299a3.7759,3.7759,0,1,1-3.7757-3.7758A3.7757,3.7757,0,0,1,1038.0507,695.299Z"/><circle class="cls-3" cx="1008.2878" cy="615.5455" r="3.7757"/><circle class="cls-3" cx="1001.5671" cy="593.5908" r="3.7757"/><path class="cls-3" d="M1159.025,722.1822a3.7759,3.7759,0,1,1-3.7757-3.7758A3.7757,3.7757,0,0,1,1159.025,722.1822Z"/><circle class="cls-3" cx="1083.5607" cy="564.0193" r="3.7757"/><path class="cls-3" d="M989.661,544.3051a3.7759,3.7759,0,1,1-3.7757-3.7758A3.7757,3.7757,0,0,1,989.661,544.3051Z"/><circle class="cls-3" cx="1019.4323" cy="365.6417" r="3.7757"/><circle class="cls-3" cx="1098.3465" cy="251.2785" r="3.7757"/><path class="cls-3" d="M1026.4012,320.2787a3.7758,3.7758,0,1,1-3.7758-3.776A3.7757,3.7757,0,0,1,1026.4012,320.2787Z"/><circle class="cls-3" cx="1131.9504" cy="220.3629" r="3.7757"/><path class="cls-3" d="M1071.2066,279.954a3.7758,3.7758,0,1,1-3.7758-3.776A3.7757,3.7757,0,0,1,1071.2066,279.954Z"/><path class="cls-3" d="M1273.7266,155.5865a3.7759,3.7759,0,1,1-3.776-3.7757A3.7758,3.7758,0,0,1,1273.7266,155.5865Z"/><path class="cls-3" d="M1287.1682,126.2718a3.7759,3.7759,0,1,1-3.776-3.7758A3.7759,3.7759,0,0,1,1287.1682,126.2718Z"/><circle class="cls-3" cx="1223.8014" cy="137.025" r="3.7757"/><circle class="cls-3" cx="1203.1908" cy="155.8432" r="3.7757"/><circle class="cls-3" cx="1235.4506" cy="125.8236" r="3.7757"/><path class="cls-3" d="M1402.7659,126.72a3.7759,3.7759,0,1,1-3.7761-3.776A3.7759,3.7759,0,0,1,1402.7659,126.72Z"/><path class="cls-3" d="M1321.6682,306.8371a3.7758,3.7758,0,1,1-3.7757-3.776A3.7757,3.7757,0,0,1,1321.6682,306.8371Z"/><circle class="cls-3" cx="1271.7429" cy="335.5124" r="3.7757"/><path class="cls-3" d="M1427.4086,337.7528a3.7758,3.7758,0,1,1-3.7757-3.776A3.7757,3.7757,0,0,1,1427.4086,337.7528Z"/><circle class="cls-3" cx="1496.2174" cy="107.0054" r="3.7757"/><path class="cls-3" d="M1624.3942,135.8548a6.5044,6.5044,0,1,1-6.5044-6.5047A6.5044,6.5044,0,0,1,1624.3942,135.8548Z"/><path class="cls-3" d="M1384.4837,78.9356a6.5044,6.5044,0,1,1-6.5044-6.5044A6.5044,6.5044,0,0,1,1384.4837,78.9356Z"/><circle class="cls-3" cx="1485.1655" cy="127.6159" r="6.5044"/><path class="cls-3" d="M1627.7543,135.8548a9.8645,9.8645,0,1,1-9.8645-9.8645A9.8644,9.8644,0,0,1,1627.7543,135.8548Z"/><path class="cls-3" d="M1449.8517,228.3383a6.5045,6.5045,0,1,1-6.5046-6.5047A6.5046,6.5046,0,0,1,1449.8517,228.3383Z"/><circle class="cls-3" cx="1623.2852" cy="397.8814" r="22.7119" transform="translate(164.1082 1212.8457) rotate(-42.956)"/><circle class="cls-3" cx="1215.2883" cy="275.4734" r="6.5044"/><path class="cls-3" d="M1406.3905,471.7205a6.5045,6.5045,0,1,1-6.5044-6.5044A6.5044,6.5044,0,0,1,1406.3905,471.7205Z"/><path class="cls-3" d="M1449.8517,228.3383a6.5045,6.5045,0,1,1-6.5046-6.5047A6.5046,6.5046,0,0,1,1449.8517,228.3383Z"/><path class="cls-3" d="M1172.5069,401.3761a6.5045,6.5045,0,1,1-6.5044-6.5044A6.5046,6.5046,0,0,1,1172.5069,401.3761Z"/><circle class="cls-3" cx="1240.2299" cy="506.37" r="6.5044"/><path class="cls-3" d="M1417.3607,471.7205a17.4747,17.4747,0,1,1-17.4746-17.4749A17.4747,17.4747,0,0,1,1417.3607,471.7205Z"/><path class="cls-3" d="M1172.5069,401.3761a6.5045,6.5045,0,1,1-6.5044-6.5044A6.5046,6.5046,0,0,1,1172.5069,401.3761Z"/><path class="cls-3" d="M1155.0329,636.156a6.5046,6.5046,0,1,1-6.5044-6.5046A6.5046,6.5046,0,0,1,1155.0329,636.156Z"/><circle class="cls-3" cx="1240.2299" cy="506.37" r="8.9032"/><path class="cls-3" d="M969.0158,608.4825a6.5045,6.5045,0,1,1-6.5044-6.5044A6.5044,6.5044,0,0,1,969.0158,608.4825Z"/><circle class="cls-3" cx="1148.5284" cy="636.1559" r="19.7455" transform="translate(264.7881 1607.1426) rotate(-76.6747)"/><path class="cls-3" d="M1014.9417,480.6815a6.5045,6.5045,0,1,1-6.5044-6.5044A6.5046,6.5046,0,0,1,1014.9417,480.6815Z"/><path class="cls-3" d="M965.285,464.9618a6.5044,6.5044,0,1,1-6.5044-6.5046A6.5044,6.5044,0,0,1,965.285,464.9618Z"/><path class="cls-3" d="M969.0158,608.4825a6.5045,6.5045,0,1,1-6.5044-6.5044A6.5044,6.5044,0,0,1,969.0158,608.4825Z"/><path class="cls-3" d="M1014.9417,480.6815a6.5045,6.5045,0,1,1-6.5044-6.5044A6.5046,6.5046,0,0,1,1014.9417,480.6815Z"/><path class="cls-3" d="M1172.5069,401.3761a6.5045,6.5045,0,1,1-6.5044-6.5044A6.5046,6.5046,0,0,1,1172.5069,401.3761Z"/><path class="cls-3" d="M990.0269,356.3379a6.5045,6.5045,0,1,1-6.5044-6.5046A6.5045,6.5045,0,0,1,990.0269,356.3379Z"/><path class="cls-3" d="M1014.9417,480.6815a6.5045,6.5045,0,1,1-6.5044-6.5044A6.5046,6.5046,0,0,1,1014.9417,480.6815Z"/><path class="cls-3" d="M990.0269,356.3379a6.5045,6.5045,0,1,1-6.5044-6.5046A6.5045,6.5045,0,0,1,990.0269,356.3379Z"/><circle class="cls-3" cx="1061.0087" cy="296.6812" r="6.5044"/><circle class="cls-3" cx="1026.1888" cy="281.5092" r="5.1594"/><path class="cls-3" d="M1180.7652,401.3761a14.7628,14.7628,0,1,1-14.7627-14.7626A14.7628,14.7628,0,0,1,1180.7652,401.3761Z"/><circle class="cls-3" cx="1215.2883" cy="275.4734" r="6.5044"/><path class="cls-3" d="M1449.8517,228.3383a6.5045,6.5045,0,1,1-6.5046-6.5047A6.5046,6.5046,0,0,1,1449.8517,228.3383Z"/><circle class="cls-3" cx="1485.1655" cy="127.6159" r="8.9048"/><circle class="cls-3" cx="1199.6441" cy="126.0478" r="6.5044"/><circle class="cls-3" cx="1215.2883" cy="275.4734" r="6.5044"/><circle class="cls-3" cx="1097.5609" cy="196.7484" r="4.4677"/><circle class="cls-3" cx="1199.6441" cy="126.0478" r="6.5044"/><circle class="cls-3" cx="1215.2883" cy="275.4734" r="6.5044"/><path class="cls-3" d="M1306.712,89.4571a6.5044,6.5044,0,1,1-6.5044-6.5044A6.5046,6.5046,0,0,1,1306.712,89.4571Z"/><path class="cls-3" d="M1455.1827,228.3383a11.8355,11.8355,0,1,1-11.8356-11.8356A11.8355,11.8355,0,0,1,1455.1827,228.3383Z"/><path class="cls-3" d="M1384.4837,78.9356a6.5044,6.5044,0,1,1-6.5044-6.5044A6.5044,6.5044,0,0,1,1384.4837,78.9356Z"/><circle class="cls-3" cx="1199.6441" cy="126.0478" r="9.3403"/><path class="cls-4" d="M1399.4323,996.8384c210.3377,0,380.85,7.6254,380.85,17.0305s-170.5129,17.0294-380.8507,17.0289-380.85-7.6255-380.85-17.03S1189.0946,996.8381,1399.4323,996.8384Z"/></g></g></svg>